/* XPM */
static char *bc295e265e05449cac731a9901ade8f7[] = {
/* columns rows colors chars-per-pixel */
"105 78 186 2 ",
"   c #000000",
".  c #0A0703",
"X  c #0E0B05",
"o  c #130E07",
"O  c #1C1509",
"+  c #151008",
"@  c #251B0D",
"#  c #2A1F0F",
"$  c #2B200F",
"%  c #332612",
"&  c #382A13",
"*  c #4E3A1C",
"=  c #59411F",
"-  c #5D4521",
";  c #664B23",
":  c #694E25",
">  c #604721",
",  c #6E5126",
"<  c #7D5D2B",
"1  c #85632E",
"2  c #88652F",
"3  c #8D6931",
"4  c #8A6730",
"5  c #936E34",
"6  c #9D7537",
"7  c #A17738",
"8  c #A37939",
"9  c #A97E3B",
"0  c #F6662E",
"q  c #FA652D",
"w  c #F76E2A",
"e  c #F96C2C",
"r  c #FA7D26",
"t  c #FA732A",
"y  c #FA7C2A",
"u  c #F97627",
"i  c #FC6333",
"p  c #F76B33",
"a  c #F87B35",
"s  c #11AC5F",
"d  c #37A559",
"f  c #0EAD66",
"g  c #0AA76B",
"h  c #16A663",
"j  c #1CA664",
"k  c #15AB64",
"l  c #16AA69",
"z  c #19AC69",
"x  c #1AA668",
"c  c #12B167",
"v  c #14B46A",
"b  c #19B56D",
"n  c #1CB86F",
"m  c #1BBD72",
"M  c #20A765",
"N  c #3FB466",
"B  c #23BC75",
"V  c #5B9F56",
"C  c #47AA58",
"Z  c #7BB358",
"A  c #64B95B",
"S  c #4BBF68",
"D  c #56BC66",
"F  c #0BCD7C",
"G  c #1DC475",
"H  c #1DCB77",
"J  c #15CC7A",
"K  c #1CCB7A",
"L  c #1BCA78",
"P  c #2AC66F",
"I  c #23C375",
"U  c #22CB77",
"Y  c #24C77A",
"T  c #2AC77A",
"R  c #23CB79",
"E  c #29CA7A",
"W  c #29C675",
"Q  c #33C777",
"!  c #45C677",
"~  c #4EC577",
"^  c #47C67A",
"/  c #55C575",
"(  c #59C274",
")  c #63C471",
"_  c #76C374",
"`  c #7BC46B",
"'  c #AF823D",
"]  c #B2843E",
"[  c #BF9739",
"{  c #FC8E1E",
"}  c #FB901F",
"|  c #F7911F",
" . c #DE952F",
".. c #CA9C3C",
"X. c #D69A33",
"o. c #FB8526",
"O. c #F68F26",
"+. c #FD8F25",
"@. c #FB832A",
"#. c #FE8E28",
"$. c #FC9125",
"%. c #F5922A",
"&. c #FF9028",
"*. c #F9992C",
"=. c #F69226",
"-. c #E19A33",
";. c #F69532",
":. c #F99633",
">. c #F79B34",
",. c #FA9A33",
"<. c #F69C3A",
"1. c #F99D3A",
"2. c #F8953B",
"3. c #C7A03C",
"4. c #FBA33D",
"5. c #F7A03E",
"6. c #849B4B",
"7. c #B98940",
"8. c #B38840",
"9. c #9DA94A",
"0. c #A1A94D",
"q. c #97BF6C",
"w. c #85BE70",
"e. c #A5BF6B",
"r. c #B1BE67",
"t. c #BCBE66",
"y. c #C18E43",
"u. c #C49345",
"i. c #CB9647",
"p. c #CD9847",
"a. c #CD9A48",
"s. c #D19B49",
"d. c #F78B45",
"f. c #F79F46",
"g. c #F99D51",
"h. c #D8A24C",
"j. c #D0AB50",
"k. c #E3A84F",
"l. c #E2A74E",
"z. c #F5A343",
"x. c #F9A542",
"c. c #FAA844",
"v. c #F6A949",
"b. c #F9AB4C",
"n. c #F7A748",
"m. c #FCB14D",
"M. c #FFB94F",
"N. c #EBAE52",
"B. c #FAAE54",
"V. c #F6AB50",
"C. c #E9BD5C",
"Z. c #E5BD5F",
"A. c #F2B455",
"S. c #FBB453",
"D. c #FFBC57",
"F. c #FAB659",
"G. c #F6BD5C",
"H. c #FFBD59",
"J. c #C1BE66",
"K. c #C9BD65",
"L. c #D4BE63",
"P. c #DBBD61",
"I. c #E0BC60",
"U. c #8AC16C",
"Y. c #81C06F",
"T. c #98C06E",
"R. c #A6C169",
"E. c #FFC15B",
"W. c #FFC25B",
"Q. c #FFC25C",
"!. c #FFC55D",
"~. c #FFC15B",
"^. c #FFC95F",
"/. c #FFCA5F",
"(. c #FFC95F",
"). c #F5C35C",
"_. c #FECC60",
"`. c #FFC060",
"'. c #FFD263",
"]. c #FFD966",
"[. c #FFD697",
"{. c #FFD79A",
"}. c #FFF6E8",
"|. c #FFF6E8",
" X c #FFF5E7",
".X c #FFFAF1",
/* pixels */
"H.H.H.H.H.H.H.H.H.H.H.H.H.H.H.H.H.H.H.H.H.H.H.H.H.H.H.H.H.H.H.H.H.H.H.H.H.H.H.H.H.H.H.H.H.H.H.H.H.H.H.H.H.H.H.H.H.H.H.H.H.H.H.H.H.H.H.H.H.H.H.H.H.H.H.H.H.H.H.H.H.H.H.H.H.H.H.H.H.H.H.H.H.H.H.H.H.H.H.H.H.H.H.H.}.",
"H.H.H.H.H.H.H.H.H.H.H.H.H.H.H.H.H.H.H.H.H.H.H.H.H.H.H.H.H.H.H.H.H.H.H.H.H.H.H.H.H.H.H.H.H.H.H.H.H.H.H.H.H.H.H.H.H.H.H.H.H.H.H.H.H.H.H.H.H.H.H.H.H.H.H.H.H.H.H.H.H.H.H.H.H.H.H.H.H.H.H.H.H.H.H.H.H.H.H.H.H.H.H.H.}.",
"H.H.H.H.H.H.H.H.H.H.H.H.H.H.H.H.H.H.H.H.H.H.H.H.H.H.H.H.H.H.H.H.H.H.H.H.H.H.H.H.H.H.H.H.H.H.H.H.H.H.H.H.H.H.H.H.H.H.H.H.H.H.H.H.H.H.H.H.H.H.H.H.H.H.H.H.H.H.H.H.H.H.H.H.H.H.H.H.H.H.H.H.H.H.H.H.H.H.H.H.H.H.D.H.}.",
"H.H.H.H.H.H.H.H.H.H.H.H.H.H.H.H.H.H.H.H.H.H.H.H.H.H.H.H.H.H.H.H.H.H.H.H.H.H.H.H.H.H.H.H.H.H.H.H.H.H.H.H.H.H.H.H.H.H.H.H.H.H.H.H.H.H.H.H.H.H.H.H.H.H.H.H.H.H.H.H.H.H.H.H.H.H.H.H.H.H.H.H.H.H.H.H.H.H.H.H.H.H.D.H.}.",
"H.H.H.H.H.H.H.H.H.H.H.H.H.H.H.H.H.H.H.H.H.H.H.H.H.H.H.H.H.H.H.H.H.H.H.H.H.H.H.H.H.H.H.H.H.H.H.H.H.H.H.H.H.H.H.H.H.H.H.H.H.H.H.H.H.H.H.H.H.H.H.H.H.H.H.H.H.H.H.H.H.H.H.H.H.H.H.H.H.H.H.H.H.H.H.H.H.H.H.H.H.H.D.H.}.",
"H.H.H.H.H.H.H.H.H.H.H.H.H.H.H.H.H.H.H.H.H.H.H.H.H.H.H.H.H.H.H.H.H.H.H.H.H.H.H.H.H.H.H.H.H.H.H.H.H.H.H.H.H.H.H.H.H.H.H.H.H.H.H.H.H.H.H.H.H.H.H.H.H.H.H.H.H.H.H.H.H.H.H.H.H.H.H.H.H.H.H.H.H.H.H.H.H.H.H.H.H.H.D.H.}.",
"H.H.H.H.H.H.H.H.H.H.H.H.H.H.H.H.H.H.H.H.H.H.H.H.H.H.H.H.H.H.H.H.H.H.H.H.H.H.H.H.H.H.H.H.H.H.H.H.H.H.H.H.H.H.H.H.H.H.H.H.H.H.H.H.H.H.H.H.H.H.H.H.H.H.H.H.H.H.H.H.H.H.H.H.H.H.H.H.H.H.H.H.H.H.H.H.H.H.H.H.H.H.D.H.}.",
"H.H.H.H.H.H.H.H.H.H.H.H.H.H.H.H.H.H.H.H.H.H.H.H.H.H.H.H.H.H.H.H.H.H.H.H.H.H.H.H.H.H.H.H.H.H.H.H.H.H.H.H.H.H.H.H.H.H.H.H.H.H.H.H.H.H.H.H.H.H.H.H.H.H.H.H.H.H.H.H.H.H.H.H.H.H.H.H.H.H.H.H.H.H.H.H.H.H.H.H.H.H.D.H.}.",
"H.H.H.H.H.H.H.H.H.H.H.H.D.D.D.D.H.H.H.E.H.H.H.H.D.D.D.D.D.D.D.H.H.H.H.H.H.H.H.H.H.H.H.H.H.H.H.H.H.H.H.H.H.H.H.H.H.H.H.H.H.H.H.H.H.H.H.H.D.H.G.G.D.D.H.H.H.D.D.D.D.H.H.H.H.H.H.H.H.H.H.H.H.H.H.H.H.H.H.H.H.H.D.H.}.",
"H.H.H.H.H.H.H.H.H.H.H.E.!.!.!.!.Q.H.A.N.H.H.H.Q.^.^.^.^.^.^.^.E.H.H.H.H.H.H.H.H.H.H.H.H.H.H.H.H.H.H.H.H.H.H.H.H.H.H.H.H.H.H.H.H.H.H.D.Z.T./ ! ~ _ K.H.D.G.L.J.t.L.G.D.H.H.H.H.H.H.H.H.H.H.H.H.H.H.H.H.H.H.H.D.H.}.",
"H.H.H.H.H.H.H.H.H.H.E.k.' ] ' 9 p.^.: X A.H.E.s.2 3 3 3 3 3 5 k.E.H.H.H.H.H.H.H.H.H.H.H.H.H.H.H.H.H.H.H.H.H.H.H.H.H.H.H.H.H.H.H.H.D.r.Q J K K L J K _ t.^ R R R L / t.H.H.H.H.H.H.H.H.H.H.H.H.H.H.H.H.H.H.H.D.H.}.",
"H.H.H.H.H.H.H.H.H.F.^.7   X +   , '.>   ).Q.!.9 O # @ @ # o   7.!.D.H.H.H.H.H.H.H.H.H.H.H.H.H.H.H.H.H.H.H.H.H.H.H.H.H.H.H.H.H.H.D.r.K K R R R R T U K K K H R R R J J w.D.H.H.H.H.H.H.H.H.H.H.H.H.H.H.H.H.H.D.H.}.",
"H.H.H.H.H.H.H.H.H.F.^.7   ] F.N.A.^.;   1 a.Q.F.F.F.F.F.!.7   y.!.D.H.H.H.H.H.H.H.H.H.H.H.H.H.H.H.H.H.H.H.H.H.H.H.H.H.H.H.H.H.H.P.T H R R R E R R R R R R R R R R R R F q.D.H.H.H.H.H.H.H.H.H.H.H.H.H.H.H.H.D.H.}.",
"H.H.H.H.H.H.H.H.H.F.^.7   a.]._.!.^.;   o 6 _.~.!.!.!.~.'.5   h.!.D.H.H.H.H.H.H.H.H.H.H.H.H.H.H.H.H.H.H.H.H.H.H.H.H.H.H.H.H.H.H.Y.J R K R H m I R R R R R R R R R K R U Q I.H.H.H.H.H.H.H.H.H.H.H.H.H.H.H.H.D.H.}.",
"H.H.H.H.H.H.H.H.H.F.^.6   - < : % 5 ,   A.E.k.a.s.s.s.a.l.-   y.A.H.H.H.H.H.H.H.H.H.H.H.H.H.H.H.H.H.H.H.H.H.H.H.H.H.H.H.H.H.H.G.! K R R R b h k I R R R R K R R U H R R J U.D.H.H.H.H.H.H.H.H.H.H.H.H.H.H.H.D.H.}.",
"H.H.H.H.H.H.H.H.H.D.!.7.% % & * - u.,   A.^.,   o X X X X . .   6 ^.F.H.H.H.H.H.H.H.H.H.H.H.H.H.H.H.H.H.H.H.H.H.H.H.H.H.H.H.H.C.E R R R R v j h m E R R R G n G R R R R J ) H.H.H.H.H.H.H.H.H.H.H.H.H.H.H.H.D.H.}.",
"H.H.H.H.H.H.H.H.H.H.H.H.H.E.p.6 5 ] 7 8 F.E.k.i.u.p.s.s.s.s.s.p.N.H.H.H.H.H.H.H.H.H.H.H.H.H.H.H.H.H.H.H.H.H.H.H.H.H.H.H.H.H.H.C.R K R R K m h h c R K K G z j f R R R R J / D.H.H.H.H.H.H.H.H.H.H.H.H.H.H.H.D.H.}.",
"H.H.H.H.H.H.H.H.H.H.H.H.F.=   O # X X 7 E.F._.8.@ i.^.H.E.E.E.Q.E.H.H.H.H.H.H.H.H.H.H.H.H.H.H.H.H.H.H.H.H.H.H.H.H.H.H.H.H.H.D.F.( U K K J T z j h I R G k h j k R R R R F ) H.H.H.H.H.H.H.H.H.H.H.H.H.H.H.H.D.H.}.",
"H.H.H.H.H.H.H.H.H.H.D.^.8   7 _.~.^.=   N.H.^.6   u.'.^.^.^.^.Q.D.H.H.H.H.H.H.H.H.H.H.H.H.H.H.H.H.H.H.H.H.H.H.H.H.D.b.x.,.;.;.:.-...0.A P K n h h b G k j j f G R R R R J q.D.H.H.H.H.H.H.H.H.H.H.H.H.H.H.H.D.H.}.",
"H.H.H.H.H.H.H.H.H.H.D.!.u.  * ] 7.8 @ @ F.H.^.6   ; 3 2 2 4 < y.Q.H.H.H.H.H.H.H.H.H.H.H.H.H.H.H.H.H.H.H.H.H.H.F.x.:.O.+.+.$.+.$.+.+.#.%...Z W l j s h j j k I R R R R K Q C.H.H.H.H.H.H.H.H.H.H.H.H.H.H.H.H.D.H.}.",
"H.H.H.H.H.H.H.H.H.H.H.H.Q.' % o X o * h.E.F.!.] $ # @ @ @ # o 3 ^.F.H.H.H.H.H.H.H.H.H.H.H.H.H.H.H.H.H.H.H.H.b.;.+.$.$.+.+.$.O.O.O.#.$.#.$.+.3.C g h j M k G R R R R R K / H.H.H.H.H.H.H.H.H.H.H.H.H.H.H.H.H.H.H.}.",
"H.H.H.H.H.H.H.H.H.H.H.H.H.!.E.A.N.F.!.Q.H.H.H.H.F.D.H.H.H.H.H.H.H.H.H.H.H.H.H.H.H.H.H.H.H.H.H.H.H.H.H.H.H.1.#.+.$.&.#.$.$.#.$.$.$.#.#.#.$.O.+.[ h k l h b R R R R R R R L e.D.H.H.H.H.H.H.H.H.H.H.H.H.H.H.H.D.H.}.",
"H.H.H.H.H.H.H.H.H.H.H.H.H.D.H.E.E.H.H.H.H.H.H.H.H.H.H.H.H.H.H.H.H.H.H.H.H.H.H.H.H.H.H.H.H.H.H.H.H.H.H.H.>.+.&.$.#.$.&.#.#.$.&.&.#.&.&.&.#.#.+.%.V g h j h z b I R K H R L ^ G.H.H.H.H.H.H.H.H.H.H.H.H.H.H.H.H.H.}.",
"H.H.H.H.H.H.H.H.H.H.H.H.H.H.H.H.H.H.H.H.H.H.H.H.H.H.H.H.H.H.H.H.H.H.H.H.H.H.H.H.H.H.H.H.H.H.H.H.H.H.H.5.+.O.$.#.#.&.&.&.&.&.$.$.&.&.&.$.$.#.#.+. .6.d x j h h h v I H R U R K.D.H.H.H.H.H.H.H.H.H.H.H.H.H.H.D.H.}.",
"H.H.H.H.H.H.H.H.H.H.H.H.H.H.H.H.H.H.H.H.H.H.H.H.H.H.H.H.H.H.H.H.H.H.H.H.H.H.H.H.H.H.H.H.H.H.H.H.H.H.f.#.$.| O.#.$.&.&.&.&.&.&.&.&.&.&.&.&.#.#.#.+.#.X.N c h h j j c R R R J R.D.H.H.H.H.H.H.H.H.H.H.H.H.H.H.H.H.}.",
"H.H.H.H.H.H.H.H.H.H.H.H.H.H.H.H.H.H.H.H.H.H.H.H.H.H.H.H.H.H.H.H.H.H.H.H.H.H.H.H.H.H.H.H.H.H.H.H.E.g.0 @.$.+.#.#.&.&.&.&.&.&.&.&.&.&.&.&.&.#.#.$.&.$.{ 0.K B v k h v R R U L R.D.H.H.H.H.H.H.H.H.H.H.H.H.H.H.H.H.}.",
"H.H.H.H.H.H.H.H.H.H.H.H.H.H.H.H.H.H.H.H.H.H.H.H.H.H.H.H.H.H.H.H.H.H.H.H.H.H.H.H.H.H.H.H.H.H.H.E.B.p i q @.$.#.#.&.&.&.&.&.&.&.&.&.&.&.&.&.&.&.$.#.$.#.%.S K R G m Y R R L R P.D.H.H.H.H.H.H.H.H.H.H.H.H.H.H.D.H.}.",
"H.H.H.H.H.H.H.H.H.H.H.H.H.H.H.H.H.H.H.H.H.H.H.H.H.H.H.H.H.H.H.H.H.H.H.H.H.H.H.H.H.H.H.H.H.H.H.H.2.e i i q @.$.#.#.&.&.&.&.&.&.&.&.&.&.&.&.&.&.&.&.$.=.+.9.K R R K R R E J / D.H.H.H.H.H.H.H.H.H.H.H.H.H.H.H.D.H.}.",
"H.H.H.H.H.H.H.H.H.H.H.H.H.H.H.H.H.H.H.H.H.H.H.H.H.H.H.H.H.H.H.H.H.H.H.H.H.H.H.H.H.H.H.H.H.H.H.x.$.#.e i i q o.&.$.$.#.&.&.&.&.&.&.&.&.&.&.&.&.&.&.#.$.{ X.Q K R K H R K R K.H.H.H.H.H.H.H.H.H.H.H.H.H.H.H.H.D.H.}.",
"H.H.H.H.H.H.H.H.H.H.H.H.H.H.H.H.H.H.H.H.H.H.H.H.H.H.H.H.H.H.H.H.H.H.H.H.H.H.H.H.H.H.H.H.H.H.b.%.$.$.#.e i i q @.$.#.#.&.&.&.&.&.&.&.&.&.&.&.&.&.&.#.#.| %.D J R R U J Y R.D.H.H.H.H.H.H.H.H.H.H.H.H.H.H.H.H.D.H.}.",
"H.H.H.H.H.H.H.H.H.H.H.H.H.H.H.H.H.H.H.H.H.H.H.H.H.H.H.H.H.H.H.H.H.H.H.H.H.H.H.H.H.H.H.H.H.D.*.+.$.$.$.#.e i i q @.$.#.&.&.&.&.&.&.&.&.&.&.&.&.&.&.#.#.O.+.Z F K J K ~ J.D.H.H.H.H.H.H.H.H.H.H.H.H.H.H.H.H.H.D.H.}.",
"H.H.H.H.H.H.H.H.H.H.H.H.H.H.H.H.H.H.H.H.H.H.H.H.H.H.H.H.H.H.H.H.H.H.H.H.H.H.H.H.H.H.H.H.H.1.{ $.#.#.#.$.#.e i i u $.$.&.&.&.&.&.&.&.&.&.&.&.&.&.&.#.$.$.#.j.U.` U.t.G.D.H.H.H.H.H.H.H.H.H.H.H.H.H.H.H.H.H.H.D.H.}.",
"H.H.H.H.H.H.H.H.H.H.H.H.H.H.H.H.H.H.H.H.H.H.H.H.H.H.H.H.H.H.H.H.H.H.H.H.H.H.H.H.H.H.H.H.V.O.$.$.#.$.#.+.$.#.t e @.$.$.$.&.&.&.&.&.&.&.&.&.&.&.&.&.#.#.$.o.b.H.D.D.D.H.H.H.H.H.H.H.H.H.H.H.H.H.H.H.H.H.H.H.H.D.H.}.",
"H.H.H.H.H.H.H.H.H.H.H.H.H.H.H.H.H.H.H.H.H.H.H.H.H.H.H.H.H.H.H.H.H.H.H.H.H.H.H.H.H.H.H.S.%.+.#.$.#.#.#.#.$.$.O.+.$.$.$.&.$.$.&.&.&.&.&.&.&.&.&.&.&.#.$.$.+.b.Q.H.H.H.H.H.H.H.H.H.H.H.H.H.H.H.H.H.H.H.H.H.H.H.D.H.}.",
"H.H.H.H.H.H.H.H.H.H.H.H.H.H.H.H.H.H.H.H.H.H.H.H.H.H.H.H.H.H.H.H.H.H.H.H.H.H.H.H.H.H.H.>.+.#.#.#.#.#.#.#.#.#.$.$.#.#.#.&.&.&.&.&.&.&.&.&.&.&.&.&.&.#.$.$.$.b.E.H.H.H.H.H.H.H.H.H.H.H.H.H.H.H.H.H.H.H.H.H.H.H.D.H.}.",
"H.H.H.H.H.H.H.H.H.H.H.H.H.H.H.H.H.H.H.H.H.H.H.H.H.H.H.H.H.H.H.H.H.H.H.H.H.H.H.H.H.H.n.O.$.#.#.&.#.$.$.$.#.#.#.#.#.#.#.$.&.&.&.&.&.&.&.&.&.&.&.&.#.$.$.+.$.S.H.H.H.H.H.H.H.H.H.H.H.H.H.H.H.H.H.H.H.H.H.H.H.H.D.H.}.",
"H.H.H.H.H.H.H.H.H.H.H.H.H.H.H.H.H.H.H.H.H.H.H.H.H.H.H.H.H.H.H.H.H.H.H.H.H.H.H.H.E.S.#.{ +.#.#.#.&.&.#.#.#.&.&.#.#.#.#.&.&.&.&.&.&.&.&.&.$.&.&.&.#.$.$.+.;.F.H.H.H.H.H.H.H.H.H.H.H.H.H.H.H.H.H.H.H.H.H.H.H.H.D.H.}.",
"H.H.H.H.H.H.H.H.H.H.H.H.H.H.H.H.H.H.H.H.H.H.H.H.H.H.H.H.H.H.H.H.H.H.H.H.H.H.H.H.D.;.{ O.#.#.$.&.&.#.#.$.$.#.#.$.$.$.#.&.&.&.&.&.&.&.&.&.&.&.&.&.$.$.$.{ <.H.H.H.H.H.H.H.H.H.H.H.H.H.H.H.H.H.H.H.H.H.H.H.H.H.D.H.}.",
"H.H.H.H.H.H.H.H.H.H.H.H.H.H.H.H.H.H.H.H.H.H.H.H.H.H.H.H.H.H.H.H.H.H.H.H.H.H.H.H.f.#.$.#.#.#.$.$.&.#.$.$.$.$.$.$.$.$.#.&.&.&.&.&.&.&.&.&.&.&.&.&.$.#.$.O.b.E.H.H.H.H.H.H.H.H.H.H.H.H.H.H.H.H.H.H.H.H.H.H.H.H.D.H.}.",
"H.H.H.H.H.H.H.H.H.H.H.H.H.H.H.H.H.H.H.H.H.H.H.H.H.H.H.H.H.H.H.H.H.H.H.H.H.H.H.V.O.#.&.&.&.&.&.&.&.#.$.$.+.$.$.$.$.$.#.&.&.&.&.&.&.&.&.&.&.&.&.&.#.#.+.,.D.H.H.H.H.H.H.H.H.H.H.H.H.H.H.H.H.H.H.H.H.H.H.H.H.H.D.H.}.",
"H.H.H.H.H.H.H.H.H.H.H.H.H.H.H.H.H.H.H.H.H.H.H.H.H.H.H.H.H.H.H.H.H.H.H.H.H.H.F.%.+.$.#.#.#.$.&.&.&.#.#.$.$.#.#.#.$.$.#.#.#.#.&.&.&.&.&.&.&.$.#.#.$.+.O.b.H.H.H.H.H.H.H.H.H.H.H.H.H.H.H.H.H.H.H.H.H.H.H.H.H.H.D.H.}.",
"H.H.H.H.H.H.H.H.H.H.H.H.H.H.H.H.H.H.H.H.H.H.H.H.H.H.H.H.H.H.H.H.H.H.H.H.H.H.<.+.$.$.$.$.#.&.$.&.&.#.#.$.O.t q y $.$.#.#.#.#.&.&.&.&.&.&.&.#.$.$.$.O.x.H.H.H.H.H.H.H.H.H.H.H.H.H.H.H.H.H.H.H.H.H.H.H.H.H.H.H.D.H.}.",
"H.H.H.H.H.H.H.H.H.H.H.H.H.H.H.H.H.H.H.H.H.H.H.H.H.H.H.H.H.H.H.H.H.H.H.H.H.v.{ $.$.+.$.$.$.#.#.$.&.#.$.$.o.q i q y $.$.$.#.#.#.&.&.&.$.$.&.#.$.$.+.>.H.H.H.H.H.H.H.H.H.H.H.H.H.H.H.H.H.H.H.H.H.H.H.H.H.H.H.H.D.H.}.",
"H.H.H.H.H.H.H.H.H.H.H.H.H.H.H.H.H.H.H.H.H.H.H.H.H.H.H.H.H.H.H.H.H.H.H.H.S.%.$.$.$.+.$.#.#.$.#.&.$.#.#.$.#.u q i q r $.$.#.#.#.#.&.&.$.$.#.#.&.+.,.D.H.H.H.H.H.H.H.H.H.H.H.H.H.H.H.H.H.H.H.H.H.H.H.H.H.H.H.H.D.H.}.",
"H.H.H.H.H.H.H.H.H.H.H.H.H.H.H.H.H.H.H.H.H.H.H.H.H.H.H.H.H.H.H.H.H.H.H.H.<.{ #.#.+.&.@.w y #.+.#.#.$.#.+.$.#.u q i q y $.$.#.#.$.&.&.#.#.$.#.O.4.H.H.H.H.H.H.H.H.H.H.H.H.H.H.H.H.H.H.H.H.H.H.H.H.H.H.H.H.H.H.H.H.}.",
"H.H.H.H.H.H.H.H.H.H.H.H.H.H.H.H.H.H.H.H.H.H.H.H.H.H.H.H.H.H.H.H.H.H.H.z.+.+.$.#.$.$.t i i u #.$.#.#.#.#.#.$.#.t i i q r $.$.$.$.#.#.#.$.#.#.b.H.H.H.H.H.H.H.H.H.H.H.H.H.H.H.H.H.H.H.H.H.H.H.H.H.H.H.H.H.H.H.D.H.}.",
"H.H.H.H.H.H.H.H.H.H.H.H.H.H.H.H.H.H.H.H.H.H.H.H.H.H.H.H.H.H.H.H.H.H.S.O.$.+.&.#.#.$.y q i i t #.$.#.$.$.#.#.$.#.t q i i r $.$.$.#.#.#.+.;.S.E.H.H.H.H.H.H.H.H.H.H.H.H.H.H.H.H.H.H.H.H.H.H.H.H.H.H.H.H.H.H.H.H.H.}.",
"H.H.H.H.H.H.H.H.H.H.H.H.H.H.H.H.H.H.H.H.H.H.H.H.H.H.H.H.H.H.H.H.H.D.;.+.#.#.#.#.#.#.#.y q i i u #.$.#.#.#.#.#.$.#.u q i q y $.$.#.#.#.1.D.H.H.H.H.H.H.H.H.H.H.H.H.H.H.H.H.H.H.H.H.H.H.H.H.H.H.H.H.H.H.H.H.H.D.H.}.",
"H.H.H.H.H.H.H.H.H.H.H.H.H.H.H.H.H.H.H.H.H.H.H.H.H.H.H.H.H.H.H.H.E.d.y $.$.$.$.&.&.#.$.&.y q i i u #.#.#.#.#.#.#.$.#.u q i i y %.+.$.c.H.H.H.H.H.H.H.H.H.H.H.H.H.H.H.H.H.H.H.H.H.H.H.H.H.H.H.H.H.H.H.H.H.H.H.H.H.}.",
"H.H.H.H.H.H.H.H.H.H.H.H.H.H.H.H.H.H.H.H.H.H.H.H.H.H.H.H.H.H.H.E.g.0 i @.$.#.#.#.#.&.#.$.$.y q i q t #.$.#.#.#.#.#.$.#.t q i i r *.m.H.H.H.H.H.H.H.H.H.H.H.H.H.H.H.H.H.H.H.H.H.H.H.H.H.H.H.H.H.H.H.H.H.H.H.H.H.H.}.",
"H.H.H.H.H.H.H.H.H.H.H.H.H.H.H.H.H.H.H.H.H.H.H.H.H.H.H.H.H.H.H.D.a i i p y $.$.#.#.#.#.#.+.#.y q i q u #.$.#.#.#.#.#.$.#.u q i d.D.H.H.H.H.H.H.H.H.H.H.H.H.H.H.H.H.H.H.H.H.H.H.H.H.H.H.H.H.H.H.H.H.H.H.H.H.H.D.H.}.",
"H.H.H.H.H.H.H.H.H.H.H.H.H.H.H.H.H.H.H.H.H.H.H.H.H.H.H.H.H.H.H.f.o.e i i q @.$.+.&.#.$.#.#.$.$.y q i q r $.$.#.#.#.#.O.$.+.a f.H.H.H.H.H.H.H.H.H.H.H.H.H.H.H.H.H.H.H.H.H.H.H.H.H.H.H.H.H.H.H.H.H.H.H.H.H.H.H.D.H.}.",
"H.H.H.H.H.H.H.H.H.H.H.H.H.H.H.H.H.H.H.H.H.H.H.H.H.H.H.H.H.Q.b.+.$.+.e q i q @.$.+.#.&.&.$.#.$.#.y q q @.$.$.#.#.#.$.{ +.1.S.E.H.H.H.H.H.H.H.H.H.H.H.H.H.H.H.H.H.H.H.H.H.H.H.H.H.H.H.H.H.H.H.H.H.H.H.H.H.H.H.D.H.}.",
"H.H.H.H.H.H.H.H.H.H.H.H.H.H.H.H.H.H.H.H.H.H.H.H.H.H.H.H.H.S.%.{ +.$.#.e i i q @.#.#.#.&.&.&.#.#.#.@.@.#.$.$.$.#.&.+.$.c.H.H.H.H.H.H.H.H.H.H.H.H.H.H.H.H.H.H.H.H.H.H.H.H.H.H.H.H.H.H.H.H.H.H.H.H.H.H.H.H.H.H.D.H.}.",
"H.H.H.H.H.H.H.H.H.H.H.H.H.H.H.H.H.H.H.H.H.H.H.H.H.H.H.H.H.1.+.$.$.#.$.#.e q i i @.&.#.#.&.&.#.#.$.$.$.$.+.+.$.$.+.:.S.H.H.H.H.H.H.H.H.H.H.H.H.H.H.H.H.H.H.H.H.H.H.H.H.H.H.H.H.H.H.H.H.H.H.H.H.H.H.H.H.H.H.H.D.H.}.",
"H.H.H.H.H.H.H.H.H.H.H.H.H.H.H.H.H.H.H.H.H.H.H.H.H.H.H.E.b.O.O.&.$.#.#.%.#.e i i q O.$.#.$.&.&.#.#.#.#.+.$.$.{ $.4.D.H.H.H.H.H.H.H.H.H.H.H.H.H.H.H.H.H.H.H.H.H.H.H.H.H.H.H.H.H.H.H.H.H.H.H.H.H.H.H.H.H.H.H.H.D.H.}.",
"H.H.H.H.H.H.H.H.H.H.H.H.H.H.H.H.H.H.H.H.H.H.H.H.H.H.H.F.$.+.O.#.#.#.$.$.$.#.t i q #.$.+.$.&.$.&.&.#.#.O.$.{ *.m.H.H.H.H.H.H.H.H.H.H.H.H.H.H.H.H.H.H.H.H.H.H.H.H.H.H.H.H.H.H.H.H.H.H.H.H.H.H.H.H.H.H.H.H.H.H.D.H.}.",
"H.H.H.H.H.H.H.H.H.H.H.H.H.H.H.H.H.H.H.H.H.H.H.H.H.H.H.1.O.+.+.#.#.#.$.$.$.$.#.y o.$.#.#.$.&.#.#.$.#.+.O.+.1.D.H.H.H.H.H.H.H.H.H.H.H.H.H.H.H.H.H.H.H.H.H.H.H.H.H.H.H.H.H.H.H.H.H.H.H.H.H.H.H.H.H.H.H.H.H.H.H.D.H.}.",
"H.H.H.H.H.H.H.H.H.H.H.H.H.H.H.H.H.H.H.H.H.H.H.H.H.H.n.O.&.$.$.#.&.&.#.#.#.#.#.&.$.#.#.&.&.#.#.$.$.$.{ %.b.H.H.H.H.H.H.H.H.H.H.H.H.H.H.H.H.H.H.H.H.H.H.H.H.H.H.H.H.H.H.H.H.H.H.H.H.H.H.H.H.H.H.H.H.H.H.H.H.H.D.H.}.",
"H.H.H.H.H.H.H.H.H.H.H.H.H.H.H.H.H.H.H.H.H.H.H.H.H.S.$.#.&.#.#.#.&.&.&.$.$.&.#.#.#.&.$.$.#.#.#.$.} O.<.S.Q.H.H.H.H.H.H.H.H.H.H.H.H.H.H.H.H.H.H.H.H.H.H.H.H.H.H.H.H.H.H.H.H.H.H.H.H.H.H.H.H.H.H.H.H.H.H.H.H.H.D.H.}.",
"H.H.H.H.H.H.H.H.H.H.H.H.H.H.H.H.H.H.H.H.H.H.H.H.H.>.#.$.#.#.#.$.$.$.&.$.$.#.&.$.$.#.#.$.#.$.&.O.#.x.H.H.H.H.H.H.H.H.H.H.H.H.H.H.H.H.H.H.H.H.H.H.H.H.H.H.H.H.H.H.H.H.H.H.H.H.H.H.H.H.H.H.H.H.H.H.H.H.H.H.H.H.D.H.}.",
"H.H.H.H.H.H.H.H.H.H.H.H.H.H.H.H.H.H.H.H.H.H.H.H.x.+.#.$.$.#.#.$.$.$.#.&.&.&.&.&.$.$.&.$.#.$.+.:.S.H.H.H.H.H.H.H.H.H.H.H.H.H.H.H.H.H.H.H.H.H.H.H.H.H.H.H.H.H.H.H.H.H.H.H.H.H.H.H.H.H.H.H.H.H.H.H.H.H.H.H.H.H.D.H.}.",
"H.H.H.H.H.H.H.H.H.H.H.H.H.H.H.H.H.H.H.H.H.H.H.S.%.#.$.#.#.#.$.#.#.$.$.#.#.&.&.&.$.$.$.$.+.$.4.H.H.H.H.H.H.H.H.H.H.H.H.H.H.H.H.H.H.H.H.H.H.H.H.H.H.H.H.H.H.H.H.H.H.H.H.H.H.H.H.H.H.H.H.H.H.H.H.H.H.H.H.H.H.H.D.H.}.",
"H.H.H.H.H.H.H.H.H.H.H.H.H.H.H.H.H.H.H.H.H.H.H.:.#.&.#.#.&.#.$.$.#.O.$.$.#.#.&.&.$.$.} +.*.S.Q.H.H.H.H.H.H.H.H.H.H.H.H.H.H.H.H.H.H.H.H.H.H.H.H.H.H.H.H.H.H.H.H.H.H.H.H.H.H.H.H.H.H.H.H.H.H.H.H.H.H.H.H.H.H.H.D.H.}.",
"H.H.H.H.H.H.H.H.H.H.H.H.H.H.H.H.H.H.H.H.H.H.b.+.$.&.$.&.&.#.$.#.t e @.$.$.#.$.$.%.+.#.z.D.H.H.H.H.H.H.H.H.H.H.H.H.H.H.H.H.H.H.H.H.H.H.H.H.H.H.H.H.H.H.H.H.H.H.H.H.H.H.H.H.H.H.H.H.H.H.H.H.H.H.H.H.H.H.H.H.H.D.H.}.",
"H.H.H.H.H.H.H.H.H.H.H.H.H.H.H.H.H.H.H.H.H.H.z.+.%.#.#.&.&.#.&.r q i q @.$.$.$.$.{ %.b.H.H.H.H.H.H.H.H.H.H.H.H.H.H.H.H.H.H.H.H.H.H.H.H.H.H.H.H.H.H.H.H.H.H.H.H.H.H.H.H.H.H.H.H.H.H.H.H.H.H.H.H.H.H.H.H.H.H.H.D.H.}.",
"H.H.H.H.H.H.H.H.H.H.H.H.H.H.H.H.H.H.H.H.H.H.,.{ %.$.#.&.#.#.$.#.w q i q @.$.+.O.,.S.H.H.H.H.H.H.H.H.H.H.H.H.H.H.H.H.H.H.H.H.H.H.H.H.H.H.H.H.H.H.H.H.H.H.H.H.H.H.H.H.H.H.H.H.H.H.H.H.H.H.H.H.H.H.H.H.H.H.H.H.D.H.}.",
"H.H.H.H.H.H.H.H.H.H.H.H.H.H.H.H.H.H.H.H.H.H.1.{ $.#.#.&.&.&.#.$.#.e i i q @.%.c.H.H.H.H.H.H.H.H.H.H.H.H.H.H.H.H.H.H.H.H.H.H.H.H.H.H.H.H.H.H.H.H.H.H.H.H.H.H.H.H.H.H.H.H.H.H.H.H.H.H.H.H.H.H.H.H.H.H.H.H.H.H.D.H.}.",
"H.H.H.H.H.H.H.H.H.H.H.H.H.H.H.H.H.H.H.H.H.H.x.{ $.#.#.$.&.&.#.$.$.@.e i i a S.H.H.H.H.H.H.H.H.H.H.H.H.H.H.H.H.H.H.H.H.H.H.H.H.H.H.H.H.H.H.H.H.H.H.H.H.H.H.H.H.H.H.H.H.H.H.H.H.H.H.H.H.H.H.H.H.H.H.H.H.H.H.H.H.H.}.",
"H.H.H.H.H.H.H.H.H.H.H.H.H.H.H.H.H.H.H.H.H.H.F.%.+.$.#.$.&.&.$.$.+.$.o.p d.H.H.H.H.H.H.H.H.H.H.H.H.H.H.H.H.H.H.H.H.H.H.H.H.H.H.H.H.H.H.H.H.H.H.H.H.H.H.H.H.H.H.H.H.H.H.H.H.H.H.H.H.H.H.H.H.H.H.H.H.H.H.H.H.H.H.H.}.",
"H.H.H.H.H.H.H.H.H.H.H.H.H.H.H.H.H.H.H.H.H.H.H.v.+.$.&.$.#.#.#.$.$.{ *.m.E.H.H.H.H.H.H.H.H.H.H.H.H.H.H.H.H.H.H.H.H.H.H.H.H.H.H.H.H.H.H.H.H.H.H.H.H.H.H.H.H.H.H.H.H.H.H.H.H.H.H.H.H.H.H.H.H.H.H.H.H.H.H.H.H.H.D.H.}.",
"H.H.H.H.H.H.H.H.H.H.H.H.H.H.H.H.H.H.H.H.H.H.H.H.z.O.+.$.#.#.#.+.{ x.D.H.H.H.H.H.H.H.H.H.H.H.H.H.H.H.H.H.H.H.H.H.H.H.H.H.H.H.H.H.H.H.H.H.H.H.H.H.H.H.H.H.H.H.H.H.H.H.H.H.H.H.H.H.H.H.H.H.H.H.H.H.H.H.H.H.H.H.D.H.}.",
"H.H.H.H.H.H.H.H.H.H.H.H.H.H.H.H.H.H.H.H.H.H.H.H.H.b.:.O.+.#.%.:.m.H.H.H.H.H.H.H.H.H.H.H.H.H.H.H.H.H.H.H.H.H.H.H.H.H.H.H.H.H.H.H.H.H.H.H.H.H.H.H.H.H.H.H.H.H.H.H.H.H.H.H.H.H.H.H.H.H.H.H.H.H.H.H.H.H.H.H.H.H.D.H.}.",
"H.H.H.H.H.H.H.H.H.H.H.H.H.H.H.H.H.H.H.H.H.H.H.H.H.E.H.S.b.b.S.H.H.H.H.H.H.H.H.H.H.H.H.H.H.H.H.H.H.H.H.H.H.H.H.H.H.H.H.H.H.H.H.H.H.H.H.H.H.H.H.H.H.H.H.H.H.H.H.H.H.H.H.H.H.H.H.H.H.H.H.H.H.H.H.H.H.H.H.H.H.H.D.H.}.",
"H.H.H.H.H.H.H.H.H.H.H.H.H.H.H.H.H.H.H.H.H.H.H.H.H.H.H.E.E.E.H.H.H.H.H.H.H.H.H.H.H.H.H.H.H.H.H.H.H.H.H.H.H.H.H.H.H.H.H.H.H.H.H.H.H.H.H.H.H.H.H.H.H.H.H.H.H.H.H.H.H.H.H.H.H.H.H.H.H.H.H.H.H.H.H.H.H.H.H.H.H.H.D.H.}.",
"H.H.H.H.H.H.H.H.H.H.H.H.H.H.H.H.H.H.H.H.H.H.H.H.H.H.H.H.H.H.H.H.H.H.H.H.H.H.H.H.H.H.H.H.H.H.H.H.H.H.H.H.H.H.H.H.H.H.H.H.H.H.H.H.H.H.H.H.H.H.H.H.H.H.H.H.H.H.H.H.H.H.H.H.H.H.H.H.H.H.H.H.H.H.H.H.H.H.H.H.H.H.H.`.}.",
"M.M.M.M.M.M.M.M.M.M.M.M.M.M.M.M.M.M.M.M.M.M.M.M.M.M.M.M.M.M.M.M.M.M.M.M.M.M.M.M.M.M.M.M.M.M.M.M.M.M.M.M.M.M.M.M.M.M.M.M.M.M.M.M.M.M.M.M.M.M.M.M.M.M.M.M.M.M.M.M.M.M.M.M.M.M.M.M.M.M.M.M.M.M.M.M.M.M.M.M.M.D.M.D. X",
"[.[.[.[.[.[.[.[.[.[.[.[.[.[.[.[.[.[.[.[.[.[.[.[.[.[.[.[.[.[.[.[.[.[.[.[.[.[.[.[.[.[.[.[.[.[.[.[.[.[.[.[.[.[.[.[.[.[.[.[.[.[.[.[.[.[.[.[.[.[.[.[.[.[.[.[.[.[.[.[.[.[.[.[.[.[.[.[.[.[.[.[.[.[.[.[.[.[.[.[.[.[.[.{..X"
};
