/* XPM */
static char *xpm___1_1730106688[] = {
/* columns rows colors chars-per-pixel */
"25 25 102 2 ",
"   c #646A70",
".  c #686F73",
"X  c #6F7172",
"o  c gray44",
"O  c #727171",
"+  c #727272",
"@  c #747373",
"#  c #737475",
"$  c #7E7671",
"%  c #B57E5D",
"&  c #947A6B",
"*  c #FF873F",
"=  c #BD825F",
"-  c #A08E7D",
";  c #CB8256",
":  c #FF8840",
">  c #FE8942",
",  c #FF8942",
"<  c #FF8A42",
"1  c #FF8A43",
"2  c #FA8A46",
"3  c #FF8B44",
"4  c #FF8F47",
"5  c #F68F4F",
"6  c #FF8E48",
"7  c #FF8F49",
"8  c #FF904B",
"9  c #FA904E",
"0  c #FA914F",
"q  c #FF914C",
"w  c #FF924C",
"e  c #FF924D",
"r  c #FF924E",
"t  c #FF924F",
"y  c #FF934F",
"u  c #FF944F",
"i  c #FF9754",
"p  c #FF9655",
"a  c #FF9A58",
"s  c #FFA162",
"d  c #FFA262",
"f  c #94938A",
"g  c #9A998F",
"h  c #A1A094",
"j  c #E6B98E",
"k  c #F7C08F",
"l  c #F5C797",
"z  c #FDC591",
"x  c #FEC490",
"c  c #FEC591",
"v  c #FEC692",
"b  c #FFC692",
"n  c #FDC694",
"m  c #FEC794",
"M  c #FFCA95",
"N  c #FFCD98",
"B  c #FDCF9D",
"V  c #C8C8B3",
"C  c #EDEAC9",
"Z  c #FBEEC6",
"A  c #FCEEC6",
"S  c #FCEFC7",
"D  c #F3F0CE",
"F  c #FBF3CD",
"G  c #FCF4CD",
"H  c #F8F6D2",
"J  c #F9F6D2",
"K  c #F9F7D3",
"L  c #FCF6D0",
"P  c #FCF6D1",
"I  c #FCF7D2",
"U  c #FBF8D3",
"Y  c #FCF8D2",
"T  c #FCF9D3",
"R  c #FDF9D3",
"E  c #FEF9D3",
"W  c #FFF9D3",
"Q  c #FDFAD3",
"!  c #FBF9D4",
"~  c #FCF9D4",
"^  c #FCF9D5",
"/  c #FDFAD4",
"(  c #FCFAD5",
")  c #FDFAD5",
"_  c #FEFAD5",
"`  c #FCF9D6",
"'  c #FCF9D7",
"]  c #FEFBD6",
"[  c #FFFCD6",
"{  c #F6F9D8",
"}  c #FCF9D9",
"|  c #FCFAD8",
" . c #FCFBD9",
".. c #FCFBDA",
"X. c #FBFEDC",
"o. c #FCFFDD",
"O. c #FCFFDE",
"+. c #FCFFDF",
"@. c #FDFFDF",
"#. c #FFFFE3",
"$. c #FFFFFB",
"%. c #FFFFFC",
/* pixels */
"~ ~ ~ ~ ~ ~ ~ ~ ~ ~ ~ ~ ~ ~ ~ ~ ~ ~ ~ ~ ~ ~ ~ ~ | ",
"~ ~ ~ ~ ~ ~ ~ ~ ~ ~ ~ ~ ~ ~ ~ ~ ~ ~ ~ ~ ~ ~ ~ ~ ~ ",
"~ ~ ~ ~ ~ ~ ~ ~ ~ ~ ~ ~ ~ ~ ~ ~ ~ ~ ~ ~ ~ ~ ~ ~ | ",
"~ ~ ~ ~ ~ ~ ~ ~ ~ ~ ~ ~ ~ ~ ~ ~ ~ ~ ~ ~ ~ ~ ~ ~ | ",
"~ ~ ~ ~ ~ ~ ~ ~ ~ ~ ~ ~ ~ ~ ~ ~ ~ ~ ~ ~ ~ ~ ~ ~ | ",
"~ ~ ~ ~ ~ ~ ~ ~ ~ ~ ~ ~ ~ ~ ~ ~ ~ ~ ~ ~ ~ ~ ~ ~ ' ",
"~ ~ ~ ~ ~ ~ ~ ~ ~ ~ ~ ~ ~ ~ ~ ~ ~ ~ ~ ~ ~ ~ ~ ~ ' ",
"~ ~ Y I I I I I I I I I I I I I I Y ~ ! D ~ Y Y ' ",
"~ Y O.O.O.O.O.O.O.O.O.O.O.O.O.O.X.O.{ f + V #.U ' ",
"~ Y B c m m m c m m m m m m m m c M j X   - N F ~ ",
"~ I a * 3 1 1 1 1 1 1 1 1 1 1 1 1 1 2 & # ; 4 Z ..",
"~ I s w u t t t t t t t t t t t t t t 0 5 t p A | ",
"~ I s w 0 w t t t t t i t t t u t t t t t t a S | ",
"~ I a % $ = 1 1 1 1 : 3 1 1 1 1 1 3 1 1 1 * 4 Z ..",
"~ Y l o . @ z c x x c c c c x x c c c c x x m F | ",
"~ ~ X.g . h X.X.#.X.X.X.#.O.O.O.X.X.#.O.O.X.#.~ | ",
"~ ~ ~ U C ! Y Y I I I I I I I I I I I I I I I Y ' ",
"~ ~ ~ ~ [ Y ~ ~ ~ ~ ~ ~ ~ ~ ~ ~ ~ ~ ~ ~ ~ ~ ~ ~ ' ",
"~ ~ ~ ~ ~ ~ ~ ~ ~ ~ ~ ~ ~ ~ ~ ~ ~ ~ ~ ~ ~ ~ ~ ~ ' ",
"~ ~ ~ ~ ~ ~ ~ ~ ~ ~ ~ ~ ~ ~ ~ ~ ~ ~ ~ ~ ~ ~ ~ ~ ' ",
"~ ~ ~ ~ ~ ~ ~ ~ ~ ~ ~ ~ ~ ~ ~ ~ ~ ~ ~ ~ ~ ~ ~ ~ ' ",
"~ ~ ~ ~ ~ ~ ~ ~ ~ ~ ~ ~ ~ ~ ~ ~ ~ ~ ~ ~ ~ ~ ~ ~ ' ",
"~ Y ~ ~ ~ ~ ~ Y ~ ~ ~ ~ ~ ~ ~ ~ ~ Y ~ ~ ~ ~ ~ Y ' ",
"| ~ ~ | ~ ~ | ~ | ~ ~ | ~ ~ ~ ~ | ~ ~ | ~ ~ | ~ | ",
"%.$.$.$.$.$.$.$.$.$.$.$.$.$.$.$.%.$.$.$.$.$.$.$.%."
};
