/* XPM */
static char *_730104755[] = {
/* columns rows colors chars-per-pixel */
"25 25 97 2 ",
"   c #636B71",
".  c #6A6D71",
"X  c #6D7073",
"o  c #727070",
"O  c #737272",
"+  c #727273",
"@  c #727374",
"#  c #747374",
"$  c #83776F",
"%  c #A37D66",
"&  c #AC7D60",
"*  c #AB7F64",
"=  c #FF863F",
"-  c #9C8A79",
";  c #D48454",
":  c #FF8941",
">  c #FF8942",
",  c #F88A46",
"<  c #FF8C46",
"1  c #FF8D47",
"2  c #F78F4F",
"3  c #FD8D48",
"4  c #FF8D48",
"5  c #FF8F48",
"6  c #FF8F49",
"7  c #FF924B",
"8  c #FE914C",
"9  c #FF914D",
"0  c #FF924D",
"q  c #FC904E",
"w  c #FF924E",
"e  c #FF924F",
"r  c #FF934F",
"t  c #FF9350",
"y  c #FF9552",
"u  c #FF9755",
"i  c #FD9957",
"p  c #FF9857",
"a  c #FF9D5C",
"s  c #FF9E5E",
"d  c #8C8A84",
"f  c #A5A396",
"g  c #A7A597",
"h  c #E0B288",
"j  c #BFC0AC",
"k  c #FEC38D",
"l  c #FDC38E",
"z  c #FEC48E",
"x  c #FFC78F",
"c  c #FFC993",
"v  c #FEC996",
"b  c #F4CDA0",
"n  c #F4D1A6",
"m  c #FDD3A3",
"M  c #FDD4A3",
"N  c #FFD5A4",
"B  c #FDD6A6",
"V  c #FBEEC6",
"C  c #FCEFC6",
"Z  c #FCEFC7",
"A  c #F2EFCC",
"S  c #F3F0CE",
"D  c #FBF3CD",
"F  c #FCF4CD",
"G  c #FCF4CE",
"H  c #FCF5CF",
"J  c #F7F4D0",
"K  c #F0F4D5",
"L  c #FCF7D1",
"P  c #FCF7D2",
"I  c #FCF8D2",
"U  c #FCF9D3",
"Y  c #FDF9D3",
"T  c #FEF9D3",
"R  c #FBF8D4",
"E  c #FBF9D4",
"W  c #FCF9D4",
"Q  c #FDF9D4",
"!  c #FCF9D5",
"~  c #FCFAD5",
"^  c #FDFAD5",
"/  c #FCF9D6",
"(  c #FCF9D7",
")  c #FCFAD6",
"_  c #FCFAD7",
"`  c #FEFBD6",
"'  c #FFFCD6",
"]  c #FCFBD8",
"[  c #FAFEDB",
"{  c #FAFFDB",
"}  c #FCFFDC",
"|  c #FCFFDD",
" . c #FCFFDE",
".. c #FCFFDF",
"X. c #FEFFE0",
"o. c #FFFFE3",
"O. c #FFFFFC",
/* pixels */
"W W W W W W W W W W W W ] W W W W W W W W W W W O.",
"W W W W W W W W W W G G G G Y W W W W W W W W ] O.",
"W W W W W W W W } n i a a y v } P W W W W W Y W O.",
"W W W W W W W W g @ & 6 9 : l X.P W W W W W U R O.",
"W W W W W R ' S O . @ 2 t > z ..P W W W W W / / O.",
"W W W W W W W W f @ * 9 9 > z ..P W W W W W P ] O.",
"W W W W W W W Y { b 6 9 9 > z ..P W W W W W W W O.",
"W W W W W W W P ..N 1 9 y > z ..P W W W W W W W O.",
"W W W W W W U L { M 6 9 t > l } P W W W W W W W O.",
"W W W W W W R U } M 6 9 t > l X.P W W W W W W ] O.",
"W W W W W W R Y } M 1 9 t > z } P W W W W W Y W O.",
"W W W W W W U L } M 6 9 t > z X.P W W W W W U R O.",
"W W W W W W W U ..m 6 9 t > z ..P W W W W R / ] O.",
"W W W W W W W Y { m 6 9 t > z ..P W W W W Y P W O.",
"W W W W W W U L } M 6 9 9 > z ..P W W W W W P W O.",
"W W W W W R U Y } M 1 9 y > z ..P W W W W W / / O.",
"W W W W W W W Y } M 1 9 y > l X.L R W W W W W W O.",
"W W W W W W U U { m 1 9 9 > x } Y W W W W W W W O.",
"W W W W W W U L ..m 6 9 y , h K Y W W W W W W W O.",
"W W W W W W R U { m 6 9 9 % X d J W W W W W W ] O.",
"W W W W W W W Y ..M 1 9 2 $   o S W R W W W W W O.",
"W W W W W W R L ..N 1 7 7 ; - j W W W W W W W W O.",
"W W W W W W W Y } N t u u 6 v X.Y W W W W W W W O.",
"W W W W W W R U W G C Z Z V D R W W W W W P / ] O.",
"W W W W W ] W W W ] ] ] ] ] ] / W W W W W ] / / O."
};
