/* XPM */
static char *xpm___2_1730104035[] = {
/* columns rows colors chars-per-pixel */
"25 25 18 1 ",
"  c #3D9A6E",
". c #409B70",
"X c #48A076",
"o c #4AA077",
"O c #4AA177",
"+ c #4BA078",
"@ c #4AA178",
"# c #4BA178",
"$ c #4CA278",
"% c #4DA27A",
"& c #56A780",
"* c #58A882",
"= c #8BC3A8",
"- c #8DC4AA",
"; c #94C8AF",
": c #F3F9F7",
"> c #F4F9F7",
", c #F8FBFA",
/* pixels */
"################$$.%%$%.-",
"################$%%%$$%.-",
"################%%$$.%%.-",
"################%.$%%%%.-",
"################$$.%$$%.-",
"################$%%%$%%.-",
"################%%$$.%%.-",
"################%.$%%%%.-",
"################%$$%%%%.-",
"################%%.%$$%.-",
"##########OOO###.%%%.%%.-",
"###########O####$$%%%%%.-",
"############O###%%%..$%.-",
"###########X####%.$$%$%.-",
"################$$%.%%%.-",
"################%%%$$%%.-",
"########$$.%%$%$$.$.%%%.-",
"########%%%%.$%%%%$%%%%.-",
"########%%O%%%$%%$.%.$%.-",
"########.%OO%%$.%$%%%$%.-",
"########O%OOOO%%$$%%%$%.-",
"########$$O%%%O%.$$%%%%.-",
"XXXXXX.#OOO$.%O.%$$..$$.=",
"&&&&&*****%*%*&&%****%*$;",
"::::>>>>>>>>>>>>,,>>>>>>,"
};
