/* XPM */
static char *_330c5e3ad134b31b0acdbb4dea7d28c[] = {
/* columns rows colors chars-per-pixel */
"105 78 143 2 ",
"   c #010101",
".  c #0B0B0B",
"X  c #131313",
"o  c #1B1B1B",
"O  c #242424",
"+  c #2B2B2B",
"@  c #31302F",
"#  c #343434",
"$  c #3B3B3B",
"%  c #444444",
"&  c #4C4C4C",
"*  c #535353",
"=  c #5B5B5B",
"-  c #636363",
";  c #6C6C6C",
":  c #747474",
">  c #7C7C7C",
",  c #FEB74D",
"<  c #FFB94E",
"1  c #FFBC56",
"2  c #FFBD5A",
"3  c #FFC267",
"4  c #FFC268",
"5  c #838383",
"6  c #8C8C8C",
"7  c #949494",
"8  c #989897",
"9  c #9C9C9C",
"0  c #A4A4A4",
"q  c #ABABAB",
"w  c #B3B3B3",
"e  c #BCBCBC",
"r  c #FFD18C",
"t  c #FFD697",
"y  c #FED79B",
"u  c #FFD89D",
"i  c #FFDCA4",
"p  c #FEDEAC",
"a  c #C6C6C6",
"s  c gray78",
"d  c #C5C5C5",
"f  c #C3C3C3",
"g  c #CACACA",
"h  c #CBCBCB",
"j  c gray80",
"k  c #CDCDCD",
"l  c gray81",
"z  c #CDCDCD",
"x  c #D0D0D0",
"c  c gray82",
"v  c #D2D2D2",
"b  c LightGray",
"n  c gray83",
"m  c #D5D4D4",
"M  c #D6D5D4",
"N  c gray84",
"B  c #D4D4D4",
"V  c #D8D8D7",
"C  c #D8D8D8",
"Z  c gray86",
"A  c gainsboro",
"S  c gray87",
"D  c #DFDFDF",
"F  c gainsboro",
"G  c #FCECD5",
"H  c #FEEDD5",
"J  c #FDEED6",
"K  c #FEEED6",
"L  c #FFEED6",
"P  c #FEEED7",
"I  c #FEEFD7",
"U  c #FFEFD7",
"Y  c #FFEFD8",
"T  c #FEF1DD",
"R  c gray88",
"E  c #E2E2E2",
"W  c gray89",
"Q  c #E4E4E4",
"!  c gray90",
"~  c #E6E6E6",
"^  c #E7E7E7",
"/  c #E4E4E4",
"(  c #E4E7ED",
")  c gray91",
"_  c #E9E9E9",
"`  c #EAEAEA",
"'  c gray92",
"]  c #ECECEC",
"[  c gray93",
"{  c #EEEEEE",
"}  c #EFEFEF",
"|  c #EBEBEB",
" . c #F1EFED",
".. c #FFF3E2",
"X. c #FFF5E7",
"o. c #F3F1EF",
"O. c #FFF6E8",
"+. c #FFF6E8",
"@. c #EFF3F8",
"#. c gray94",
"$. c #F3F2F1",
"%. c gray95",
"&. c #F3F3F3",
"*. c #F4F4F4",
"=. c gray96",
"-. c #F6F6F6",
";. c gray97",
":. c #F5F4F4",
">. c #F8F7F7",
",. c #F8F8F7",
"<. c #FEFBF5",
"1. c #F1F4FA",
"2. c #F7FAFF",
"3. c #F8F8F8",
"4. c #F9F9F9",
"5. c gray98",
"6. c #FBFBFB",
"7. c #FDFCFA",
"8. c #FDFCFB",
"9. c #FEFCFA",
"0. c #FEFDFA",
"q. c #FEFDFB",
"w. c #FBFDFF",
"e. c #FBFEFF",
"r. c gray99",
"t. c #FDFDFC",
"y. c #FDFDFD",
"u. c #FEFDFC",
"i. c #FEFDFD",
"p. c #FDFEFD",
"a. c #FFFEFC",
"s. c #FEFEFD",
"d. c #FFFEFD",
"f. c #FDFDFE",
"g. c #FCFEFF",
"h. c #FCFFFF",
"j. c #FDFFFF",
"k. c #FEFEFE",
"l. c #FFFEFE",
"z. c #FFFFFE",
"x. c #FEFFFF",
"c. c white",
"v. c #FEFEFE",
/* pixels */
"2 2 2 2 2 2 2 2 2 2 2 2 2 2 2 2 2 2 2 2 2 2 2 2 2 2 2 2 2 2 2 2 2 2 2 2 2 2 2 2 2 2 2 2 2 2 2 2 2 2 2 2 2 2 2 2 2 2 2 2 2 2 2 2 2 2 2 2 2 2 2 2 2 2 2 2 2 2 2 2 2 2 2 2 2 2 2 2 2 2 2 2 2 2 2 2 2 2 2 2 2 2 2 2 O.",
"2 2 2 2 2 2 2 2 2 2 2 2 2 2 2 2 2 2 2 2 2 2 2 2 2 2 2 2 2 2 2 2 2 2 2 2 2 2 2 2 2 2 2 2 2 2 2 2 2 2 2 2 2 2 2 2 2 2 2 2 2 2 2 2 2 2 2 2 2 2 2 2 2 2 2 2 2 2 2 2 2 2 2 2 2 2 2 2 2 2 2 2 2 2 2 2 2 2 2 2 2 2 2 2 O.",
"2 2 2 2 2 2 2 2 2 2 2 2 2 2 2 2 2 2 2 2 2 2 2 2 2 2 2 2 2 2 2 2 2 2 2 2 2 2 2 2 2 2 2 2 2 2 2 2 2 2 2 2 2 2 2 2 2 2 2 2 2 2 2 2 2 2 2 2 2 2 2 2 2 2 2 2 2 2 2 2 2 2 2 2 2 2 2 2 2 2 2 2 2 2 2 2 2 2 2 2 2 2 1 2 O.",
"2 2 2 2 2 2 2 2 2 2 2 2 2 2 2 2 2 2 2 2 2 2 2 2 2 2 2 2 2 2 2 2 2 2 2 2 2 2 2 2 2 2 2 2 2 2 2 2 2 2 2 2 2 2 2 2 2 2 2 2 2 2 2 2 2 2 2 2 2 2 2 2 2 2 2 2 2 2 2 2 2 2 2 2 2 2 2 2 2 2 2 2 2 2 2 2 2 2 2 2 2 2 1 2 O.",
"2 2 2 2 2 2 2 2 2 2 2 2 2 2 2 2 2 2 2 2 2 2 2 2 2 2 2 2 2 2 2 2 2 2 2 2 2 2 2 2 2 2 2 2 2 2 2 2 2 2 2 2 2 2 2 2 2 2 2 2 2 2 2 2 2 2 2 2 2 2 2 2 2 2 2 2 2 2 2 2 2 2 2 2 2 2 2 2 2 2 2 2 2 2 2 2 2 2 2 2 2 2 1 2 O.",
"2 2 2 2 2 2 2 2 2 2 2 2 2 2 2 2 2 2 2 2 2 2 2 2 2 2 2 2 2 2 2 2 2 2 2 2 2 2 2 2 2 2 2 2 2 2 2 2 2 2 2 2 2 2 2 2 2 2 2 2 2 2 2 2 2 2 2 2 2 2 2 2 2 2 2 2 2 2 2 2 2 2 2 2 2 2 2 2 2 2 2 2 2 2 2 2 2 2 2 2 2 2 1 2 O.",
"2 2 2 2 2 2 2 2 1 r T P P P P P P P P P P P P P P P Y P P P P P P P P P P P P Y P P P P P P P P P P P P P P P P P P P P P P P P P P P P P P P P P P P Y Y Y Y P P P P Y Y Y Y Y Y Y Y Y P ..y < 2 2 2 2 2 2 1 2 O.",
"2 2 2 2 2 2 2 2 < u p.p.w.w.w.w.p.p.p.p.p.p.p.p.p.p.p.p.p.p.p.p.p.w.p.p.p.w.p.p.p.p.p.p.p.p.p.p.p.p.p.p.p.p.p.p.p.p.p.p.p.p.p.p.p.p.p.p.p.p.p.p.p.p.p.p.p.p.p.p.p.p.p.p.p.p.p.p.p.p.p.p.p.p.p < 2 2 2 2 2 2 1 2 O.",
"2 2 2 2 2 2 2 2 < y p.p.p.p.p.p.p.p.q w p.p.p.p.p.p.p.M 8 ,.p.p.p.p.p.>.p.p.p.p.p.p.p.p.p.p.p.p.p.p.p.p.p.p.p.p.p.p.p.p.p.p.p.p.p.p.p.p.p.p.p.p.p.p.p.p.p.p.p.p.p.p.p.p.p.p.p.p.p.p.p.p.8.p.p < 2 2 2 2 2 2 1 2 O.",
"2 2 2 2 2 2 2 2 < y p.M = = - ; D p.# % p.f - *.3.= j 9   } p.p.*.5 # + # > $.p.p.p.p.p.p.p.p.p.p.p.p.p.p.p.p.p.p.p.p.p.p.p.p.p.p.p.p.p.p.p.p.p.p.p.p.p.p.p.p.p.p.p.p.p.p.p.p.p.p.p.p.p.8.p.p < 2 2 2 2 2 2 1 2 O.",
"2 2 2 2 2 2 2 2 < y p.V - ; &   e p.$ & p.7   *.3.  9 q   } p.p.= . 6 w 7 X & p.p.p.p.p.p.p.p.p.p.p.p.p.p.p.p.p.p.p.p.p.p.p.p.p.p.p.p.p.p.p.p.p.p.p.p.p.p.p.p.p.p.p.p.p.p.p.p.p.p.p.p.p.8.p.p < 2 2 2 2 2 2 1 2 O.",
"2 2 2 2 2 2 2 2 < y p.p.p.p.d   e p.# % p.9   0 q   0 0   } p.D   0 p.3.p.q   c p.p.p.p.p.p.p.p.p.p.p.p.p.p.p.p.p.p.p.p.p.p.p.p.p.p.p.p.p.p.p.p.p.p.p.p.p.p.p.p.p.p.p.p.p.p.p.p.p.p.p.p.8.p.p < 2 2 2 2 2 2 1 2 O.",
"2 2 2 2 2 2 2 2 < y p.d . X X X 5 #   * p.9   + #   0 q   + q p.. : p.p.p.> . Q p.p.p.p.p.p.p.p.p.p.p.p.p.p.p.p.p.p.p.p.p.p.p.p.p.p.p.p.p.p.p.p.p.p.p.p.p.p.p.p.p.p.p.p.p.p.p.p.p.p.p.p.p.p.p < 2 2 2 2 2 2 1 2 O.",
"2 2 2 2 2 2 2 2 < y p.f   0 D D Q w O & p.9   } 3.  0 q   : d p.9   # - $   8 p.3.p.p.p.p.p.p.p.p.p.p.p.p.p.p.p.p.p.p.p.p.p.p.p.p.p.p.p.p.p.p.p.p.p.p.p.p.p.p.p.p.p.p.p.p.p.p.p.p.p.p.p.8.p.p < 2 2 2 2 2 2 1 2 O.",
"2 2 2 2 2 2 2 2 < y p.f   e 3.M d p.$ % p.9   Q }   0 q   *.p.p.p.E :   ; D p.p.p.p.p.p.p.p.p.p.p.p.p.p.p.p.p.p.p.p.p.p.p.p.p.p.p.p.p.p.p.p.p.p.p.p.p.p.p.p.p.p.p.p.p.p.p.p.p.p.p.p.p.p.8.p.p < 2 2 2 2 2 2 1 2 O.",
"2 2 2 2 2 2 2 2 < y p.f   X X . # p.$ % p.9   o o   q 0   ` p.3.*.p.j   f p.*.3.p.p.p.p.p.p.p.p.p.p.p.p.p.p.p.p.p.p.p.p.p.p.p.p.p.p.p.p.p.p.p.p.p.p.p.p.p.p.p.p.p.p.p.p.p.p.p.p.p.p.p.p.p.p.p < 2 2 2 2 2 2 1 2 O.",
"2 2 2 2 2 2 2 2 < y p.$.h j c E $.p.$ & p.` h h h d p.9   $.p.% O + o   o + O $ *.p.p.p.p.p.p.p.p.p.p.p.p.p.p.p.p.p.p.p.p.p.p.p.p.p.p.p.p.p.p.p.p.p.p.p.p.p.p.p.p.6.p.p.p.p.p.p.p.p.p.p.p.p.p < 2 2 2 2 2 2 1 2 O.",
"2 2 2 2 2 2 2 2 < u p.p.p.p.p.p.p.p.$ & p.p.p.p.p.6.p.7   } p.w q q q w q q q w 6.p.p.p.p.p.p.p.p.p.p.p.p.p.p.p.p.p.p.p.p.p.p.p.3.3.3.3.3.3.3.p.p.p.3.6.p.p.3.3.p.p.6.3.p.p.p.p.p.p.p.p.p.p.p < 2 2 2 2 2 2 1 2 O.",
"2 2 2 2 2 2 2 2 < y p.p.p.p.p.p.p.p.0 q p.p.p.p.p.6.p.c 7 3.p.p.p.p.p.p.p.p.p.p.p.p.p.p.p.p.p.p.p.p.p.p.p.p.p.p.p.p.p.p.p.p.p.p.p.p.p.p.p.p.p.p.p.p.3.3.p.w = % ; 0 ` p.3.p.p.p.p.p.p.p.8.p.p < 2 2 2 2 2 2 1 2 O.",
"2 2 2 2 2 2 2 2 < y p.p.p.p.p.p.p.p.p.p.p.p.p.p.p.p.p.p.p.p.p.p.p.p.3.3.3.3.6.6.p.p.p.p.p.p.p.p.p.p.p.p.p.p.p.p.3.3.p.p.p.p.} j q 8 6 5 5 6 0 f ` p.p.p.:           + e p.3.3.p.p.p.p.p.8.p.p < 2 2 2 2 2 2 1 2 O.",
"2 2 2 2 2 2 2 2 < y p.p.p.p.p.p.p.p.p.p.p.p.p.p.p.p.p.p.3.p.p.p.p.p.p.p.p.p.p.p.p.p.p.p.p.p.p.p.p.p.p.p.p.p.3.3.p.p.$.w : & O o # % & * * & # O O % 5 ;               o c p.3.p.p.p.p.p.8.p.p < 2 2 2 2 2 2 2 2 O.",
"2 2 2 2 2 2 2 2 < u p.p.p.p.p.p.p.p.p.p.p.p.p.p.p.p.p.p.p.p.p.p.p.p.p.p.p.p.p.p.p.p.p.p.p.p.p.p.p.p.p.p.p.p.p.p.d - + O - 6 e E *.p.p.p.p.p.*.` f 6 * X             .   - p.3.p.p.p.p.p.p.p.p < 2 2 2 2 2 2 1 2 O.",
"2 2 2 2 2 2 2 2 < u p.p.p.p.p.p.p.p.p.p.p.p.p.p.p.p.p.p.p.p.p.p.p.p.p.p.p.p.p.p.p.p.p.p.p.p.p.p.p.p.p.3.*.p.c & o = q } p.p.p.p.p.p.p.p.p.p.p.p.p.p.p.E 8 +             o } p.p.p.p.p.p.p.p.p < 2 2 2 2 2 2 1 2 O.",
"2 2 2 2 2 2 2 2 < y p.p.p.p.p.p.p.p.p.p.p.p.p.p.p.p.p.p.p.p.p.p.p.p.p.p.p.p.p.p.p.p.p.p.p.p.p.p.p.p.p.3.p.8 X - M p.p.p.p.p.p.p.p.p.p.p.p.p.p.p.p.6.3.p.p.} 8 o         X ^ p.p.p.p.p.p.8.p.p < 2 2 2 2 2 2 1 2 O.",
"2 2 2 2 2 2 2 2 < y p.8.p.p.p.p.p.p.p.p.p.p.p.p.p.p.p.p.p.p.p.p.p.p.p.p.p.p.p.p.p.p.p.p.p.p.p.p.p.3.p.p.6 X w p.p.3.6.p.p.p.p.p.p.p.p.p.p.p.p.p.p.p.6.3.3.3.p.Z &       # *.p.p.p.p.p.p.8.p.p < 2 2 2 2 2 2 2 2 O.",
"2 2 2 2 2 2 2 2 < y p.p.p.p.p.p.p.p.p.p.p.p.p.p.p.p.p.p.p.p.p.p.p.p.p.6.3.3.p.p.p.p.p.p.p.p.p.p.3.p.*.>   O E p.3.p.p.p.p.p.p.p.p.p.p.p.p.p.p.p.p.p.p.p.p.p.3.p.*.;     6 p.3.p.p.p.p.p.8.p.p < 2 2 2 2 2 2 2 2 O.",
"2 2 2 2 2 2 2 2 < y p.p.p.p.p.p.p.p.p.p.p.p.p.p.p.p.p.p.p.p.p.p.p.p.p.p.p.p.p.p.p.p.p.p.p.p.p.p.p.j %   .   % 3.p.p.p.p.p.p.p.p.p.p.p.p.p.p.p.p.p.p.p.p.p.p.p.3.3.p.>   f p.3.p.p.p.p.p.8.p.p < 2 2 2 2 2 2 1 2 O.",
"2 2 2 2 2 2 2 2 < y p.8.p.p.p.p.p.p.p.p.p.p.p.p.p.p.3.3.p.p.3.3.p.| e 9 6 0 f Q p.p.3.3.3.3.p.} 5 .           6 p.3.p.p.p.p.p.p.p.p.p.p.p.p.p.p.p.p.p.p.p.p.p.p.3.p.p.- # $.3.p.p.p.p.p.8.p.p < 2 2 2 2 2 2 1 2 O.",
"2 2 2 2 2 2 2 2 < y p.p.p.p.p.p.p.p.p.p.p.p.p.p.3.p.p.p.>.3.p.p.q O           o > Q p.*.p.*.q +               O Q p.3.p.p.p.p.p.p.p.p.p.p.p.p.p.p.p.p.p.p.p.p.p.p.p.3.3.# - p.3.p.p.p.p.8.p.p < 2 2 2 2 2 2 1 2 O.",
"2 2 2 2 2 2 2 2 < y p.p.p.p.p.p.p.p.p.p.p.p.p.3.p.Z 7 = $ % 5 5                   # M p.w %                     5 p.3.p.p.p.p.p.p.p.p.p.p.p.p.p.p.p.p.p.p.p.p.p.p.p.3.p.c X e p.3.p.p.p.8.p.p < 2 2 2 2 2 2 1 2 O.",
"2 2 2 2 2 2 2 2 < y p.p.p.p.p.p.p.p.p.p.p.p.p.p.0 o                                 # *                         # *.p.p.p.p.p.p.p.p.p.p.p.p.p.p.p.p.p.p.p.p.p.p.p.p.p.3.p.> # 3.p.3.p.p.8.p.p < 2 2 2 2 2 2 1 2 O.",
"2 2 2 2 2 2 2 2 < u p.p.p.p.p.p.p.p.p.p.p.p.p.w           . X                                                     e p.3.p.p.p.p.p.p.p.p.p.p.p.p.p.p.p.p.p.p.p.p.p.p.p.p.p.*.+ 9 p.3.p.p.8.p.p < 2 2 2 2 2 2 1 2 O.",
"2 2 2 2 2 2 2 2 < y p.p.p.p.p.p.p.p.p.p.p.3.p.&     O : 9 M 0                                                     : p.3.p.p.p.p.p.p.p.p.p.p.p.p.p.p.p.p.p.p.p.p.p.p.p.p.3.p.7 + *.p.p.p.8.p.p < 2 2 2 2 2 2 1 2 O.",
"2 2 2 2 2 2 2 2 < y p.p.p.p.p.p.p.p.p.p.p.3.5   * q ` p.p.p.e                                                     & p.p.p.p.p.p.p.p.p.p.p.p.p.p.p.p.p.p.p.p.p.p.p.p.p.p.3.p.$.O q p.6.p.8.p.p < 2 2 2 2 2 2 1 2 O.",
"2 2 2 2 2 2 2 2 < y p.p.p.p.p.p.p.p.p.p.Q $ O w 3.p.p.3.3.p.Z .                       > o                         o ` p.p.p.p.p.p.p.p.p.p.p.p.p.p.p.p.p.p.p.p.p.p.p.p.p.3.*.p.: & p.p.p.8.p.p < 2 2 2 2 2 2 1 2 O.",
"2 2 2 2 2 2 2 2 < y p.p.p.p.p.p.p.3.p.Z + & } p.3.3.p.p.p.p.p.5                     + $.*                           h p.3.p.p.p.p.p.p.p.p.p.p.p.p.p.p.p.p.3.3.p.p.p.p.p.p.*.p.h O Q p.p.8.p.p < 2 2 2 2 2 2 1 2 O.",
"2 2 2 2 2 2 2 2 < y p.p.p.p.p.p.p.p.} O - p.p.p.p.p.p.p.p.p.p.p.5 .                 0 p.0                           q p.3.p.p.p.p.p.p.p.p.p.p.p.p.p.p.p.p.p.p.p.` D Z E $.p.p.3.+ 8 p.3.8.p.p < 2 2 2 2 2 2 1 2 O.",
"2 2 2 2 2 2 2 2 < y p.p.p.p.p.p.p.p.& & p.3.3.p.p.p.p.p.p.p.p.3.p.d = O .     . . ; p.p.E X                         8 p.3.p.p.p.p.p.p.p.p.p.p.p.p.p.p.p.p.Q 9 & O o X o + - f p.: * p.3.8.p.p < 2 2 2 2 2 2 1 2 O.",
"2 2 2 2 2 2 2 2 < y p.p.p.p.p.3.p.8 O ` p.p.p.p.p.p.p.p.p.p.p.p.p.p.p.` M e w j E 3.p.p.*.#                         6 p.6.p.p.p.p.p.p.p.p.p.p.p.p.p.p.3.8 o                   : q # *.p.6.p.p < 2 2 2 2 2 2 1 2 O.",
"2 2 2 2 2 2 2 2 < y p.p.p.p.p.p.} + 0 p.3.p.p.p.p.p.p.p.p.p.p.p.p.3.3.p.p.p.p.p.p.p.3.3.p.=                         5 p.6.p.p.p.p.p.p.p.p.p.p.p.p.p.*.-                         + o M p.6.p.p < 2 2 2 2 2 2 1 2 O.",
"2 2 2 2 2 2 2 2 < y p.p.p.p.3.p.6 + 3.p.p.p.p.p.p.p.p.p.p.p.p.p.p.p.p.p.p.p.p.p.p.p.p.*.p.>                         5 p.3.p.p.p.p.p.p.p.p.p.p.p.3.p.:                               9 p.,.p.p < 2 2 2 2 2 2 1 2 O.",
"2 2 2 2 2 2 2 2 < y p.8.p.p.p.p.$ 7 p.3.p.p.3.p.p.p.3.p.p.p.p.p.p.p.p.p.p.p.p.p.p.p.p.3.p.8                         5 p.3.p.p.p.p.p.p.p.p.p.p.3.p.d                                 : p.,.p.p < 2 2 2 2 2 2 1 2 O.",
"2 2 2 2 2 2 2 2 < y p.p.p.p.p.M X c p.p.p.p.p.p.p.p.p.p.p.p.p.p.p.p.p.p.p.p.p.p.p.p.p.3.p.0                         5 p.3.p.p.p.p.p.p.p.p.p.p.3.p.5                                 * p.6.p.p < 2 2 2 2 2 2 1 2 O.",
"2 2 2 2 2 2 2 2 < u p.p.p.3.p.7 $ p.p.p.p.3.9 = * ; e p.p.3.3.p.p.p.p.p.p.p.p.p.p.p.p.3.p.w                         6 p.p.p.p.p.p.p.p.p.p.p.p.p.3.%                                 o ` p.p.p < 2 2 2 2 2 2 1 2 O.",
"2 2 2 2 2 2 2 2 < u p.p.p.3.p.; ; p.p.p.3.=           = D p.*.p.p.p.p.p.p.p.p.p.p.p.p.6.p.f                         9 p.6.p.p.p.p.p.p.p.p.p.p.p.D .                                   w p.p.p < 2 2 2 2 2 2 2 2 O.",
"2 2 2 2 2 2 2 2 < u p.p.p.p.p.& > p.3.p.8               O j p.3.p.p.p.p.p.p.p.p.p.p.p.6.p.d                         q p.p.p.p.p.p.p.p.p.p.p.p.p.e                                     5 p.p.p < 2 2 2 2 2 2 1 2 O.",
"2 2 2 2 2 2 2 2 < y p.p.p.p.p.$ 8 p.3.` O                 O j p.*.p.p.p.p.p.p.p.p.p.p.6.p.d                         d p.p.p.p.p.p.p.p.p.p.p.3.p.8                                     ; p.w.p < 2 2 2 2 2 2 1 2 O.",
"2 2 2 2 2 2 2 2 < y p.6.p.p.p.# 0 p.p.9                     # } p.3.p.p.p.p.p.p.p.p.p.6.p.e                       X E p.p.p.p.p.p.p.p.p.p.p.3.p.>                                     * p.p.p < 2 2 2 2 2 2 1 2 O.",
"2 2 2 2 2 2 2 2 < u p.p.$.M j + q p.p.*                       > p.3.p.p.p.p.p.p.p.p.p.3.p.e                       + *.p.p.p.p.p.p.p.p.p.p.p.p.p.=                                     $ *.p.p < 2 2 2 2 2 2 2 2 O.",
"2 2 2 2 2 2 2 2 < y p.f # . .   9 p.} +                       o D p.p.p.p.p.p.p.p.p.p.3.p.q                       * p.p.p.p.p.p.p.p.p.p.p.p.p.p.%                                     + *.p.p < 2 2 2 2 2 2 2 2 O.",
"2 2 2 2 2 2 2 2 < u 1.@         & p.Q o                         6 p.p.p.p.p.p.p.p.p.p.3.p.0                       > p.*.p.p.p.p.p.p.p.p.p.p.p.3.$                                     O o.p.p < 2 2 2 2 2 2 1 2 O.",
"2 2 2 2 2 2 2 2 , i ( o         O *.` o                         = p.p.p.p.p.p.p.p.p.p.3.p.7                       ; $.p.p.p.p.3.p.p.p.p.p.p.p.3.#                                     O  .p.p < 2 2 2 2 2 2 1 2 O.",
"2 2 2 2 2 2 2 2 < u @.O         % p.} O                         % p.p.p.p.p.p.p.p.p.p.3.p.>                         + 8 j D 3.p.p.p.p.p.p.p.p.3.$                                     O $.p.p < 2 2 2 2 2 2 1 2 O.",
"2 2 2 2 2 2 2 2 < y p.=         9 p.p.&                         = p.p.p.p.p.p.p.p.p.p.6.p.-                             . . $ 5 E p.3.p.p.p.p.p.&                                     # *.p.p < 2 2 2 2 2 2 1 2 O.",
"2 2 2 2 2 2 2 2 < y p.j X     - *.*.p.q                         6 p.p.p.p.p.p.p.p.p.p.p.p.&                                     O q p.p.p.p.p.p.;                                     % 3.p.p < 2 2 2 2 2 2 1 2 O.",
"2 2 2 2 2 2 2 2 < u 2.p.; + q $.3.3.3.3.&                     O E p.p.p.p.p.p.p.p.p.p.p.3.#                                         7 p.3.p.3.p.6                                     = p.p.p < 2 2 2 2 2 2 1 2 O.",
"2 2 2 2 2 2 2 2 < y w.p.8 % p.p.p.p.p.p.Q &                   q p.3.p.p.p.p.p.p.p.p.p.p.} O                                           w p.3.3.p.q                                     : p.p.p < 2 2 2 2 2 2 1 2 O.",
"2 2 2 2 2 2 2 2 < y w.p.M o j p.p.p.p.p.p.*.e - o .     . # w p.*.p.p.p.p.p.p.p.p.p.p.p.E X                                           # $.p.3.p.c .                                   5 p.w.p < 2 2 2 2 2 2 1 2 O.",
"2 2 2 2 2 2 2 2 < y p.3.p.* - p.*.p.p.p.3.3.p.p.` h w w j *.p.3.3.p.p.p.p.p.p.p.p.p.3.p.j                                               w p.3.p.*.#                                   0 p.w.p < 2 2 2 2 2 2 1 2 O.",
"2 2 2 2 2 2 2 2 < y p.3.p.e o Z p.3.p.p.p.p.3.p.p.p.p.p.p.p.p.p.p.p.p.p.p.p.p.p.p.p.3.p.0                                               5 p.3.p.p.5                                 . c p.p.p < 2 2 2 2 2 2 1 2 O.",
"2 2 2 2 2 2 2 2 < y p.p.3.p.* * p.3.p.p.p.p.p.p.p.p.p.p.p.p.p.p.p.p.p.p.p.p.p.p.p.p.3.p.5                                               : p.*.j 7 #                                 O $.p.p.p < 2 2 2 2 2 2 1 2 O.",
"2 2 2 2 2 2 2 2 < y p.p.6.p.D o > p.p.3.3.p.p.p.p.p.p.p.p.p.p.p.p.p.p.p.p.p.p.p.p.p.p.p.-                                               = 8 $ .                                     * p.6.p.p < 2 2 2 2 2 2 1 2 O.",
"2 2 2 2 2 2 2 2 < y p.p.p.*.p.e X = Z p.p.p.p.3.p.p.p.p.p.p.p.p.p.p.p.p.p.p.p.p.p.p.p.p.$                                                                                           > p.,.p.p < 2 2 2 2 2 2 1 2 O.",
"2 2 2 2 2 2 2 2 < y p.p.p.3.3.p.6 o X - w $.p.p.p.p.p.p.p.p.p.p.p.p.p.p.p.p.p.p.p.p.p.*.O                                             o # X       .                                 0 p.,.p.p < 2 2 2 2 2 2 1 2 O.",
"2 2 2 2 2 2 2 2 < y p.p.p.p.p.p.*.j 6 $ X O = > q c ` $.3.p.p.p.p.p.p.p.p.3.$.` c w 6 - .                                             - 5 : - - ; > $                             # c p.6.p.p < 2 2 2 2 2 2 1 2 O.",
"2 2 2 2 2 2 2 2 < y p.p.p.p.p.3.3.p.p.3.D q > * # o O # $ & * * * * & & % # + o X X o # = - = = * = * = & X                       X = 5 > 5 5 5 5 5 : $ X     . o O # $ & - 5 0 h } 3.3.3.p.p < 2 2 2 2 2 2 1 2 O.",
"2 2 2 2 2 2 2 2 < y p.8.p.p.p.p.3.3.3.p.p.p.p.p.*.E d q 9 7 6 5 : : ; - - = - ; : 5 6 6 5 5 5 5 5 5 5 5 5 ; % X                 # ; 5 > > > 5 5 6 5 6 7 8 9 0 w e h Z Q *.p.p.p.p.p.3.p.8.p.p < 2 2 2 2 2 2 1 2 O.",
"2 2 2 2 2 2 2 2 < y p.p.p.p.p.p.p.p.p.p.p.p.p.p.p.p.p.p.p.p.p.p.p.p.p.p.p.p.*.*.} Q Q D D Z M M c c j j j j c d q 7 : = = > 9 e M M M Z Z D E Q ^ } $.*.3.p.p.p.p.p.p.p.p.p.p.p.p.p.p.p.8.p.p < 2 2 2 2 2 2 1 2 O.",
"2 2 2 2 2 2 2 2 < y p.p.p.p.p.p.p.p.p.p.p.p.p.p.p.p.p.p.3.3.3.3.3.3.p.3.3.p.p.p.p.p.p.p.p.p.p.p.p.p.p.p.p.p.p.p.p.p.p.p.p.p.p.p.p.p.p.p.p.p.p.p.p.p.p.p.3.p.p.3.3.3.p.p.p.p.p.p.p.p.p.p.8.p.p < 2 2 2 2 2 2 1 2 O.",
"2 2 2 2 2 2 2 2 < u p.p.p.p.p.p.p.p.p.p.p.p.p.p.p.p.p.p.p.p.p.p.p.p.p.p.p.p.p.p.p.p.p.p.p.p.p.p.p.p.p.p.p.p.p.p.p.6.3.p.p.3.3.p.p.p.p.p.p.p.p.p.p.p.p.p.p.p.p.p.p.p.p.p.p.p.p.p.p.p.p.p.8.p.p < 2 2 2 2 2 2 1 2 O.",
"2 2 2 2 2 2 2 2 < u p.p.p.p.p.p.p.p.p.p.p.p.p.p.p.p.p.p.p.p.p.p.p.p.p.p.p.p.p.p.p.p.p.p.p.p.p.p.p.p.p.p.p.p.p.p.p.p.p.p.p.p.p.p.p.p.p.p.p.p.p.p.p.p.p.p.p.p.p.p.p.p.p.p.p.p.p.p.p.p.p.p.p.p.p < 2 2 2 2 2 2 1 2 O.",
"2 2 2 2 2 2 2 2 < y p.<.<.<.<.<.<.<.<.<.<.<.<.<.<.<.<.<.<.<.<.<.<.<.<.<.<.<.<.<.<.<.<.<.<.<.<.<.<.<.<.<.<.<.<.<.<.<.<.<.<.<.<.<.<.<.<.<.<.<.<.<.<.<.<.<.<.<.<.<.<.<.<.<.<.<.<.<.<.<.<.<.<.p.i < 2 2 2 2 2 2 1 2 O.",
"2 2 2 2 2 2 2 2 2 2 4 3 3 3 3 3 3 3 3 3 3 3 3 3 3 3 3 3 3 3 3 3 3 3 3 3 3 3 3 3 3 3 3 3 3 3 3 3 3 3 3 3 3 3 3 3 3 3 3 3 3 3 3 3 3 3 3 3 3 3 3 3 3 3 3 3 3 3 3 3 3 3 3 3 3 3 3 3 3 3 3 3 3 4 3 2 2 2 2 2 2 2 1 2 O.",
"2 2 2 2 2 2 2 2 2 2 1 1 1 1 1 1 1 1 1 1 1 1 1 1 1 1 1 1 1 1 1 1 1 1 1 1 1 1 1 1 1 1 1 1 1 1 1 1 1 1 1 1 1 1 1 1 1 1 1 1 1 1 1 1 1 1 1 1 1 1 1 1 1 1 1 1 1 1 1 1 1 1 1 1 1 1 1 1 1 1 1 1 1 1 2 2 2 2 2 2 2 2 1 2 O.",
"2 2 2 2 2 2 2 2 2 2 2 2 2 2 2 2 2 2 2 2 2 2 2 2 2 2 2 2 2 2 2 2 2 2 2 2 2 2 2 2 2 2 2 2 2 2 2 2 2 2 2 2 2 2 2 2 2 2 2 2 2 2 2 2 2 2 2 2 2 2 2 2 2 2 2 2 2 2 2 2 2 2 2 2 2 2 2 2 2 2 2 2 2 2 2 2 2 2 2 2 2 2 1 2 O.",
"2 2 2 2 2 2 2 2 2 2 2 2 2 2 2 2 2 2 2 2 2 2 2 2 2 2 2 2 2 2 2 2 2 2 2 2 2 2 2 2 2 2 2 2 2 2 2 2 2 2 2 2 2 2 2 2 2 2 2 2 2 2 2 2 2 2 2 2 2 2 2 2 2 2 2 2 2 2 2 2 2 2 2 2 2 2 2 2 2 2 2 2 2 2 2 2 2 2 2 2 2 2 2 3 O.",
"< < < < < < < < < < < < < < < < < < < < < < < < < < < < < < < < < < < < < < < < < < < < < < < < < < < < < < < < < < < < < < < < < < < < < < < < < < < < < < < < < < < < < < < < < < < < < < < < < < < < < 1 < 1 X.",
"t t t t t t t t t t t t t t t t t t t t t t t t t t t t t t t t t t t t t t t t t t t t t t t t t t t t t t t t t t t t t t t t t t t t t t t t t t t t t t t t t t t t t t t t t t t t t t t t t t t t t t t y <."
};
