/* XPM */
static char *e5a32d022c58482d890666a194d59fcc[] = {
/* columns rows colors chars-per-pixel */
"105 78 147 2 ",
"   c #010101",
".  c #0C0C0C",
"X  c #131313",
"o  c #1B1B1B",
"O  c #242424",
"+  c #2C2C2C",
"@  c #31302F",
"#  c #343434",
"$  c #3B3B3B",
"%  c #444444",
"&  c #4C4C4C",
"*  c #535353",
"=  c #5B5B5B",
"-  c #636363",
";  c #6C6C6C",
":  c #747474",
">  c #7C7C7C",
",  c #FEB74D",
"<  c #FFB94E",
"1  c #FFBC56",
"2  c #FFBD5A",
"3  c #FFC267",
"4  c #FFC268",
"5  c #838383",
"6  c #8C8C8C",
"7  c #949494",
"8  c #989696",
"9  c #9B9B9B",
"0  c #A3A3A3",
"q  c #ACACAC",
"w  c #B3B3B3",
"e  c #BBBBBB",
"r  c #FFD18C",
"t  c #FFD697",
"y  c #FED79C",
"u  c #FFD89D",
"i  c #FFDCA4",
"p  c #FEDEAC",
"a  c #C4C4C4",
"s  c #CBCBCB",
"d  c #CACACA",
"f  c gray79",
"g  c gray80",
"h  c #CDCDCC",
"j  c #CDCDCD",
"k  c #CECECE",
"l  c #CDCDCD",
"z  c #D0D0D0",
"x  c gray82",
"c  c #D2D2D2",
"v  c #D3D3D2",
"b  c LightGray",
"n  c #D4D4D3",
"m  c gray83",
"M  c #D5D5D5",
"N  c #D6D6D5",
"B  c gray84",
"V  c #D7D7D7",
"C  c #D4D4D4",
"Z  c #D8D8D8",
"A  c #DADADA",
"S  c gray86",
"D  c gainsboro",
"F  c #DDDDDD",
"G  c gray87",
"H  c #DFDFDE",
"J  c #DFDFDF",
"K  c #DCDCDC",
"L  c #FAEBD3",
"P  c #FBEBD4",
"I  c #FEEDD5",
"U  c #FDEDD6",
"Y  c #FDEED6",
"T  c #FEEED6",
"R  c #FFEED6",
"E  c #FEEED7",
"W  c #FEEFD7",
"Q  c #FFEFD7",
"!  c #FFEFD8",
"~  c #FEF1DD",
"^  c gray88",
"/  c #E2E1E1",
"(  c gray89",
")  c #E6E6E6",
"_  c #E7E7E7",
"`  c #E4E4E4",
"'  c #E4E7ED",
"]  c gray91",
"[  c #E9E9E9",
"{  c #EAEAEA",
"}  c #ECECEC",
"|  c #EDECEC",
" . c gray93",
".. c #EEEEEE",
"X. c #EFEFEF",
"o. c #ECECEC",
"O. c #F0EFEE",
"+. c #F1EFED",
"@. c #FFF3E2",
"#. c #FFF5E7",
"$. c #F3F1EF",
"%. c #FFF6E8",
"&. c #FFF6E8",
"*. c #EFF3F8",
"=. c gray94",
"-. c #F1F1F1",
";. c #F2F1F0",
":. c gray95",
">. c #F4F4F4",
",. c gray96",
"<. c #F6F6F6",
"1. c gray97",
"2. c #F5F5F4",
"3. c #FEFBF5",
"4. c #F1F4FA",
"5. c #F7FAFF",
"6. c #F8F8F8",
"7. c #F9F9F8",
"8. c #F9F9F9",
"9. c #FAFAF9",
"0. c #FBFBF9",
"q. c gray98",
"w. c #FBFBFA",
"e. c #FBFBFB",
"r. c #FDFCFA",
"t. c #FEFCFA",
"y. c #FEFDFA",
"u. c #FEFDFB",
"i. c #FBFEFF",
"p. c gray99",
"a. c #FDFCFC",
"s. c #FDFDFC",
"d. c #FDFDFD",
"f. c #FEFDFC",
"g. c #FFFEFC",
"h. c #FEFEFD",
"j. c #FFFEFD",
"k. c #FFFFFD",
"l. c #FCFEFF",
"z. c #FCFFFF",
"x. c #FDFFFF",
"c. c #FEFEFE",
"v. c #FFFFFE",
"b. c #FFFEFF",
"n. c #FEFFFF",
"m. c white",
"M. c #FEFEFE",
/* pixels */
"2 2 2 2 2 2 2 2 2 2 2 2 2 2 2 2 2 2 2 2 2 2 2 2 2 2 2 2 2 2 2 2 2 2 2 2 2 2 2 2 2 2 2 2 2 2 2 2 2 2 2 2 2 2 2 2 2 2 2 2 2 2 2 2 2 2 2 2 2 2 2 2 2 2 2 2 2 2 2 2 2 2 2 2 2 2 2 2 2 2 2 2 2 2 2 2 2 2 2 2 2 2 2 2 %.",
"2 2 2 2 2 2 2 2 2 2 2 2 2 2 2 2 2 2 2 2 2 2 2 2 2 2 2 2 2 2 2 2 2 2 2 2 2 2 2 2 2 2 2 2 2 2 2 2 2 2 2 2 2 2 2 2 2 2 2 2 2 2 2 2 2 2 2 2 2 2 2 2 2 2 2 2 2 2 2 2 2 2 2 2 2 2 2 2 2 2 2 2 2 2 2 2 2 2 2 2 2 2 2 2 %.",
"2 2 2 2 2 2 2 2 2 2 2 2 2 2 2 2 2 2 2 2 2 2 2 2 2 2 2 2 2 2 2 2 2 2 2 2 2 2 2 2 2 2 2 2 2 2 2 2 2 2 2 2 2 2 2 2 2 2 2 2 2 2 2 2 2 2 2 2 2 2 2 2 2 2 2 2 2 2 2 2 2 2 2 2 2 2 2 2 2 2 2 2 2 2 2 2 2 2 2 2 2 2 1 2 %.",
"2 2 2 2 2 2 2 2 2 2 2 2 2 2 2 2 2 2 2 2 2 2 2 2 2 2 2 2 2 2 2 2 2 2 2 2 2 2 2 2 2 2 2 2 2 2 2 2 2 2 2 2 2 2 2 2 2 2 2 2 2 2 2 2 2 2 2 2 2 2 2 2 2 2 2 2 2 2 2 2 2 2 2 2 2 2 2 2 2 2 2 2 2 2 2 2 2 2 2 2 2 2 1 2 %.",
"2 2 2 2 2 2 2 2 2 2 2 2 2 2 2 2 2 2 2 2 2 2 2 2 2 2 2 2 2 2 2 2 2 2 2 2 2 2 2 2 2 2 2 2 2 2 2 2 2 2 2 2 2 2 2 2 2 2 2 2 2 2 2 2 2 2 2 2 1 1 1 1 2 2 2 2 2 2 2 2 2 2 2 2 2 2 2 2 2 2 2 2 2 2 2 2 2 2 2 2 2 2 1 2 %.",
"2 2 2 2 2 2 2 2 2 2 2 2 2 2 2 2 2 2 2 2 2 2 2 2 2 2 2 2 2 2 2 2 2 2 2 2 2 2 2 2 2 2 2 2 2 2 2 2 2 2 2 2 2 2 2 2 2 2 2 2 2 2 2 2 2 2 2 2 2 2 2 2 2 2 2 2 2 2 2 2 2 2 2 2 2 2 2 2 2 2 2 2 2 2 2 2 2 2 2 2 2 2 1 2 %.",
"2 2 2 2 2 2 2 2 1 r ~ T T T T T T T T T T T T T T T T ! T P T T T T T T T T L T T T T T T T T T T T T T T T T T T T T T T T T T T T T T T T T T T T T ! ! ! ! T T T T ! ! ! ! ! ! ! ! ! T @.y , 2 2 2 2 2 2 1 2 %.",
"2 2 2 2 2 2 2 2 , u m.m.m.m.m.m.m.m.m.m.m.m.m.m.m.m.m.m.m.m.m.m.i.m.m.m.m.m.m.m.m.m.m.i.m.m.m.m.m.m.m.m.m.m.m.m.m.m.m.m.m.m.m.m.m.m.m.m.m.m.m.m.m.m.m.m.m.m.m.m.m.m.m.m.m.m.m.m.m.m.m.m.m.m.p , 2 2 2 2 2 2 1 2 %.",
"2 2 2 2 2 2 2 2 , y m.m.w.N v n n n N / m.m.m.m.m.m.m.m.h 7 w.m.m.m.m.m.m.X.8 G m.m.m.m.m.w.w.m.m.r.m.m.m.m.m.m.m.m.m.m.m.m.m.m.m.m.m.m.m.m.m.m.m.m.m.m.m.m.m.m.m.m.m.m.m.m.m.m.m.m.m.m.r.m.p , 2 2 2 2 2 2 1 2 %.",
"2 2 2 2 2 2 2 2 , y m.m.X.+ O O O O . $ m.m.m.q % > X.m.5   w.{ - h m.5 9 S   q m.w.m.w % + + * v m.m.m.m.m.m.m.m.m.m.m.m.m.m.m.m.m.m.m.m.m.m.m.m.m.m.m.m.m.m.m.m.m.m.m.m.m.m.m.m.m.m.m.r.m.p , 2 2 2 2 2 2 1 2 %.",
"2 2 2 2 2 2 2 2 , y m.m.w.q 0 9 9 0 # O w.m.w   & X * m.6   m.S   q m.# * G   w m.m.q   - q q % X v m.w.m.m.m.m.m.m.m.m.m.m.m.m.m.m.m.m.m.m.m.m.m.m.m.m.m.m.m.m.m.m.m.m.m.m.m.m.m.m.m.m.r.m.p , 2 2 2 2 2 2 1 2 %.",
"2 2 2 2 2 2 2 2 , y m.m.X.X + * & & % ; m.m.% % m.q   ;.6   m.S   : e o - /   w m.m.% % m.m.m.m.. : m.w.m.m.m.m.m.m.m.m.m.m.m.m.m.m.m.m.m.m.m.m.m.m.m.m.m.m.m.m.m.m.m.m.m.m.m.m.m.m.m.m.r.m.p , 2 2 2 2 2 2 1 2 %.",
"2 2 2 2 2 2 2 2 , y m.m.X.  % 9 6 6 6 7 ;.m.o : m.N   h 7   m.S   o #   - G   o > m.= o X.m.m.v   7 m.w.m.m.m.m.m.m.m.m.m.m.m.m.m.m.m.m.m.m.m.m.m.m.m.m.m.m.m.m.m.m.m.m.m.m.m.m.m.m.m.m.r.m.p , 2 2 2 2 2 2 1 2 %.",
"2 2 2 2 2 2 2 2 , u m.m.<.- * * * * * = <.m.O ; m.d   S 7   m.S   q m.# = G   * q m.G + X = * . & <.m.m.m.m.m.m.m.m.m.m.m.m.m.m.m.m.m.m.m.m.m.m.m.m.m.m.m.m.m.m.m.m.m.m.m.m.m.m.m.m.m.m.r.m.p , 2 2 2 2 2 2 1 2 %.",
"2 2 2 2 2 2 2 2 , y m.;.; - ; ; > ; ; - 5 m.; X { ; X m.6   m.S   0 m.+ = G   w m.w.m.<.q . + a w.m.m.m.m.m.m.m.m.m.m.m.m.m.m.m.m.m.m.m.m.m.m.m.m.m.m.m.m.m.m.m.m.m.m.m.m.m.m.m.m.m.m.m.r.m.p , 2 2 2 2 2 2 1 2 %.",
"2 2 2 2 2 2 2 2 , y m.O.= * = #   & = * : m.) +     0 m.5   m.S . X O   ; G   q m.w.<.w.m.+ - m.<.<.m.m.m.m.m.m.m.m.m.m.m.m.m.m.m.m.m.m.m.m.m.m.m.m.m.m.m.m.m.m.m.m.m.m.m.m.m.m.m.m.m.m.r.m.p , 2 2 2 2 2 2 1 2 %.",
"2 2 2 2 2 2 2 2 , u m.m.m.m.m.q . ) m.m.m.m.m.;.w S m.m.6   w.w.h d d f { N   q m.6 o + +   . + + O w m.m.m.m.m.m.m.m.m.m.m.m.m.m.m.m.m.m.m.m.m.m.m.m.m.m.m.m.m.m.w.m.m.m.m.m.m.m.m.m.m.m.m.p , 2 2 2 2 2 2 1 2 %.",
"2 2 2 2 2 2 2 2 , u m.m.m.w.m.0   K m.w.m.m.m.m.m.m.w.m.5   <.m.m.m.m.m.m.v   q m.h 0 q q w q q q 0 G m.m.m.m.m.m.m.m.m.m.m.m.m.w.w.w.w.w.w.w.m.m.m.w.w.m.m.w.w.m.m.w.w.m.m.m.m.m.m.m.m.m.m.p , 2 2 2 2 2 2 1 2 %.",
"2 2 2 2 2 2 2 2 , y m.m.m.m.m.N 6 ;.m.m.m.m.m.m.m.m.m.m.d 6 w.m.m.m.m.m.m.X.7 G m.m.m.m.m.m.m.m.m.m.m.m.m.m.m.m.m.m.m.m.m.m.m.m.m.m.m.m.m.m.m.m.m.m.w.w.m.w = % - 0 { m.w.m.m.m.m.m.m.m.r.m.p , 2 2 2 2 2 2 1 2 %.",
"2 2 2 2 2 2 2 2 , y m.m.m.m.m.m.m.m.m.m.m.m.m.m.m.m.m.m.m.m.m.m.m.m.m.m.m.m.m.m.m.m.w.w.w.w.w.w.w.w.m.m.m.m.m.m.w.w.m.m.m.m.X.h q 7 6 5 5 6 0 a { m.m.m.:           + e m.w.w.m.m.m.m.m.r.m.p , 2 2 2 2 2 2 1 2 %.",
"2 2 2 2 2 2 2 2 , y m.m.m.m.m.m.w.m.m.m.m.m.m.m.m.m.m.m.m.w.m.m.m.m.m.m.m.m.w.m.m.m.m.m.m.m.m.m.m.m.m.m.m.m.w.w.m.m.;.w : & O o + % & * * % # O O % 5 ;               o v m.w.m.m.m.m.m.r.m.p , 2 2 2 2 2 2 2 2 %.",
"2 2 2 2 2 2 2 2 , u m.m.m.m.m.m.m.m.m.m.m.m.m.m.m.m.m.m.m.m.m.m.m.m.m.m.m.m.m.m.m.m.m.m.m.m.m.m.m.m.m.m.m.m.m.m.f - + O = 6 e / <.m.m.m.m.m.<.) a 6 * X             .   - m.w.m.m.m.m.m.m.m.p , 2 2 2 2 2 2 1 2 %.",
"2 2 2 2 2 2 2 2 , u m.m.m.m.m.m.m.m.m.m.m.m.m.m.m.m.m.m.m.m.m.m.m.m.m.m.m.m.m.m.m.m.m.m.m.m.m.m.m.m.m.w.<.m.v & o = q X.m.m.m.m.m.m.m.m.m.m.m.m.m.m.m./ 7 +             o X.m.m.m.m.m.m.m.m.p , 2 2 2 2 2 2 1 2 %.",
"2 2 2 2 2 2 2 2 , y m.m.m.m.m.m.m.m.m.m.m.m.m.m.m.m.m.m.m.m.m.m.m.m.m.m.m.m.m.m.m.m.m.m.m.m.m.m.m.m.m.w.m.7 X - N m.m.m.m.m.m.m.m.m.m.m.m.m.m.m.m.w.w.m.m.X.7 o         . ) m.m.m.m.m.m.r.m.p , 2 2 2 2 2 2 1 2 %.",
"2 2 2 2 2 2 2 2 , y m.r.m.m.m.m.m.m.m.m.m.m.m.m.m.m.m.m.m.m.m.m.m.m.m.m.m.m.m.m.m.m.m.m.m.m.m.m.m.w.m.m.6 X w m.m.w.w.m.m.m.m.m.m.m.m.m.m.m.m.m.m.m.w.w.<.w.m.N &       # <.m.m.m.m.m.m.e.m.p , 2 2 2 2 2 2 2 2 %.",
"2 2 2 2 2 2 2 2 , y m.m.m.m.m.m.m.m.m.m.m.m.m.m.m.m.m.m.m.m.m.m.m.m.m.w.w.w.m.m.m.m.m.m.m.m.m.m.w.m.<.>   O / m.w.m.m.m.m.m.m.m.m.m.m.m.m.m.m.m.m.m.m.m.m.m.w.m.<.;     6 m.w.m.m.m.m.m.r.m.p , 2 2 2 2 2 2 2 2 %.",
"2 2 2 2 2 2 2 2 , y m.m.m.m.m.m.m.m.m.m.m.m.m.m.m.m.m.m.m.m.m.m.m.m.m.m.m.m.m.m.m.m.m.m.m.m.p.m.m.h %   .   % w.m.m.m.m.m.m.m.m.m.m.m.m.m.m.m.m.m.m.m.m.m.m.m.<.w.m.>   a m.w.m.m.m.m.m.r.m.p , 2 2 2 2 2 2 1 2 %.",
"2 2 2 2 2 2 2 2 , y m.r.m.m.m.m.m.m.m.m.m.m.m.m.m.w.w.w.m.m.w.w.m.{ e 9 6 0 a ) m.m.w.w.w.w.m.X.5 .           6 m.w.w.m.m.m.m.m.m.m.m.m.m.m.m.m.m.m.m.m.m.m.m.w.w.m.m.- # ;.w.m.m.m.m.m.r.m.p , 2 2 2 2 2 2 1 2 %.",
"2 2 2 2 2 2 2 2 , y m.m.m.m.m.m.m.m.m.m.m.m.m.w.w.m.m.m.<.w.m.m.q O           o > ) m.<.m.<.q +               O ) m.w.m.m.m.m.m.m.m.m.m.m.m.m.m.m.m.m.m.m.m.m.m.m.i.w.w.# - m.w.m.m.m.m.r.m.p , 2 2 2 2 2 2 1 2 %.",
"2 2 2 2 2 2 2 2 , y m.m.m.m.m.m.m.m.m.m.m.m.m.w.m.S 7 = $ % 5 5                   # N m.w %                     5 m.w.m.m.m.m.m.m.m.m.m.m.m.m.m.m.m.m.m.m.m.m.m.m.m.1.m.v X e m.w.m.m.m.r.m.p , 2 2 2 2 2 2 1 2 %.",
"2 2 2 2 2 2 2 2 , y m.m.m.m.m.m.m.m.m.m.m.m.w.m.0 o                                 # *                         # <.w.m.m.m.m.m.m.m.m.m.m.m.m.m.m.m.m.m.m.m.m.m.m.m.m.w.m.> # w.m.w.m.m.r.m.p , 2 2 2 2 2 2 1 2 %.",
"2 2 2 2 2 2 2 2 , u m.m.m.m.m.m.m.m.m.m.m.m.m.w           . X                                                     e m.w.m.m.m.m.m.m.m.m.m.m.m.m.m.m.m.m.m.m.m.m.m.m.m.m.m.<.+ 9 m.w.m.m.r.m.p , 2 2 2 2 2 2 1 2 %.",
"2 2 2 2 2 2 2 2 , y m.m.m.m.m.m.m.m.m.m.m.w.m.&     O : 9 N 0                                                     : m.w.m.m.m.m.m.m.m.m.m.m.m.m.m.m.m.m.m.m.m.m.m.m.m.m.w.m.7 + <.m.m.m.r.m.p , 2 2 2 2 2 2 1 2 %.",
"2 2 2 2 2 2 2 2 , y m.m.m.m.m.m.m.m.m.m.m.w.5   * q { m.m.m.e                                                     & m.m.m.m.m.m.m.m.m.m.m.m.m.m.m.m.m.m.m.m.m.m.m.m.m.m.w.m.X.O q m.w.m.r.m.p , 2 2 2 2 2 2 1 2 %.",
"2 2 2 2 2 2 2 2 , y m.r.m.m.m.m.m.m.m.m.) $ O w w.m.m.w.w.m.S .                       > o                         o { m.m.m.m.m.m.m.m.m.m.m.m.m.m.m.m.m.m.m.m.m.m.m.m.m.w.<.m.: & m.m.m.r.m.p , 2 2 2 2 2 2 1 2 %.",
"2 2 2 2 2 2 2 2 , y m.r.m.m.m.m.m.w.m.S + & X.m.w.w.m.m.m.m.m.5                     + ;.*                           d m.w.m.m.m.m.m.m.m.m.m.m.m.m.m.m.m.m.w.w.m.m.m.m.m.m.<.m.d O ) m.m.r.m.p , 2 2 2 2 2 2 1 2 %.",
"2 2 2 2 2 2 2 2 , y m.m.m.m.m.m.m.m.{ O - m.p.p.m.m.m.m.m.m.m.w.5 .                 0 m.0                           q m.w.m.m.m.m.m.m.m.m.m.m.m.m.m.m.m.w.m.m.m.{ G S / ;.m.m.w.+ 7 m.w.r.m.p , 2 2 2 2 2 2 1 2 %.",
"2 2 2 2 2 2 2 2 , y m.m.m.m.m.m.m.m.% & m.w.w.m.m.m.m.m.m.m.w.w.m.f = O .     . . ; m.m./ X                         7 m.w.m.m.m.m.m.m.m.m.m.m.m.m.m.w.m.m.( 9 & O X X o + - a m.: * m.w.r.m.p , 2 2 2 2 2 2 1 2 %.",
"2 2 2 2 2 2 2 2 , y m.m.m.m.m.w.m.7 O { m.m.m.m.m.m.m.m.m.m.m.m.m.m.m.{ N e w h / w.m.m.<.#                         6 m.w.m.m.m.m.m.m.m.m.m.m.m.m.m.m.w.7 o                   : q # <.m.e.m.p , 2 2 2 2 2 2 1 2 %.",
"2 2 2 2 2 2 2 2 , y m.m.m.m.m.m.X.+ 0 m.w.m.m.m.m.m.m.m.m.m.m.m.m.w.w.m.m.m.m.m.m.m.w.w.m.=                         5 m.w.m.m.m.m.m.m.m.m.m.m.m.m.m.<.=                         + o N m.e.m.p , 2 2 2 2 2 2 1 2 %.",
"2 2 2 2 2 2 2 2 , y m.m.m.m.w.m.6 + w.m.m.m.m.m.m.m.m.m.m.m.m.m.m.m.m.m.m.m.m.m.m.m.m.<.m.>                         5 m.w.m.m.m.m.m.m.m.m.m.m.m.w.m.:                               9 m.7.m.p , 2 2 2 2 2 2 1 2 %.",
"2 2 2 2 2 2 2 2 , y m.r.m.m.m.m.$ 7 m.w.m.m.w.m.m.w.w.m.m.m.m.m.m.m.m.m.m.m.m.m.m.m.m.w.m.7                         5 m.w.m.m.m.m.m.m.m.m.m.m.w.m.f                                 : m.7.m.p , 2 2 2 2 2 2 1 2 %.",
"2 2 2 2 2 2 2 2 , y m.m.m.m.m.N X v m.m.m.m.m.m.m.m.m.m.m.m.m.m.m.m.m.m.m.m.m.m.m.m.m.w.m.0                         5 m.w.m.m.m.m.m.m.m.m.m.m.w.m.5                                 * m.e.m.p , 2 2 2 2 2 2 1 2 %.",
"2 2 2 2 2 2 2 2 , u m.m.m.w.m.7 $ m.m.m.w.w.9 = * ; e m.m.w.w.m.m.m.m.m.m.m.m.m.m.m.m.w.m.w                         6 m.m.m.m.m.m.m.m.m.m.m.m.m.w.%                                 o { m.m.p , 2 2 2 2 2 2 1 2 %.",
"2 2 2 2 2 2 2 2 , u m.m.m.w.m.; ; m.w.m.w.=           = G m.<.m.m.m.m.m.m.m.m.m.m.m.m.w.m.a                         9 m.w.m.m.m.m.m.m.m.m.m.m.m.G .                                   w m.m.p , 2 2 2 2 2 2 2 2 %.",
"2 2 2 2 2 2 2 2 , y m.m.m.m.m.& > m.w.m.7               O h m.w.w.m.m.m.m.m.m.m.m.m.m.w.m.f                         q m.m.m.m.m.m.m.m.m.m.m.m.m.e                                     5 m.m.p , 2 2 2 2 2 2 1 2 %.",
"2 2 2 2 2 2 2 2 , y m.m.m.m.m.$ 7 m.w.) O                 O h m.<.m.m.m.m.m.m.m.m.m.m.w.m.f                         f m.m.m.m.m.m.m.m.m.m.m.w.m.7                                     ; m.i.p , 2 2 2 2 2 2 1 2 %.",
"2 2 2 2 2 2 2 2 , y m.w.m.m.m.# 0 m.m.9                     # X.w.w.m.m.m.m.m.m.m.m.m.w.m.e                       X / m.m.m.m.m.m.m.m.m.m.m.w.m.>                                     * m.m.p , 2 2 2 2 2 2 1 2 %.",
"2 2 2 2 2 2 2 2 , u m.m.;.N h + q m.m.*                       > m.w.m.m.m.m.m.m.m.m.m.w.m.e                       + <.m.m.m.m.m.m.m.m.m.m.m.m.m.=                                     $ <.m.p , 2 2 2 2 2 2 2 2 %.",
"2 2 2 2 2 2 2 2 , y m.a # . .   9 m.X.+                       o G m.m.m.m.m.m.m.m.m.m.w.m.q                       * m.m.m.m.m.m.m.m.m.m.m.m.m.m.%                                     + >.m.p , 2 2 2 2 2 2 2 2 %.",
"2 2 2 2 2 2 2 2 , u 4.@         & m.) o                         6 m.m.m.m.m.m.m.m.m.m.w.m.0                       > m.<.m.m.m.m.m.m.m.m.m.m.m.w.$                                     O $.m.p , 2 2 2 2 2 2 1 2 %.",
"2 2 2 2 2 2 2 2 , i ' o         O <.{ o                         = m.m.m.m.m.m.m.m.m.m.w.m.7                       ; ;.m.m.m.m.w.m.m.m.m.m.m.m.w.#                                     O O.m.p , 2 2 2 2 2 2 1 2 %.",
"2 2 2 2 2 2 2 2 , u *.O         % m.X.O                         % m.m.m.m.m.m.m.m.m.m.w.m.>                         + 7 h G w.m.m.m.m.m.m.m.m.w.$                                     O ;.m.p , 2 2 2 2 2 2 1 2 %.",
"2 2 2 2 2 2 2 2 , y m.=         9 m.m.&                         = m.m.m.m.m.m.m.m.m.m.w.m.-                             . . $ 5 J m.w.m.m.m.m.m.&                                     # <.m.p , 2 2 2 2 2 2 1 2 %.",
"2 2 2 2 2 2 2 2 , y m.g X     - <.<.m.q                         6 m.m.m.m.m.m.m.m.m.m.m.m.&                                     o 0 m.m.m.m.m.m.;                                     % w.m.p , 2 2 2 2 2 2 1 2 %.",
"2 2 2 2 2 2 2 2 , u 5.m.; + q ;.w.w.w.w.&                     O / m.m.m.m.m.m.m.m.m.m.m.w.#                                         7 m.w.m.w.m.6                                     = m.m.p , 2 2 2 2 2 2 1 2 %.",
"2 2 2 2 2 2 2 2 , y i.m.7 % m.m.m.m.m.m.) &                   q m.w.m.m.m.m.m.m.m.m.m.m.X.O                                           w m.w.w.m.q                                     : m.m.p , 2 2 2 2 2 2 1 2 %.",
"2 2 2 2 2 2 2 2 , y i.m.N o h m.m.m.m.m.m.<.e - o .     . # w m.<.m.m.m.m.m.m.m.m.m.m.m.J X                                           # ;.m.w.m.v .                                   5 m.i.p , 2 2 2 2 2 2 1 2 %.",
"2 2 2 2 2 2 2 2 , y m.w.m.* - m.<.m.m.m.w.w.m.m.{ d w w h <.m.w.w.m.m.m.m.m.m.m.m.m.w.m.h                                               w m.w.m.<.#                                   0 m.i.p , 2 2 2 2 2 2 1 2 %.",
"2 2 2 2 2 2 2 2 , y m.w.m.e o S m.w.m.m.m.m.w.p.m.m.m.m.m.m.w.m.m.m.m.m.m.m.m.m.m.m.w.m.0                                               5 m.w.m.m.5                                 . v m.m.p , 2 2 2 2 2 2 1 2 %.",
"2 2 2 2 2 2 2 2 , y m.m.w.m.* * m.w.m.m.m.m.m.m.m.m.m.m.m.m.m.m.m.m.m.m.m.m.m.m.m.m.w.m.5                                               : m.<.h 7 #                                 O ;.m.m.p , 2 2 2 2 2 2 1 2 %.",
"2 2 2 2 2 2 2 2 , y m.m.e.m.G o > m.m.w.w.m.m.m.m.m.m.m.m.m.m.m.m.m.m.m.m.m.m.m.m.m.m.m.-                                               = 7 $ .                                     * m.e.m.p , 2 2 2 2 2 2 1 2 %.",
"2 2 2 2 2 2 2 2 , y m.m.m.<.m.e X = S m.m.m.m.w.m.m.m.m.m.m.m.m.m.m.m.m.m.m.m.m.m.m.m.m.$                                                                                           > m.7.m.p , 2 2 2 2 2 2 1 2 %.",
"2 2 2 2 2 2 2 2 , y m.m.m.w.w.m.6 o X - w ;.m.m.m.m.m.m.m.m.m.m.w.w.w.m.m.m.m.m.m.m.m.<.O                                             o # X       .                                 0 m.7.m.p , 2 2 2 2 2 2 1 2 %.",
"2 2 2 2 2 2 2 2 , y m.m.m.m.m.r.<.h 6 $ X O = > q v { ;.w.m.m.m.m.m.m.m.m.w.;.{ v w 6 - .                                             - 5 : - - ; > $                             # v m.w.m.p , 2 2 2 2 2 2 1 2 %.",
"2 2 2 2 2 2 2 2 , y m.m.m.m.m.w.w.m.m.w.G q > * # o O # $ & * * * * & & % # + o X X o # = - = = * = * = & X                       X = 5 > 5 5 5 5 5 : $ X     . o O # $ & - 5 0 d X.w.w.w.m.p , 2 2 2 2 2 2 1 2 %.",
"2 2 2 2 2 2 2 2 , y m.r.m.m.m.m.w.w.w.m.m.m.m.m.<./ f q 9 7 6 5 : : ; - - = - ; : 5 6 6 5 5 5 5 5 5 5 5 5 ; % X                 # ; 5 > > > 5 5 6 5 6 7 7 9 0 w e d S ) <.m.m.m.m.m.w.m.r.m.p , 2 2 2 2 2 2 1 2 %.",
"2 2 2 2 2 2 2 2 , y m.m.m.m.m.m.m.m.m.m.m.m.m.m.m.m.m.m.m.m.m.m.m.m.m.m.m.m.<.<.X.) ) G G S N N v v h h h h v f q 7 : = = > 9 e N N N S S G / ) ) X.;.<.w.m.m.m.m.m.m.m.m.m.m.m.m.m.m.m.r.m.p , 2 2 2 2 2 2 1 2 %.",
"2 2 2 2 2 2 2 2 , y m.m.m.m.m.m.m.m.m.m.m.m.m.m.m.m.m.i.w.w.w.w.w.w.m.w.w.m.m.m.m.m.m.m.m.m.m.m.m.m.m.m.m.m.m.m.m.m.m.m.m.m.m.m.m.m.m.m.m.m.m.m.m.m.m.m.w.m.m.w.w.w.m.m.m.m.m.m.m.m.m.m.r.m.p , 2 2 2 2 2 2 1 2 %.",
"2 2 2 2 2 2 2 2 , u m.m.m.m.m.m.m.m.m.m.m.m.m.m.m.m.m.m.m.m.m.m.m.m.m.m.m.m.m.m.m.m.m.m.m.m.m.m.m.m.m.m.m.m.m.m.m.w.w.m.m.w.w.m.m.m.m.m.m.m.m.m.m.m.m.m.m.m.m.m.m.m.m.m.m.m.m.m.m.m.m.m.r.m.p , 2 2 2 2 2 2 1 2 %.",
"2 2 2 2 2 2 2 2 , u m.m.m.m.m.m.m.m.m.m.m.m.m.m.m.m.m.m.m.m.m.m.m.m.m.m.m.m.m.m.m.m.m.m.m.m.m.m.m.m.m.m.m.m.m.m.m.m.m.m.m.m.m.m.m.m.m.m.m.m.m.m.m.m.m.m.m.m.m.m.m.m.m.m.m.m.m.m.m.m.m.m.m.m.p , 2 2 2 2 2 2 1 2 %.",
"2 2 2 2 2 2 2 2 , y m.3.3.3.3.3.3.3.3.3.3.3.3.3.3.3.3.3.3.3.3.3.3.3.3.3.3.3.3.3.3.3.3.3.3.3.3.3.3.3.3.3.3.3.3.3.3.3.3.3.3.3.3.3.3.3.3.3.3.3.3.3.3.3.3.3.3.3.3.3.3.3.3.3.3.3.3.3.3.3.3.3.3.m.i , 2 2 2 2 2 2 1 2 %.",
"2 2 2 2 2 2 2 2 2 2 4 3 3 3 3 3 3 3 3 3 4 3 3 4 3 3 3 3 3 3 3 3 4 3 3 3 3 3 3 3 3 3 3 3 4 3 3 3 3 3 3 3 3 3 3 3 3 3 3 3 3 3 3 3 3 3 3 3 3 3 3 3 3 3 3 3 3 3 3 3 3 3 3 3 4 3 3 3 3 3 3 3 3 4 3 2 2 2 2 2 2 2 1 2 %.",
"2 2 2 2 2 2 2 2 2 2 1 1 1 1 1 1 1 1 1 1 1 1 1 1 1 1 1 1 1 1 1 1 1 1 1 1 1 1 1 1 1 1 1 1 1 1 1 1 1 1 1 1 1 1 1 1 1 1 1 1 1 1 1 1 1 1 1 1 1 1 1 1 1 1 1 1 1 1 1 1 1 1 1 1 1 1 1 1 1 1 1 1 1 1 2 2 2 2 2 2 2 2 1 2 %.",
"2 2 2 2 2 2 2 2 2 2 2 2 2 2 2 2 2 2 2 2 2 2 2 2 2 2 2 2 2 2 2 2 2 2 2 2 2 2 2 2 2 2 2 2 2 2 2 2 2 2 2 2 2 2 2 2 2 2 2 2 2 2 2 2 2 2 2 2 2 2 2 2 2 2 2 2 2 2 2 2 2 2 2 2 2 2 2 2 2 2 2 2 2 2 2 2 2 2 2 2 2 2 1 2 %.",
"2 2 2 2 2 2 2 2 2 2 2 2 2 2 2 2 2 2 2 2 2 2 2 2 2 2 2 2 2 2 2 2 2 2 2 2 2 2 2 2 2 2 2 2 2 2 2 2 2 2 2 2 2 2 2 2 2 2 2 2 2 2 2 2 2 2 2 2 2 2 2 2 2 2 2 2 2 2 2 2 2 2 2 2 2 2 2 2 2 2 2 2 2 2 2 2 2 2 2 2 2 2 2 3 %.",
", , , , , , , , , , , , , , , , , , , , , , , , , , , , , , , , , , , , , , , , , , , , , , , , , , , , , , , , , , , , , , , , , , , , , , , , , , , , , , , , , , , , , , , , , , , , , , , , , , , , , 1 , 1 #.",
"t t t t t t t t t t t t t t t t t t t t t t t t t t t t t t t t t t t t t t t t t t t t t t t t t t t t t t t t t t t t t t t t t t t t t t t t t t t t t t t t t t t t t t t t t t t t t t t t t t t t t t t y 3."
};
