/* XPM */
static char *d6bd95d46b0a49bf981c45604b6fb2afzQMdnxfcqZeSdUWR[] = {
/* columns rows colors chars-per-pixel */
"25 25 12 1 ",
"  c #FCF9CE",
". c #FCF9D1",
"X c #FCF9D2",
"o c #FCF9D3",
"O c #FCF9D4",
"+ c #FCF9D5",
"@ c #FDFBDF",
"# c #FDFBE1",
"$ c #FDFBE2",
"% c #FEFCE8",
"& c #FEFCE9",
"* c #FEFDF0",
/* pixels */
"OOOOOOOOOOOOOOOOOOOOOOOX%",
"OOOOOOOOOOOOOOOOOOOOOOOX%",
"OOOOOOOOOOOOOOOOOOOOOOOX%",
"OOOOOOOOOOOOOOOOOOOOOOOX%",
"OOOOOOOOOOOOOOOOOOOOOOOX%",
"OOOOOOOOOOOOOOOOOOOOOOOX%",
"OOOOOOOOOOOOOOOOOOOOOOOX%",
"OOOOOOOOOOOOOOOOOOOOOOOX%",
"OOOOOOOOOOOOOOOOOOOOOOOX%",
"OOOOOOOOOOOOOOOOOOOOOOOX%",
"OOOOOOOOOOOOOOOOOOOOOOOX%",
"OOOOOOOOOOOOOOOOOOOOOOOX%",
"OOOOOOOOOOOOOOOOOOOOOOOX%",
"OOOOOOOOOOOOOOOOOOOOOOOX%",
"OOOOOOOOOOOOOOOOOOOOOOOX%",
"OOOOOOOOOOOOOOOOOOOOOOOX%",
"OOOOOOOOOOOOOOOOOOOOOOOX%",
"OOOOOOOOOOOOOOOOOOOOOOOX%",
"OOOOOOOOOOOOOOOOOOOOOOOX%",
"OOOOOOOOOOOOOOOOOOOOOOOX%",
"OOOOOOOOOOOOOOOOOOOOOOOX%",
"OOOOOOOOOOOOOOOOOOOOOOOX%",
"OOOOOOOOOOOOOOOOOOOOOOOX%",
"XXXXXXXXXXXXXXXXXXXXXXX %",
"#######################@*"
};
