/* XPM */
static char *_6cfe7664e7e493e92e081fa372c2551[] = {
/* columns rows colors chars-per-pixel */
"105 78 142 2 ",
"   c #010101",
".  c #0B0B0B",
"X  c #131313",
"o  c #1B1B1B",
"O  c #242424",
"+  c #2B2B2B",
"@  c #31302F",
"#  c #343434",
"$  c #3B3B3B",
"%  c #444444",
"&  c #4C4C4C",
"*  c #535353",
"=  c #5B5B5B",
"-  c #636363",
";  c #6B6B6B",
":  c #747474",
">  c #7C7C7C",
",  c #FEB74D",
"<  c #FFB94E",
"1  c #FFBC56",
"2  c #FFBD5A",
"3  c #FFC267",
"4  c #FFC268",
"5  c #838383",
"6  c #8C8C8C",
"7  c #949494",
"8  c #9C9C9C",
"9  c #A3A3A3",
"0  c #ABABAB",
"q  c #B3B3B3",
"w  c #BBBBBB",
"e  c #FFD18C",
"r  c #FFD697",
"t  c #FED79C",
"y  c #FFD89D",
"u  c #FFDCA4",
"i  c #FEDEAC",
"p  c #C4C4C4",
"a  c #C8C7C7",
"s  c #C8C8C8",
"d  c gray79",
"f  c #CBCAC9",
"g  c #CACACA",
"h  c #CBCBCB",
"j  c gray80",
"k  c #CDCDCD",
"l  c gray81",
"z  c #CDCDCD",
"x  c #D0D0D0",
"c  c gray82",
"v  c #D2D2D2",
"b  c LightGray",
"n  c gray84",
"m  c #D7D7D7",
"M  c #D4D4D4",
"N  c #D8D8D8",
"B  c gray85",
"V  c #DADADA",
"C  c gray86",
"Z  c #DDDDDD",
"A  c #DEDEDD",
"S  c gray87",
"D  c #DFDFDF",
"F  c #DCDCDC",
"G  c #FBEBD3",
"H  c #FBEBD4",
"J  c #FCECD5",
"K  c #FDEDD5",
"L  c #FEEDD5",
"P  c #FDEDD6",
"I  c #FDEED6",
"U  c #FEEED6",
"Y  c #FFEED6",
"T  c #FEEED7",
"R  c #FEEFD7",
"E  c #FFEFD7",
"W  c #FFEFD8",
"Q  c #FEF1DD",
"!  c gray88",
"~  c #E1E1E1",
"^  c gray89",
"/  c #E4E4E4",
"(  c gray90",
")  c #E6E5E4",
"_  c #E7E7E7",
"`  c #E4E4E4",
"'  c #E4E7ED",
"]  c gray91",
"[  c #E9E9E9",
"{  c #EAEAEA",
"}  c gray92",
"|  c #ECECEB",
" . c #ECECEC",
".. c gray93",
"X. c #EEEEEE",
"o. c #ECECEC",
"O. c #F1EFED",
"+. c #FFF3E2",
"@. c #FFF5E7",
"#. c #F3F1EF",
"$. c #FFF6E8",
"%. c #FFF6E8",
"&. c #EFF3F8",
"*. c gray94",
"=. c gray95",
"-. c #F3F3F3",
";. c #F4F4F4",
":. c gray96",
">. c #F6F6F6",
",. c gray97",
"<. c #F5F5F4",
"1. c #F8F7F7",
"2. c #FEFBF5",
"3. c #F1F4FA",
"4. c #F7FAFF",
"5. c #F8F8F8",
"6. c #F9F9F9",
"7. c gray98",
"8. c #FBFBFB",
"9. c #FDFCFA",
"0. c #FDFCFB",
"q. c #FEFCFA",
"w. c #FEFDFA",
"e. c #FEFDFB",
"r. c #FBFEFF",
"t. c gray99",
"y. c #FDFDFC",
"u. c #FDFDFD",
"i. c #FEFDFC",
"p. c #FEFDFD",
"a. c #FEFEFC",
"s. c #FFFEFC",
"d. c #FEFEFD",
"f. c #FFFEFD",
"g. c #FCFEFF",
"h. c #FCFFFF",
"j. c #FDFFFF",
"k. c #FEFEFE",
"l. c #FFFFFE",
"z. c #FEFFFF",
"x. c white",
"c. c #FEFEFE",
/* pixels */
"2 2 2 2 2 2 2 2 2 2 2 2 2 2 2 2 2 2 2 2 2 2 2 2 2 2 2 2 2 2 2 2 2 2 2 2 2 2 2 2 2 2 2 2 2 2 2 2 2 2 2 2 2 2 2 2 2 2 2 2 2 2 2 2 2 2 2 2 2 2 2 2 2 2 2 2 2 2 2 2 2 2 2 2 2 2 2 2 2 2 2 2 2 2 2 2 2 2 2 2 2 2 2 2 $.",
"2 2 2 2 2 2 2 2 2 2 2 2 2 2 2 2 2 2 2 2 2 2 2 2 2 2 2 2 2 2 2 2 2 2 2 2 2 2 2 2 2 2 2 2 2 2 2 2 2 2 2 2 2 2 2 2 2 2 2 2 2 2 2 2 2 2 2 2 2 2 2 2 2 2 2 2 2 2 2 2 2 2 2 2 2 2 2 2 2 2 2 2 2 2 2 2 2 2 2 2 2 2 2 2 $.",
"2 2 2 2 2 2 2 2 2 2 2 2 2 2 2 2 2 2 2 2 2 2 2 2 2 2 2 2 2 2 2 2 2 2 2 2 2 2 2 2 2 2 2 2 2 2 2 2 2 2 2 2 2 2 2 2 2 2 2 2 2 2 2 2 2 2 2 2 2 2 2 2 2 2 2 2 2 2 2 2 2 2 2 2 2 2 2 2 2 2 2 2 2 2 2 2 2 2 2 2 2 2 1 2 $.",
"2 2 2 2 2 2 2 2 2 2 2 2 2 2 2 2 2 2 2 2 2 2 2 2 2 2 2 2 2 2 2 2 2 2 2 2 2 2 2 2 2 2 2 2 2 2 2 2 2 2 2 2 2 2 2 2 2 2 2 2 2 2 2 2 2 2 2 2 2 2 2 2 2 2 2 2 2 2 2 2 2 2 2 2 2 2 2 2 2 2 2 2 2 2 2 2 2 2 2 2 2 2 1 2 $.",
"2 2 2 2 2 2 2 2 2 2 2 2 2 2 2 2 2 2 2 2 2 2 2 2 2 2 2 2 2 2 2 2 2 2 2 2 2 2 2 2 2 2 2 2 2 2 2 2 2 2 2 2 2 2 2 2 2 2 2 2 2 2 2 2 2 2 2 2 1 1 1 1 2 2 2 2 2 2 2 2 2 2 2 2 2 2 2 2 2 2 2 2 2 2 2 2 2 2 2 2 2 2 1 2 $.",
"2 2 2 2 2 2 2 2 2 2 2 2 2 2 2 2 2 2 2 2 2 2 2 2 2 2 2 2 2 2 2 2 2 2 2 2 2 2 2 2 2 2 2 2 2 2 2 2 2 2 2 2 2 2 2 2 2 2 2 2 2 2 2 2 2 2 2 2 2 2 2 2 2 2 2 2 2 2 2 2 2 2 2 2 2 2 2 2 2 2 2 2 2 2 2 2 2 2 2 2 2 2 1 2 $.",
"2 2 2 2 2 2 2 2 1 e Q T T T T T T T H T T T T T T T T W T T T T T T T T T T G T T T T T T T T T T T T T T T T T T T T T T T T T T T T T T T T T T T T W W W W T T T T W W W W W W W W W T +.t < 2 2 2 2 2 2 1 2 $.",
"2 2 2 2 2 2 2 2 < y g.g.g.r.g.r.g.g.g.g.g.g.g.g.g.g.g.g.g.g.g.g.g.g.g.r.g.g.g.g.g.g.g.r.g.g.g.g.g.g.g.g.g.g.g.g.g.g.g.g.g.g.g.g.g.g.g.g.g.g.g.g.g.g.g.g.g.g.g.g.g.g.g.g.g.g.g.g.g.g.g.g.g.g.i < 2 2 2 2 2 2 1 2 $.",
"2 2 2 2 2 2 2 2 < t g.e.g.g.g.g.g.| 7 S g.e.g.g.g.g.g.g.9 w g.g.g.g.g.g.g.a 8 g.g.g.g.g.g.1.g.g.g.g.g.g.g.g.g.g.g.g.g.g.g.g.g.g.g.g.g.g.g.g.g.g.g.g.g.g.g.g.g.g.g.g.g.g.g.g.g.g.g.g.g.g.e.g.i < 2 2 2 2 2 2 1 2 $.",
"2 2 2 2 2 2 2 2 < t g.g.{ ; & q g.v   0 g.g.*.> % 0 g.g.O = g.0 ; g.) = ) > . 6.g.g.,.5 # + # 5 *.g.g.g.g.g.g.g.g.g.g.g.g.g.g.g.g.g.g.g.g.g.g.g.g.g.g.g.g.g.g.g.g.g.g.g.g.g.g.g.g.g.g.g.e.g.i < 2 2 2 2 2 2 1 2 $.",
"2 2 2 2 2 2 2 2 < t g.g.% o &   k S   q g.g.= X *   q g.O = g.: . g.V   p 5 . g.g.g.= . 6 q 7 X & g.g.g.g.g.g.g.g.g.g.g.g.g.g.g.g.g.g.g.g.g.g.g.g.g.g.g.g.g.g.g.g.g.g.g.g.g.g.g.g.g.g.g.e.g.i < 2 2 2 2 2 2 1 2 $.",
"2 2 2 2 2 2 2 2 < t g.f   p g.+ - ^   q g.S   0 g.% % g.O = g.>   q 7   f 5 . g.g.S   9 g.6.g.0   b g.e.g.g.g.g.g.g.g.g.g.g.g.g.g.g.g.g.g.g.g.g.g.g.g.g.g.g.g.g.g.g.g.g.g.g.g.g.g.g.g.g.e.g.i < 2 2 2 2 2 2 1 2 $.",
"2 2 2 2 2 2 2 2 < r g.9   o.g.- $ V   o 6 w   b g.: o g.+ = g.>   # +   a 6   # w 8.. : g.g.g.> . ] g.g.g.g.g.g.g.g.g.g.g.g.g.g.g.g.g.g.g.g.g.g.g.g.g.g.g.g.g.g.g.g.g.g.g.g.g.g.g.g.g.g.e.g.i < 2 2 2 2 2 2 1 2 $.",
"2 2 2 2 2 2 2 2 < t g.0   / g.* & S   & q f   a g.; O g.+ = g.: . g.m   a 5   > v g.8   # - $   7 g.g.g.g.g.g.g.g.g.g.g.g.g.g.g.g.g.g.g.g.g.g.g.g.g.g.g.g.g.g.g.g.g.g.g.g.g.g.g.g.g.g.g.e.g.i < 2 2 2 2 2 2 1 2 $.",
"2 2 2 2 2 2 2 2 < t g.) . 5 S . 6 )   q g.*.X ; o.o ; g.O = g.: . ,.k   a 5 . g.g.g.g.^ :   ; S g.g.g.g.g.g.g.g.g.g.g.g.g.g.g.g.g.g.g.g.g.g.g.g.g.g.g.g.g.g.g.g.g.g.g.g.g.g.g.g.g.g.g.g.e.g.i < 2 2 2 2 2 2 1 2 $.",
"2 2 2 2 2 2 2 2 < y g.g.7     $ 6.m   0 g.g.0 .   + ) g.O = g.5   O o   f 5 . 6.g.6.,.g.k   p g.,.6.g.g.g.g.g.g.g.g.g.g.g.g.g.g.g.g.g.g.g.g.g.g.g.g.g.g.g.g.g.g.g.g.g.g.g.g.g.g.g.g.g.g.e.g.i < 2 2 2 2 2 2 1 2 $.",
"2 2 2 2 2 2 2 2 < y g.e.g.v w -.g.b   q g.8.g.V q *.g.g.+ - g.^ f f f a g.> X g.8.% O + o   o + O $ ;.g.g.g.g.g.g.g.g.g.g.g.g.g.g.g.g.g.g.g.g.g.g.g.g.g.g.g.g.g.g.8.g.g.g.g.g.g.g.g.g.g.g.g.i < 2 2 2 2 2 2 1 2 $.",
"2 2 2 2 2 2 2 2 < y g.g.g.g.g.g.g.v   0 g.8.g.g.g.g.g.g.O = g.8.g.g.g.6.g.: . g.g.q 0 0 0 q 0 0 0 q 6.g.g.g.g.g.g.g.g.g.g.g.g.g.6.6.6.8.6.6.6.g.g.g.8.8.g.g.6.6.g.g.8.6.g.g.g.g.g.g.g.g.g.g.i < 2 2 2 2 2 2 1 2 $.",
"2 2 2 2 2 2 2 2 < t g.g.g.g.g.g.g.| 7 S g.g.g.g.g.g.g.g.8 w g.g.g.g.g.8.g.a 8 g.g.g.g.g.g.g.g.g.g.g.g.g.g.g.g.g.g.g.g.g.g.g.g.g.g.g.g.g.g.g.g.g.g.g.6.6.g.q = % - 9 { g.6.g.g.g.g.g.g.g.e.g.i < 2 2 2 2 2 2 1 2 $.",
"2 2 2 2 2 2 2 2 < t g.g.g.g.g.g.g.g.g.g.g.g.g.g.g.g.g.g.g.g.g.g.g.g.g.g.g.g.g.g.g.g.8.8.8.8.8.8.6.6.g.g.g.g.g.g.6.6.g.g.g.g.X.k 0 7 6 5 5 6 9 p { g.g.g.:           + w g.6.8.g.g.g.g.g.e.g.i < 2 2 2 2 2 2 1 2 $.",
"2 2 2 2 2 2 2 2 < t g.g.g.g.g.g.g.g.8.g.g.g.g.g.g.g.g.g.8.g.g.g.g.g.g.g.g.g.8.g.g.g.g.g.g.g.g.g.g.g.g.g.g.g.8.8.g.g.*.q : & O o @ % * * * & # O O % 5 ;               o v g.6.g.g.g.g.g.e.g.i < 2 2 2 2 2 2 2 2 $.",
"2 2 2 2 2 2 2 2 < y g.g.g.g.g.g.g.g.g.g.g.g.g.g.g.g.g.g.g.g.g.g.g.g.g.g.g.g.g.g.g.g.g.g.g.g.g.g.g.g.g.g.g.g.g.g.a - + O = 6 w / ;.e.g.g.g.g.,.] p 6 * X             .   - g.6.g.g.g.g.g.g.g.i < 2 2 2 2 2 2 1 2 $.",
"2 2 2 2 2 2 2 2 < y g.g.g.g.g.g.g.g.g.g.g.g.g.g.g.g.g.g.g.g.g.g.g.g.g.g.g.g.g.g.g.g.g.g.g.g.g.g.g.g.g.6.,.g.v & o = 0 X.g.g.g.g.g.g.g.g.g.g.g.g.g.g.g.^ 7 @             o X.g.g.g.g.g.g.g.g.i < 2 2 2 2 2 2 1 2 $.",
"2 2 2 2 2 2 2 2 < t g.g.g.g.g.g.g.g.g.g.g.g.g.g.g.g.g.g.g.g.g.g.g.g.g.g.g.g.g.g.g.g.g.g.g.g.g.g.g.g.g.6.g.7 X - m g.g.g.g.g.g.g.g.g.g.g.g.g.g.g.g.8.6.g.g.X.7 o         . _ g.g.g.g.g.g.e.g.i < 2 2 2 2 2 2 1 2 $.",
"2 2 2 2 2 2 2 2 < t g.e.g.g.g.g.g.g.g.g.g.g.g.g.g.g.g.g.g.g.g.g.g.g.g.g.g.g.g.g.g.g.g.g.g.g.g.g.g.6.g.g.6 X q g.g.6.8.g.g.g.g.g.g.g.g.g.g.g.g.g.g.g.8.8.6.8.g.N &       # ,.g.g.g.g.g.g.e.g.i < 2 2 2 2 2 2 2 2 $.",
"2 2 2 2 2 2 2 2 < t g.g.g.g.g.g.g.g.g.g.g.g.g.g.g.g.g.g.g.g.g.g.g.g.g.8.8.8.g.g.g.g.g.g.g.g.g.g.6.g.,.>   O ^ g.6.g.g.g.g.g.g.g.g.g.g.g.g.g.g.g.g.g.g.g.g.g.6.g.,.;     6 g.6.g.g.g.g.g.e.g.i , 2 2 2 2 2 2 2 2 $.",
"2 2 2 2 2 2 2 2 < t g.g.g.g.g.g.g.g.g.g.g.g.g.g.g.g.g.g.g.g.g.g.g.g.g.g.g.g.g.g.g.g.g.g.g.g.g.g.g.k %   .   % 6.g.g.g.g.g.g.g.g.g.g.g.g.g.g.g.g.g.g.g.g.g.g.g.6.6.g.>   p g.6.g.g.g.g.g.e.g.i , 2 2 2 2 2 2 1 2 $.",
"2 2 2 2 2 2 2 2 < t g.e.g.g.g.g.g.g.g.g.g.g.g.g.g.e.6.8.g.g.6.6.g.o.w 8 6 9 p _ g.g.6.6.8.8.g.X.5 .           6 g.6.g.g.g.g.g.g.g.g.g.g.g.g.g.g.g.g.g.g.g.g.g.e.6.g.g.- # *.6.g.g.g.g.g.e.g.i , 2 2 2 2 2 2 1 2 $.",
"2 2 2 2 2 2 2 2 < t g.g.g.g.g.g.g.g.g.g.g.g.g.e.8.g.g.g.1.6.g.g.0 O           o > ) g.,.g.,.0 +               O ) g.6.g.g.g.g.g.g.g.g.g.g.g.g.g.g.g.g.g.g.g.g.g.g.g.6.6.# - g.6.g.g.g.g.e.g.i < 2 2 2 2 2 2 1 2 $.",
"2 2 2 2 2 2 2 2 < t g.g.g.g.g.g.g.g.g.g.g.g.g.8.g.C 7 = $ % 5 5                   # m g.q %                     5 g.6.g.g.g.g.g.g.g.g.g.g.g.g.g.g.g.g.g.g.g.g.g.g.g.6.g.v X w g.6.g.g.g.e.g.i < 2 2 2 2 2 2 1 2 $.",
"2 2 2 2 2 2 2 2 < t g.g.g.g.g.g.g.g.g.g.g.g.e.g.9 o                                 # *                         # ,.e.g.g.g.g.g.g.g.g.g.g.g.g.g.g.g.g.g.g.g.g.g.g.g.g.6.g.> # 6.g.6.g.g.e.g.i < 2 2 2 2 2 2 1 2 $.",
"2 2 2 2 2 2 2 2 < y g.g.g.g.g.g.g.g.g.g.g.g.g.q           . X                                                     w g.8.g.g.g.g.g.g.g.g.g.g.g.g.g.g.g.g.g.g.g.g.g.g.g.g.g.,.+ 8 g.6.g.g.e.g.i < 2 2 2 2 2 2 1 2 $.",
"2 2 2 2 2 2 2 2 < t g.g.g.g.g.g.g.g.g.g.g.8.g.&     O : 8 m 9                                                     : g.6.g.g.g.g.g.g.g.g.g.g.g.g.g.g.g.g.g.g.g.g.g.g.g.g.6.g.7 + ,.g.g.g.e.g.i < 2 2 2 2 2 2 1 2 $.",
"2 2 2 2 2 2 2 2 < t g.e.g.g.g.g.g.g.g.g.g.6.5   * 0 { g.g.g.w                                                     & g.g.g.g.g.g.g.g.g.g.g.g.g.g.g.g.g.g.g.g.g.g.g.g.g.g.8.g.#.O 0 g.8.g.e.g.i < 2 2 2 2 2 2 1 2 $.",
"2 2 2 2 2 2 2 2 < t g.e.g.g.g.g.g.g.g.g.) $ O q 6.g.g.6.6.g.V .                       > o                         o { g.g.g.g.g.g.g.g.g.g.g.g.g.g.g.g.g.g.g.g.g.g.g.g.g.8.1.g.: & g.g.g.e.g.i < 2 2 2 2 2 2 1 2 $.",
"2 2 2 2 2 2 2 2 < t g.e.g.g.g.g.g.8.g.C + & X.g.6.6.g.g.g.g.g.5                     + *.*                           f g.8.g.g.g.g.g.g.g.g.g.g.g.g.g.g.g.g.6.6.g.g.g.g.g.g.1.g.f O ) g.g.e.g.i < 2 2 2 2 2 2 1 2 $.",
"2 2 2 2 2 2 2 2 < t g.g.g.g.g.g.g.g.| O - g.g.g.g.g.g.g.g.g.g.e.5 .                 9 g.9                           0 g.8.g.g.g.g.g.g.g.g.g.g.g.g.g.g.g.e.g.g.g.{ S V ^ *.g.g.6.+ 7 g.6.e.g.i , 2 2 2 2 2 2 1 2 $.",
"2 2 2 2 2 2 2 2 < t g.g.g.g.g.g.g.g.& & g.6.6.g.g.g.g.g.g.g.e.6.g.a = O .     . . ; g.g.^ X                         7 g.8.g.g.g.g.g.g.g.g.g.g.g.g.g.e.g.g./ 8 & O X X o + - p g.: * g.6.e.g.i < 2 2 2 2 2 2 1 2 $.",
"2 2 2 2 2 2 2 2 < t g.g.g.g.g.6.g.7 O { g.g.g.g.g.g.g.g.g.g.g.g.g.g.g.{ m w q k ^ 6.g.g.,.#                         6 g.8.g.g.g.g.g.g.g.g.g.g.g.g.g.g.6.7 o                   : 0 # ,.g.8.g.i < 2 2 2 2 2 2 1 2 $.",
"2 2 2 2 2 2 2 2 < t g.g.g.g.g.g.O.+ 9 g.6.g.g.g.g.g.g.g.g.g.g.g.g.6.6.g.g.g.g.g.g.g.6.6.g.=                         5 g.8.g.g.g.g.g.g.g.g.g.g.g.g.g.,.-                         + o m g.8.g.i < 2 2 2 2 2 2 1 2 $.",
"2 2 2 2 2 2 2 2 < t g.g.g.g.8.g.6 @ 6.g.g.g.g.g.g.g.g.g.g.g.g.g.g.g.g.g.g.g.g.g.g.g.g.1.g.>                         5 g.8.g.g.g.g.g.g.g.g.g.g.g.6.g.:                               8 g.6.g.i < 2 2 2 2 2 2 1 2 $.",
"2 2 2 2 2 2 2 2 < t g.e.g.g.g.g.$ 7 g.6.g.g.8.g.g.8.6.g.g.g.g.g.g.g.g.g.g.g.g.g.g.g.g.6.g.7                         5 g.6.g.g.g.g.g.g.g.g.g.g.6.g.a                                 : g.6.g.i < 2 2 2 2 2 2 1 2 $.",
"2 2 2 2 2 2 2 2 < t g.g.g.g.g.m X v g.g.g.g.g.g.g.g.g.g.g.g.g.g.g.g.g.g.g.g.g.g.g.g.g.6.g.9                         5 g.6.g.g.g.g.g.g.g.g.g.g.6.g.5                                 * g.8.g.i < 2 2 2 2 2 2 1 2 $.",
"2 2 2 2 2 2 2 2 < y g.g.g.6.g.7 $ g.g.g.e.6.8 = * ; w g.g.6.6.g.g.g.g.g.g.g.g.g.g.g.g.8.g.q                         6 g.g.g.g.g.g.g.g.g.g.g.g.g.6.%                                 o { g.g.i < 2 2 2 2 2 2 1 2 $.",
"2 2 2 2 2 2 2 2 < y g.g.g.6.g.; ; g.e.g.6.=           = S g.,.g.g.g.g.g.g.g.g.g.g.g.g.8.g.p                         8 g.8.g.g.g.g.g.g.g.g.g.g.g.S .                                   q g.g.i < 2 2 2 2 2 2 2 2 $.",
"2 2 2 2 2 2 2 2 < y g.g.g.g.g.& > g.6.g.7               O k g.6.e.g.g.g.g.g.g.g.g.g.g.8.g.a                         0 g.g.g.g.g.g.g.g.g.g.g.g.g.w                                     5 g.g.i < 2 2 2 2 2 2 1 2 $.",
"2 2 2 2 2 2 2 2 < t g.g.g.g.g.$ 7 g.6._ O                 O k g.1.g.g.g.g.g.g.g.g.g.g.8.g.a                         a g.g.g.g.g.g.g.g.g.g.g.6.g.7                                     ; g.r.i < 2 2 2 2 2 2 1 2 $.",
"2 2 2 2 2 2 2 2 < t g.8.g.g.g.# 9 g.g.8                     # X.e.8.g.g.g.g.g.g.g.g.g.8.g.w                       X ^ g.g.g.g.g.g.g.g.g.g.g.6.g.>                                     * g.g.i < 2 2 2 2 2 2 1 2 $.",
"2 2 2 2 2 2 2 2 < y g.g.*.m k + 0 g.g.*                       > g.6.g.g.g.g.g.g.g.g.g.6.g.w                       + ,.g.g.g.g.g.g.g.g.g.g.g.g.g.=                                     $ ,.g.i < 2 2 2 2 2 2 2 2 $.",
"2 2 2 2 2 2 2 2 < t g.p # . .   8 g.X.+                       o S g.g.g.g.g.g.g.g.g.g.6.g.0                       * g.g.g.g.g.g.g.g.g.g.g.g.g.g.%                                     + ;.g.i < 2 2 2 2 2 2 2 2 $.",
"2 2 2 2 2 2 2 2 < y 3.@         & g.) o                         6 g.g.g.g.g.g.g.g.g.g.6.g.9                       > g.,.e.g.g.g.g.g.g.g.g.g.g.6.$                                     O #.g.i < 2 2 2 2 2 2 1 2 $.",
"2 2 2 2 2 2 2 2 , u ' o         O ,.{ o                         = g.g.g.g.g.g.g.g.g.g.6.g.7                       ; *.g.g.g.g.6.g.g.g.g.g.g.g.6.#                                     O O.g.i < 2 2 2 2 2 2 1 2 $.",
"2 2 2 2 2 2 2 2 < y &.O         % g.X.O                         % g.g.g.g.g.g.g.g.g.g.6.g.>                         + 7 k D 6.g.g.g.g.g.g.g.g.6.$                                     O *.g.i < 2 2 2 2 2 2 1 2 $.",
"2 2 2 2 2 2 2 2 < t g.=         8 g.g.&                         = g.g.g.g.g.g.g.g.g.g.8.g.-                             . . $ 5 ^ g.8.g.g.g.g.g.&                                     # ,.g.i < 2 2 2 2 2 2 1 2 $.",
"2 2 2 2 2 2 2 2 < t g.j X     - ,.,.g.0                         6 g.g.g.g.g.g.g.g.g.g.g.g.&                                     O 0 g.g.g.g.g.g.;                                     % 6.g.i < 2 2 2 2 2 2 1 2 $.",
"2 2 2 2 2 2 2 2 < y 4.g.; + 0 *.6.6.6.6.&                     O / g.g.g.g.g.g.g.g.g.g.g.6.#                                         7 g.6.g.6.g.6                                     = g.g.i < 2 2 2 2 2 2 1 2 $.",
"2 2 2 2 2 2 2 2 < t r.g.7 % g.g.g.g.g.g.) *                   0 g.6.g.g.g.g.g.g.g.g.g.g.X.O                                           q g.6.6.g.0                                     : g.g.i < 2 2 2 2 2 2 1 2 $.",
"2 2 2 2 2 2 2 2 < t r.g.m o k g.g.g.g.g.g.,.w - o .     . # q g.,.g.g.g.g.g.g.g.g.g.g.g.! X                                           # *.g.6.g.v .                                   5 g.r.i < 2 2 2 2 2 2 1 2 $.",
"2 2 2 2 2 2 2 2 < t g.6.g.* - g.,.g.g.g.6.6.g.g.{ f q q k ,.g.6.6.g.g.g.g.g.g.g.g.g.8.g.l .                                             q g.6.g.,.#                                   9 g.r.i < 2 2 2 2 2 2 1 2 $.",
"2 2 2 2 2 2 2 2 < t g.6.g.w o V g.6.g.g.g.g.8.e.g.g.g.g.g.g.e.g.g.g.g.g.g.g.g.g.g.g.8.g.9                                               5 g.6.g.g.5                                 . v g.g.i < 2 2 2 2 2 2 1 2 $.",
"2 2 2 2 2 2 2 2 < t g.g.6.g.* * g.6.g.g.g.g.g.g.g.g.g.g.g.g.g.g.g.g.g.g.g.g.g.g.g.g.6.g.5                                               : g.,.k 7 #                                 O *.g.g.i < 2 2 2 2 2 2 1 2 $.",
"2 2 2 2 2 2 2 2 < t g.g.8.g.S o > g.g.6.6.g.g.g.g.g.g.g.g.g.g.g.g.g.g.g.g.g.g.g.g.g.g.g.-                                               = 7 $ .                                     * g.8.g.i < 2 2 2 2 2 2 1 2 $.",
"2 2 2 2 2 2 2 2 < t g.g.g.,.g.w X = C g.g.g.g.8.g.g.g.g.g.g.g.g.g.g.g.g.g.g.g.g.g.g.g.g.$                                                                                           > g.6.g.i < 2 2 2 2 2 2 1 2 $.",
"2 2 2 2 2 2 2 2 < t g.g.g.6.6.g.6 o X - q -.g.g.g.g.g.g.g.g.g.g.e.e.e.g.g.g.g.g.g.g.g.,.O                                             o # X       .                                 9 g.6.g.i < 2 2 2 2 2 2 1 2 $.",
"2 2 2 2 2 2 2 2 < t g.g.g.g.g.e.;.k 6 $ X O = > 0 v { *.6.g.g.g.g.g.g.g.g.6.*.{ v q 6 - .                                             - 5 : - - ; > $                             # v g.8.g.i < 2 2 2 2 2 2 1 2 $.",
"2 2 2 2 2 2 2 2 < t g.g.g.g.g.8.6.g.g.8.S 0 > * # o O # $ & * * * * & & % # + o X X o # = - = = * = * = & X                       X = 5 > 5 5 5 5 5 : $ X     . o O # $ & - 5 9 f X.6.8.8.g.i < 2 2 2 2 2 2 1 2 $.",
"2 2 2 2 2 2 2 2 < t g.e.g.g.g.g.6.6.8.g.g.g.g.g.1.^ a 0 8 7 6 5 : : ; - - = - ; : 5 6 6 5 5 5 5 5 5 5 5 5 ; % X                 # ; 5 > > > 5 5 6 5 6 7 7 8 9 q w f V _ ,.g.g.g.g.g.6.g.e.g.i < 2 2 2 2 2 2 1 2 $.",
"2 2 2 2 2 2 2 2 < t g.g.g.g.g.g.g.g.g.g.g.g.g.g.g.g.g.g.g.g.g.g.g.g.g.g.g.g.,.,.X.) ) S S V m m v v k k k k v a 0 7 : = = > 8 w m m m V V S ^ ) _ X.-.,.6.g.g.g.g.g.g.g.g.g.g.g.g.g.g.g.e.g.i < 2 2 2 2 2 2 1 2 $.",
"2 2 2 2 2 2 2 2 < t g.g.g.g.g.g.g.g.g.g.g.g.g.g.g.g.g.g.6.6.6.6.6.8.g.8.6.g.g.g.g.g.g.g.g.g.g.g.g.g.g.g.g.g.g.g.g.g.g.g.g.g.g.g.g.g.g.g.g.g.g.g.g.g.g.g.6.g.g.6.6.6.g.g.g.g.g.g.g.g.g.g.e.g.i < 2 2 2 2 2 2 1 2 $.",
"2 2 2 2 2 2 2 2 < y g.g.g.g.g.g.g.g.g.g.g.g.g.g.g.g.g.g.g.g.g.g.g.g.g.g.g.g.g.g.g.g.g.g.g.g.g.g.g.g.g.g.g.g.g.g.g.8.8.g.g.6.6.g.g.g.g.g.g.g.g.g.g.g.g.g.g.g.g.g.g.g.g.g.g.g.g.g.g.g.g.g.e.g.i < 2 2 2 2 2 2 1 2 $.",
"2 2 2 2 2 2 2 2 < y g.g.g.g.g.g.g.g.g.g.g.g.g.g.g.g.g.g.g.g.g.g.g.g.g.g.g.g.g.g.g.g.g.g.g.g.g.g.g.g.g.g.g.g.g.g.g.g.g.g.g.g.g.g.g.g.g.g.g.g.g.g.g.g.g.g.g.g.g.g.g.g.g.g.g.g.g.g.g.g.g.g.g.g.i < 2 2 2 2 2 2 1 2 $.",
"2 2 2 2 2 2 2 2 < t g.2.2.2.2.2.2.2.2.2.2.2.2.2.2.2.2.2.2.2.2.2.2.2.2.2.2.2.2.2.2.2.2.2.2.2.2.2.2.2.2.2.2.2.2.2.2.2.2.2.2.2.2.2.2.2.2.2.2.2.2.2.2.2.2.2.2.2.2.2.2.2.2.2.2.2.2.2.2.2.2.2.2.g.u < 2 2 2 2 2 2 1 2 $.",
"2 2 2 2 2 2 2 2 2 2 4 3 3 3 3 3 3 3 3 3 3 3 3 3 3 3 3 3 3 3 3 3 3 3 3 3 3 3 3 3 3 3 3 3 3 3 3 3 3 3 3 3 3 3 3 3 3 3 3 3 3 3 3 3 3 3 3 3 3 3 3 3 3 3 3 3 3 3 3 3 3 3 3 3 3 3 3 3 3 3 3 3 3 4 3 2 2 2 2 2 2 2 1 2 $.",
"2 2 2 2 2 2 2 2 2 2 1 1 1 1 1 1 1 1 1 1 1 1 1 1 1 1 1 1 1 1 1 1 1 1 1 1 1 1 1 1 1 1 1 1 1 1 1 1 1 1 1 1 1 1 1 1 1 1 1 1 1 1 1 1 1 1 1 1 1 1 1 1 1 1 1 1 1 1 1 1 1 1 1 1 1 1 1 1 1 1 1 1 1 1 2 2 2 2 2 2 2 2 1 2 $.",
"2 2 2 2 2 2 2 2 2 2 2 2 2 2 2 2 2 2 2 2 2 2 2 2 2 2 2 2 2 2 2 2 2 2 2 2 2 2 2 2 2 2 2 2 2 2 2 2 2 2 2 2 2 2 2 2 2 2 2 2 2 2 2 2 2 2 2 2 2 2 2 2 2 2 2 2 2 2 2 2 2 2 2 2 2 2 2 2 2 2 2 2 2 2 2 2 2 2 2 2 2 2 1 2 $.",
"2 2 2 2 2 2 2 2 2 2 2 2 2 2 2 2 2 2 2 2 2 2 2 2 2 2 2 2 2 2 2 2 2 2 2 2 2 2 2 2 2 2 2 2 2 2 2 2 2 2 2 2 2 2 2 2 2 2 2 2 2 2 2 2 2 2 2 2 2 2 2 2 2 2 2 2 2 2 2 2 2 2 2 2 2 2 2 2 2 2 2 2 2 2 2 2 2 2 2 2 2 2 2 3 $.",
"< < < < < < < < < < < < < < < < < < < < < < < < < < < < < < < < < < < < < < < < < < < < < < < < < < < < < < < < < < < < < < < < < < < < < < < < < < < < < < < < < < < < < < < < < < < < < < < < < < < < < 1 < 1 @.",
"r r r r r r r r r r r r r r r r r r r r r r r r r r r r r r r r r r r r r r r r r r r r r r r r r r r r r r r r r r r r r r r r r r r r r r r r r r r r r r r r r r r r r r r r r r r r r r r r r r r r r r r t 2."
};
