/* XPM */
static char *a5a6cbc4221944d0b6ee85ef7c42d108[] = {
/* columns rows colors chars-per-pixel */
"105 78 146 2 ",
"   c #010101",
".  c #0B0B0B",
"X  c #131313",
"o  c #1B1B1B",
"O  c #242424",
"+  c #2B2B2B",
"@  c #31302F",
"#  c #343434",
"$  c #3B3B3B",
"%  c #444444",
"&  c #4C4C4C",
"*  c #535353",
"=  c #5C5C5C",
"-  c #636363",
";  c #6C6C6C",
":  c #747474",
">  c #7C7C7C",
",  c #FEB74D",
"<  c #FFB94E",
"1  c #FFBC56",
"2  c #FFBD5A",
"3  c #FFC267",
"4  c #FFC268",
"5  c #838383",
"6  c #8B8B8B",
"7  c #949494",
"8  c #9C9C9C",
"9  c #A3A3A3",
"0  c #ABABAB",
"q  c #B3B3B3",
"w  c #B9B8B7",
"e  c #BBBBBB",
"r  c #FFD18C",
"t  c #FFD697",
"y  c #FFD79C",
"u  c #FFD89C",
"i  c #FFDCA4",
"p  c #FEDEAC",
"a  c #C3C3C3",
"s  c #C0C0C0",
"d  c #C6C6C6",
"f  c gray78",
"g  c #C4C4C4",
"h  c #C8C8C8",
"j  c gray79",
"k  c #CAC9C9",
"l  c #CACACA",
"z  c #CBCBCB",
"x  c #CDCDCD",
"c  c gray81",
"v  c #CDCDCD",
"b  c #D0D0D0",
"n  c gray82",
"m  c LightGray",
"M  c gray83",
"N  c #D6D6D5",
"B  c gray84",
"V  c #D4D4D4",
"C  c #D8D8D8",
"Z  c gray85",
"A  c #DADADA",
"S  c gray86",
"D  c #DDDDDD",
"F  c gray87",
"G  c #DFDFDF",
"H  c #DCDCDC",
"J  c #FBEBD4",
"K  c #FCECD5",
"L  c #FEEDD5",
"P  c #FDEDD6",
"I  c #FDEED6",
"U  c #FDEFD6",
"Y  c #FEEED6",
"T  c #FFEED6",
"R  c #FEEED7",
"E  c #FEEFD7",
"W  c #FFEFD7",
"Q  c #FFEFD8",
"!  c #FEF1DD",
"~  c gray88",
"^  c #E2E2E2",
"/  c gray89",
"(  c #E4E4E4",
")  c #E6E6E6",
"_  c #E7E7E7",
"`  c #E4E4E4",
"'  c #E4E7ED",
"]  c gray91",
"[  c #E9E9E9",
"{  c #EAEAEA",
"}  c gray92",
"|  c #ECECEC",
" . c gray93",
".. c #EEEEEE",
"X. c #EFEFEF",
"o. c #EBEBEB",
"O. c #F1EFED",
"+. c #FFF3E2",
"@. c #FFF5E7",
"#. c #F3F1EF",
"$. c #FFF6E8",
"%. c #FFF6E8",
"&. c #EFF3F8",
"*. c gray95",
"=. c #F3F3F3",
"-. c #F4F3F3",
";. c #F4F4F4",
":. c gray96",
">. c #F6F6F6",
",. c gray97",
"<. c #F5F5F4",
"1. c #FEFBF5",
"2. c #F1F4FA",
"3. c #F7FAFF",
"4. c #F8F8F8",
"5. c #F9F8F8",
"6. c #F9F9F9",
"7. c gray98",
"8. c #FBFBFB",
"9. c #FCFBFA",
"0. c #FDFCFA",
"q. c #FCFCFB",
"w. c #FDFCFB",
"e. c #FEFCFA",
"r. c #FEFDFA",
"t. c #FEFDFB",
"y. c #FAFDFF",
"u. c #FBFEFF",
"i. c gray99",
"p. c #FDFDFC",
"a. c #FDFDFD",
"s. c #FEFDFC",
"d. c #FEFDFD",
"f. c #FEFEFC",
"g. c #FFFEFC",
"h. c #FEFEFD",
"j. c #FFFEFD",
"k. c #FCFEFF",
"l. c #FDFEFF",
"z. c #FCFFFF",
"x. c #FDFFFF",
"c. c #FEFEFE",
"v. c #FFFFFE",
"b. c #FEFFFF",
"n. c white",
"m. c #FEFEFE",
/* pixels */
"2 2 2 2 2 2 2 2 2 2 2 2 2 2 2 2 2 2 2 2 2 2 2 2 2 2 2 2 2 2 2 2 2 2 2 2 2 2 2 2 2 2 2 2 2 2 2 2 2 2 2 2 2 2 2 2 2 2 2 2 2 2 2 2 2 2 2 2 2 2 2 2 2 2 2 2 2 2 2 2 2 2 2 2 2 2 2 2 2 2 2 2 2 2 2 2 2 2 2 2 2 2 2 2 $.",
"2 2 2 2 2 2 2 2 2 2 2 2 2 2 2 2 2 2 2 2 2 2 2 2 2 2 2 2 2 2 2 2 2 2 2 2 2 2 2 2 2 2 2 2 2 2 2 2 2 2 2 2 2 2 2 2 2 2 2 2 2 2 2 2 2 2 2 2 2 2 2 2 2 2 2 2 2 2 2 2 2 2 2 2 2 2 2 2 2 2 2 2 2 2 2 2 2 2 2 2 2 2 2 2 $.",
"2 2 2 2 2 2 2 2 2 2 2 2 2 2 2 2 2 2 2 2 2 2 2 2 2 2 2 2 2 2 2 2 2 2 2 2 2 2 2 2 2 2 2 2 2 2 2 2 2 2 2 2 2 2 2 2 2 2 2 2 2 2 2 2 2 2 2 2 2 2 2 2 2 2 2 2 2 2 2 2 2 2 2 2 2 2 2 2 2 2 2 2 2 2 2 2 2 2 2 2 2 2 1 2 $.",
"2 2 2 2 2 2 2 2 2 2 2 2 2 2 2 2 2 2 2 2 2 2 2 2 2 2 2 2 2 2 2 2 2 2 2 2 2 2 2 2 2 2 2 2 2 2 2 2 2 2 2 2 2 2 2 2 2 2 2 2 2 2 2 2 2 2 2 2 2 2 2 2 2 2 2 2 2 2 2 2 2 2 2 2 2 2 2 2 2 2 2 2 2 2 2 2 2 2 2 2 2 2 1 2 $.",
"2 2 2 2 2 2 2 2 2 2 2 2 2 2 2 2 2 2 2 2 2 2 2 2 2 2 2 2 2 2 2 2 2 2 2 2 2 2 2 2 2 2 2 2 2 2 2 2 2 2 2 2 2 2 2 2 2 2 2 2 2 2 2 2 2 2 2 2 1 1 1 1 2 2 2 2 2 2 2 2 2 2 2 2 2 2 2 2 2 2 2 2 2 2 2 2 2 2 2 2 2 2 1 2 $.",
"2 2 2 2 2 2 2 2 2 2 2 2 2 2 2 2 2 2 2 2 2 2 2 2 2 2 2 2 2 2 2 2 2 2 2 2 2 2 2 2 2 2 2 2 2 2 2 2 2 2 2 2 2 2 2 2 2 2 2 2 2 2 2 2 2 2 2 2 2 2 2 2 2 2 2 2 2 2 2 2 2 2 2 2 2 2 2 2 2 2 2 2 2 2 2 2 2 2 2 2 2 2 1 2 $.",
"2 2 2 2 2 2 2 2 1 r ! R R R R R R J R R R R R R R R Q Q Q R J R R R R R R R R R R R R R R R R R R R R R R R R R R R R R R R R R R R R R R R R R R R R Q Q Q Q R R R R Q Q Q Q Q Q Q Q Q R +.y , 2 2 2 2 2 2 1 2 $.",
"2 2 2 2 2 2 2 2 , u x.x.x.x.y.y.y.x.x.y.y.y.x.x.x.x.x.x.x.x.x.x.x.x.x.x.x.y.x.x.x.x.x.x.x.y.x.x.x.x.x.x.x.x.x.x.x.x.x.x.x.x.x.x.x.x.x.x.x.x.x.x.x.x.x.x.x.x.x.x.x.x.x.x.x.x.x.x.x.x.x.x.x.x.p , 2 2 2 2 2 2 1 2 $.",
"2 2 2 2 2 2 2 2 , y x.w.x.x.x.x.x.8 z x.x.x.x.x.x.x.x.x.x.-.7 B x.x.x.x.x.x.x.0 w x.x.x.x.x.w.4.x.x.w.x.x.x.x.x.x.x.x.x.x.x.x.x.x.x.x.x.x.x.x.x.x.x.x.x.x.x.x.x.x.x.x.x.x.x.x.x.x.x.x.x.w.x.p , 2 2 2 2 2 2 1 2 $.",
"2 2 2 2 2 2 2 2 , y x.w.x.G 6 6 6   % 8 5 0 x.x.G = * z x.^   8 x.5 7 x.e - 4.$ * x.4.x.^ - + + $ 9 x.x.x.x.x.x.x.x.x.x.x.x.x.x.x.x.x.x.x.x.x.x.x.x.x.x.x.x.x.x.x.x.x.x.x.x.x.x.x.x.x.x.w.x.p , 2 2 2 2 2 2 1 2 $.",
"2 2 2 2 2 2 2 2 , y x.9.x.z % * % & % & % : x.=.O O $ X ) {   9 x.# & x.7   >.$ * x.x.X.O O 9 q :   6 x.9.x.x.x.x.x.x.x.x.x.x.x.x.x.x.x.x.x.x.x.x.x.x.x.x.x.x.x.x.x.x.x.x.x.x.x.x.x.x.x.w.x.p , 2 2 2 2 2 2 1 2 $.",
"2 2 2 2 2 2 2 2 , y x.x.x.x.4.5 $ # $ * s x.x.9   ) x.. 6 4.  8 x.$ # s -   >.$ * x.x.8   ^ x.4.x.: X 9.x.x.x.x.x.x.x.x.x.x.x.x.x.x.x.x.x.x.x.x.x.x.x.x.x.x.x.x.x.x.x.x.x.x.x.x.x.x.x.x.w.x.p , 2 2 2 2 2 2 1 2 $.",
"2 2 2 2 2 2 2 2 , y x.x.4.x.5   9 B m &   ^ x.> o x.x.$ - >.  9 x.%   $ o . X.%   % =.s   0 x.x.x.% $ x.x.x.x.x.x.x.x.x.x.x.x.x.x.x.x.x.x.x.x.x.x.x.x.x.x.x.x.x.x.x.x.x.x.x.x.x.x.x.x.x.w.x.p , 2 2 2 2 2 2 1 2 $.",
"2 2 2 2 2 2 2 2 , u x.x.4.x.q X * ; ; + % >.x.5 X 4.x.+ ; 4.  9 x.$ & x.7   =.% O 6 X.x.;   & - O X d x.x.x.x.x.x.x.x.x.x.x.x.x.x.x.x.x.x.x.x.x.x.x.x.x.x.x.x.x.x.x.x.x.x.x.x.x.x.x.x.x.w.x.p , 2 2 2 2 2 2 1 2 $.",
"2 2 2 2 2 2 2 2 , u x.x.x.{ ) e ; = = 6 C ^ x.z   0 d   q >.  9 x.$ % x.6   >.$ * x.x.x.x.m %   7 X.x.x.x.x.x.x.x.x.x.x.x.x.x.x.x.x.x.x.x.x.x.x.x.x.x.x.x.x.x.x.x.x.x.x.x.x.x.x.x.x.x.x.w.x.p , 2 2 2 2 2 2 1 2 $.",
"2 2 2 2 2 2 2 2 , u x.w.x.; . O + O O O o X s x.:     * x.)   8 x.&   O . X =.$ & x.4.4.>.x.6   >.x.>.4.x.x.x.x.x.x.x.x.x.x.x.x.x.x.x.x.x.x.x.x.x.x.x.x.x.x.x.x.x.x.x.x.x.x.x.x.x.x.x.x.w.x.p , 2 2 2 2 2 2 1 2 $.",
"2 2 2 2 2 2 2 2 , u x.x.x.{ C G m   ; { B C >.x.x.z s 4.x.(   9 x.C z z z x x.$ * x.m + + + X   O + o ; x.x.x.x.x.x.x.x.x.x.x.x.x.x.x.x.x.x.x.x.x.x.x.x.x.x.x.x.x.9.x.x.x.x.x.x.x.x.x.x.x.x.p , 2 2 2 2 2 2 1 2 $.",
"2 2 2 2 2 2 2 2 , u x.x.x.x.x.x.4.  > x.4.x.x.x.x.x.x.9.x.(   8 x.4.x.x.x.x.x.# * x.X.0 0 0 0 q 0 0 9 s x.x.x.x.x.x.x.x.x.x.x.x.4.4.4.4.4.4.4.x.x.x.4.9.x.x.4.4.x.x.9.4.x.x.x.x.x.x.x.x.x.x.p , 2 2 2 2 2 2 1 2 $.",
"2 2 2 2 2 2 2 2 , y x.x.x.x.x.x.x.7 d x.4.x.x.x.x.x.x.x.x.=.6 B x.9.x.x.x.x.x.0 q x.x.x.x.x.x.x.x.x.x.x.x.x.x.x.x.x.x.x.x.x.x.x.x.x.x.x.x.x.x.x.x.x.4.4.x.q = % - 9 { x.4.x.x.x.x.x.x.x.w.x.p , 2 2 2 2 2 2 1 2 $.",
"2 2 2 2 2 2 2 2 , y x.x.x.x.x.x.x.x.x.x.x.x.x.x.x.x.x.x.x.x.x.x.x.x.x.x.x.x.x.x.x.x.x.4.4.4.9.9.4.4.4.x.x.x.x.x.4.4.x.x.x.x.X.x 0 7 6 5 5 6 9 a { x.x.x.:           + e x.4.4.x.x.x.x.x.w.x.p , 2 2 2 2 2 2 1 2 $.",
"2 2 2 2 2 2 2 2 , y x.x.x.x.x.x.x.9.x.x.x.x.x.x.x.x.x.x.x.x.9.x.x.x.x.x.x.x.x.9.x.x.x.x.x.x.x.x.x.x.x.x.x.x.9.4.x.x.=.q : & O o @ % & * * % $ O O % 5 ;               o m x.4.x.x.x.x.x.w.x.p , 2 2 2 2 2 2 2 2 $.",
"2 2 2 2 2 2 2 2 , u x.x.x.x.x.x.x.x.x.x.x.x.x.x.x.x.x.x.x.x.x.x.x.x.x.x.x.x.x.x.x.x.x.x.x.x.x.x.x.x.x.x.x.x.x.x.d - + O = 6 e ^ >.x.x.x.x.x.>._ s 6 * X             .   - x.4.x.x.x.x.x.x.x.p , 2 2 2 2 2 2 1 2 $.",
"2 2 2 2 2 2 2 2 , u x.x.x.x.x.x.x.x.x.x.x.x.x.x.x.x.x.x.x.x.x.x.x.x.x.x.x.x.x.x.x.x.x.x.x.x.x.x.x.x.x.4.>.x.m & o = 0 X.x.x.x.x.x.x.x.x.x.x.x.x.x.x.x.^ 7 +             o X.x.x.x.x.x.x.x.x.p , 2 2 2 2 2 2 1 2 $.",
"2 2 2 2 2 2 2 2 , y x.x.x.x.x.x.x.x.x.x.x.x.x.x.x.x.x.x.x.x.x.x.x.x.x.x.x.x.x.x.x.x.x.x.x.x.x.x.x.x.x.4.x.7 X - B x.x.x.x.x.x.x.x.x.x.x.x.x.x.x.x.9.4.x.x.X.7 o         X _ x.x.x.x.x.x.w.x.p , 2 2 2 2 2 2 1 2 $.",
"2 2 2 2 2 2 2 2 , y x.w.x.x.x.x.x.x.x.x.x.x.x.x.x.x.x.x.x.x.x.x.x.x.x.x.x.x.x.x.x.x.x.x.x.x.x.x.x.4.x.x.6 X q x.x.4.4.x.x.x.x.x.x.x.x.x.x.x.x.x.x.x.9.4.4.4.x.C &       $ >.x.x.x.x.x.x.9.x.p , 2 2 2 2 2 2 2 2 $.",
"2 2 2 2 2 2 2 2 , y x.x.x.x.x.x.x.x.x.x.x.x.x.x.x.x.x.x.x.x.x.x.x.x.x.9.4.4.x.x.x.x.x.x.x.x.x.x.4.x.>.>   O ^ x.4.x.x.x.x.x.x.x.x.x.x.x.x.x.x.x.x.x.x.x.x.x.4.x.>.;     6 x.4.x.x.x.x.x.w.x.p , 2 2 2 2 2 2 2 2 $.",
"2 2 2 2 2 2 2 2 , y x.x.x.x.x.x.x.x.x.x.x.x.x.x.x.x.x.x.x.x.x.x.x.x.x.x.x.x.x.x.x.x.x.x.x.x.x.x.x.x %   .   % 4.x.x.x.x.x.x.x.x.x.x.x.x.x.x.x.x.x.x.x.x.x.x.x.4.4.x.>   s x.4.x.x.x.x.x.w.x.p , 2 2 2 2 2 2 1 2 $.",
"2 2 2 2 2 2 2 2 , y x.w.x.x.x.x.x.x.x.x.x.x.x.x.x.9.4.4.x.x.4.4.x.} e 8 6 9 s ) x.x.4.4.4.4.x.X.5 .           6 x.4.x.x.x.x.x.x.x.x.x.x.x.x.x.x.x.x.x.x.x.x.x.x.4.x.x.- $ =.4.x.x.x.x.x.w.x.p , 2 2 2 2 2 2 1 2 $.",
"2 2 2 2 2 2 2 2 , y x.x.x.x.x.x.x.x.x.x.x.x.x.9.9.x.x.x.>.4.x.x.0 O           o > ) x.>.x.>.0 +               O ) x.4.x.x.x.x.x.x.x.x.x.x.x.x.x.x.x.x.x.x.x.x.x.x.x.4.4.# - x.4.x.x.x.x.w.x.p , 2 2 2 2 2 2 1 2 $.",
"2 2 2 2 2 2 2 2 , y x.x.x.x.x.x.x.x.x.x.x.x.x.4.x.S 7 = $ % 5 5                   # B x.q %                     5 x.4.x.x.x.x.x.x.x.x.x.x.x.x.x.x.x.x.x.x.x.x.x.x.x.4.x.m X e x.4.x.x.x.w.x.p , 2 2 2 2 2 2 1 2 $.",
"2 2 2 2 2 2 2 2 , y x.x.x.x.x.x.x.x.x.x.x.x.9.x.9 o                                 $ *                         # >.9.x.x.x.x.x.x.x.x.x.x.x.x.x.x.x.x.x.x.x.x.x.x.x.x.4.x.> # 4.x.4.x.x.w.x.p , 2 2 2 2 2 2 1 2 $.",
"2 2 2 2 2 2 2 2 , u x.x.x.x.x.x.x.x.x.x.x.x.x.q           . X                                                     e x.4.x.x.x.x.x.x.x.x.x.x.x.x.x.x.x.x.x.x.x.x.x.x.x.x.x.>.+ 8 x.4.x.x.w.x.p , 2 2 2 2 2 2 1 2 $.",
"2 2 2 2 2 2 2 2 , y x.x.x.x.x.x.x.x.x.x.x.4.x.&     O : 8 B 9                                                     : x.4.x.x.x.x.x.x.x.x.x.x.x.x.x.x.x.x.x.x.x.x.x.x.x.x.4.x.7 + >.x.x.x.w.x.p , 2 2 2 2 2 2 1 2 $.",
"2 2 2 2 2 2 2 2 , y x.x.x.x.x.x.x.x.x.x.x.4.5   * 0 { x.x.x.e                                                     & x.x.x.x.x.x.x.x.x.x.x.x.x.x.x.x.x.x.x.x.x.x.x.x.x.x.4.x.O.O 0 x.9.x.w.x.p , 2 2 2 2 2 2 1 2 $.",
"2 2 2 2 2 2 2 2 , y x.w.x.x.x.x.x.x.x.x.) $ O q 4.x.x.4.4.x.C .                       > o                         o { x.x.x.x.x.x.x.x.x.x.x.x.x.x.x.x.x.x.x.x.x.x.x.x.x.4.>.x.: & x.x.x.w.x.p , 2 2 2 2 2 2 1 2 $.",
"2 2 2 2 2 2 2 2 , y x.w.x.x.x.x.x.4.x.C + & X.x.4.4.x.x.x.x.x.5                     + =.*                           z x.4.x.x.x.x.x.x.x.x.x.x.x.x.x.x.x.x.4.4.x.x.x.x.x.x.>.x.z O ) x.x.w.x.p , 2 2 2 2 2 2 1 2 $.",
"2 2 2 2 2 2 2 2 , y x.x.x.x.x.x.x.x.} O - x.x.x.x.x.x.x.x.x.x.9.5 .                 9 x.9                           0 x.4.x.x.x.x.x.x.x.x.x.x.x.x.x.x.x.i.x.x.x.{ G C ^ =.x.x.4.+ 7 x.4.w.x.p , 2 2 2 2 2 2 1 2 $.",
"2 2 2 2 2 2 2 2 , y x.x.x.x.x.x.x.x.& & x.4.4.x.x.x.x.x.x.x.9.4.x.d = O .     . . ; x.x.^ X                         7 x.4.x.x.x.x.x.x.x.x.x.x.x.x.x.9.x.x.) 8 & O o X o + - s x.: * x.4.w.x.p , 2 2 2 2 2 2 1 2 $.",
"2 2 2 2 2 2 2 2 , y x.x.x.x.x.4.x.7 O { x.x.x.x.x.x.x.x.x.x.x.x.x.x.x.{ B e q x ^ 4.x.x.>.#                         6 x.9.x.x.x.x.x.x.x.x.x.x.x.x.x.x.4.7 o                   : 0 # >.x.9.x.p , 2 2 2 2 2 2 1 2 $.",
"2 2 2 2 2 2 2 2 , y x.x.x.x.x.x.X.+ 9 x.4.x.x.x.x.x.x.x.x.x.x.x.x.4.4.x.x.x.x.x.x.x.4.4.x.=                         5 x.9.x.x.x.x.x.x.x.x.x.x.x.x.x.>.=                         + o B x.9.x.p , 2 2 2 2 2 2 1 2 $.",
"2 2 2 2 2 2 2 2 , y x.x.x.x.4.x.6 + 4.x.x.x.x.x.x.x.x.x.x.x.x.x.x.x.x.x.x.x.x.x.x.x.x.>.x.>                         5 x.4.x.x.x.x.x.x.x.x.x.x.x.4.x.:                               8 x.5.x.p , 2 2 2 2 2 2 1 2 $.",
"2 2 2 2 2 2 2 2 , y x.w.x.x.x.x.$ 7 x.4.x.x.4.x.x.9.4.x.x.x.x.x.x.x.x.x.x.x.x.x.x.x.x.4.x.7                         5 x.4.x.x.x.x.x.x.x.x.x.x.4.x.d                                 : x.5.x.p , 2 2 2 2 2 2 1 2 $.",
"2 2 2 2 2 2 2 2 , y x.x.x.x.x.B X m x.x.x.x.x.x.x.x.x.x.x.x.x.x.x.x.x.x.x.x.x.x.x.x.x.4.x.9                         5 x.4.x.x.x.x.x.x.x.x.x.x.4.x.5                                 * x.9.x.p , 2 2 2 2 2 2 1 2 $.",
"2 2 2 2 2 2 2 2 , u x.x.x.4.x.7 $ x.x.x.9.4.8 = * ; e x.x.4.4.x.x.x.x.x.x.x.x.x.x.x.x.4.x.q                         6 x.x.x.x.x.x.x.x.x.x.x.x.x.4.%                                 o { x.x.p , 2 2 2 2 2 2 1 2 $.",
"2 2 2 2 2 2 2 2 , u x.x.x.4.x.; ; x.x.x.4.=           = G x.>.x.x.x.x.x.x.x.x.x.x.x.x.9.x.s                         8 x.9.x.x.x.x.x.x.x.x.x.x.x.G .                                   q x.x.p , 2 2 2 2 2 2 2 2 $.",
"2 2 2 2 2 2 2 2 , u x.x.x.x.x.& > x.4.x.7               O x x.4.9.x.x.x.x.x.x.x.x.x.x.9.x.d                         0 x.x.x.x.x.x.x.x.x.x.x.x.x.e                                     5 x.x.p , 2 2 2 2 2 2 1 2 $.",
"2 2 2 2 2 2 2 2 , y x.x.x.x.x.$ 7 x.4._ O                 O x x.>.x.x.x.x.x.x.x.x.x.x.9.x.d                         d x.x.x.x.x.x.x.x.x.x.x.4.x.7                                     ; x.y.p , 2 2 2 2 2 2 1 2 $.",
"2 2 2 2 2 2 2 2 , y x.9.x.x.x.# 9 x.x.8                     $ X.9.4.x.x.x.x.x.x.x.x.x.9.x.e                       X ^ x.x.x.x.x.x.x.x.x.x.x.4.x.>                                     * x.x.p , 2 2 2 2 2 2 1 2 $.",
"2 2 2 2 2 2 2 2 , u x.x.=.B x + 0 x.x.*                       > x.4.x.x.x.x.x.x.x.x.x.4.x.e                       + >.x.x.x.x.x.x.x.x.x.x.x.x.x.=                                     $ >.x.p , 2 2 2 2 2 2 2 2 $.",
"2 2 2 2 2 2 2 2 , y x.a $ . .   8 x.X.+                       o G x.x.x.x.x.x.x.x.x.x.4.x.0                       * x.x.x.x.x.x.x.x.x.x.x.x.x.x.%                                     + -.x.p , 2 2 2 2 2 2 2 2 $.",
"2 2 2 2 2 2 2 2 , u 2.@         & x.) o                         6 x.x.x.x.x.x.x.x.x.x.4.x.9                       > x.>.x.x.x.x.x.x.x.x.x.x.x.4.$                                     O #.x.p , 2 2 2 2 2 2 1 2 $.",
"2 2 2 2 2 2 2 2 , i ' o         O >.{ o                         = x.x.x.x.x.x.x.x.x.x.4.x.7                       ; =.x.x.x.x.4.x.x.x.x.x.x.x.4.$                                     O O.x.p , 2 2 2 2 2 2 1 2 $.",
"2 2 2 2 2 2 2 2 , u &.O         % x.X.O                         % x.x.x.x.x.x.x.x.x.x.4.x.>                         + 7 x G 4.x.x.x.x.x.x.x.x.4.$                                     O =.x.p , 2 2 2 2 2 2 1 2 $.",
"2 2 2 2 2 2 2 2 , y x.=         8 x.x.&                         = x.x.x.x.x.x.x.x.x.x.9.x.-                             . . $ 5 ^ x.4.x.x.x.x.x.&                                     # >.x.p , 2 2 2 2 2 2 1 2 $.",
"2 2 2 2 2 2 2 2 , y x.v X     - >.>.x.0                         6 x.x.x.x.x.x.x.x.x.x.x.x.&                                     O 0 x.x.x.x.x.x.;                                     % 4.x.p , 2 2 2 2 2 2 1 2 $.",
"2 2 2 2 2 2 2 2 , u 3.x.; + 0 =.4.4.4.4.&                     O ^ x.x.x.x.x.x.x.x.x.x.x.4.$                                         7 x.4.x.4.x.6                                     = x.x.p , 2 2 2 2 2 2 1 2 $.",
"2 2 2 2 2 2 2 2 , y y.x.7 % x.x.x.x.x.x.) &                   0 x.4.x.x.x.x.x.x.x.x.x.x.X.O                                           q x.4.4.x.0                                     : x.x.p , 2 2 2 2 2 2 1 2 $.",
"2 2 2 2 2 2 2 2 , y y.x.B o x x.x.x.x.x.x.>.e - o .     . $ q x.>.x.x.x.x.x.x.x.x.x.x.x.^ X                                           # =.x.4.x.m .                                   5 x.y.p , 2 2 2 2 2 2 1 2 $.",
"2 2 2 2 2 2 2 2 , y x.4.x.* - x.>.x.x.x.4.4.x.x.{ z q q x >.x.4.4.x.x.x.x.x.x.x.x.x.4.x.x                                               q x.4.x.>.$                                   9 x.y.p , 2 2 2 2 2 2 1 2 $.",
"2 2 2 2 2 2 2 2 , y x.4.x.e o C x.4.x.x.x.x.4.x.x.x.x.x.x.x.9.x.x.x.x.x.x.x.x.x.x.x.4.x.9                                               5 x.4.x.x.5                                 . m x.x.p , 2 2 2 2 2 2 1 2 $.",
"2 2 2 2 2 2 2 2 , y x.x.4.x.* * x.4.x.x.x.x.x.x.x.x.x.x.x.x.x.x.x.x.x.x.x.x.x.x.x.x.4.x.5                                               : x.>.x 7 $                                 O =.x.x.p , 2 2 2 2 2 2 1 2 $.",
"2 2 2 2 2 2 2 2 , y x.x.9.x.G o > x.x.4.4.x.x.x.x.x.x.x.x.x.x.x.x.x.x.x.x.x.x.x.x.x.x.x.-                                               = 7 $ .                                     * x.9.x.p , 2 2 2 2 2 2 1 2 $.",
"2 2 2 2 2 2 2 2 , y x.x.x.>.x.e X = C x.x.x.x.4.x.x.x.x.x.x.x.x.x.x.x.x.x.x.x.x.x.x.x.x.$                                                                                           > x.5.x.p , 2 2 2 2 2 2 1 2 $.",
"2 2 2 2 2 2 2 2 , y x.x.x.4.4.x.6 o X - q =.x.x.x.x.x.x.x.x.x.x.9.9.9.x.x.x.x.x.x.x.x.>.O                                             o $ X       .                                 9 x.5.x.p , 2 2 2 2 2 2 1 2 $.",
"2 2 2 2 2 2 2 2 , y x.x.x.x.x.w.>.x 6 $ X O = > 0 m { =.4.x.x.x.x.x.x.x.x.4.=.{ b q 6 - .                                             - 5 : - - ; > $                             $ m x.4.x.p , 2 2 2 2 2 2 1 2 $.",
"2 2 2 2 2 2 2 2 , y x.x.x.x.x.4.4.x.x.4.G 0 > * # o O # $ & * * * * & & % $ + o X X o # = - = = * = * = & X                       X = 5 > 5 5 5 5 5 : $ X     . o O # $ & - 5 9 z X.4.4.5.x.p , 2 2 2 2 2 2 1 2 $.",
"2 2 2 2 2 2 2 2 , y x.w.x.x.x.x.4.4.4.x.x.x.x.x.>.^ d 0 8 7 6 5 : : ; - - = - ; : 5 6 6 5 5 5 5 5 5 5 5 5 ; % X                 # ; 5 > > > 5 5 6 5 6 7 7 8 9 q e z C _ >.x.x.x.x.x.4.x.w.x.p , 2 2 2 2 2 2 1 2 $.",
"2 2 2 2 2 2 2 2 , y x.x.x.x.x.x.x.x.x.x.x.x.x.x.x.x.x.x.x.x.x.x.x.x.x.x.x.x.>.>.X.) ) G G C B B m m x x x x m d 0 7 : = = > 8 e B B B C C G ^ ) ) X.=.>.4.x.x.x.x.x.x.x.x.x.x.x.x.x.x.x.w.x.p , 2 2 2 2 2 2 1 2 $.",
"2 2 2 2 2 2 2 2 , y x.x.x.x.x.x.x.x.x.x.x.x.x.x.x.x.x.x.4.4.4.4.4.4.x.4.4.x.x.x.x.x.x.x.x.x.x.x.x.x.x.x.x.x.x.x.x.x.x.x.x.x.x.x.x.x.x.x.x.x.x.x.x.x.x.x.4.x.x.4.4.4.x.x.x.x.x.x.x.x.x.x.w.x.p , 2 2 2 2 2 2 1 2 $.",
"2 2 2 2 2 2 2 2 , u x.x.x.x.x.x.x.x.x.x.x.x.x.x.x.x.x.x.x.x.x.x.x.x.x.x.x.x.x.x.x.x.x.x.x.x.x.x.x.x.x.x.x.x.x.x.x.9.4.x.x.4.4.x.x.x.x.x.x.x.x.x.x.x.x.x.x.x.x.x.x.x.x.x.x.x.x.x.x.x.x.x.w.x.p , 2 2 2 2 2 2 1 2 $.",
"2 2 2 2 2 2 2 2 , u x.x.x.x.x.x.x.x.x.x.x.x.x.x.x.x.x.x.x.x.x.x.x.x.x.x.x.x.x.x.x.x.x.x.x.x.x.x.x.x.x.x.x.x.x.x.x.x.x.x.x.x.x.x.x.x.x.x.x.x.x.x.x.x.x.x.x.x.x.x.x.x.x.x.x.x.x.x.x.x.x.x.x.x.p , 2 2 2 2 2 2 1 2 $.",
"2 2 2 2 2 2 2 2 , y x.1.1.1.1.1.1.1.1.1.1.1.1.1.1.1.1.1.1.1.1.1.1.1.1.1.1.1.1.1.1.1.1.1.1.1.1.1.1.1.1.1.1.1.1.1.1.1.1.1.1.1.1.1.1.1.1.1.1.1.1.1.1.1.1.1.1.1.1.1.1.1.1.1.1.1.1.1.1.1.1.1.1.x.i , 2 2 2 2 2 2 1 2 $.",
"2 2 2 2 2 2 2 2 2 2 4 3 3 3 3 3 3 3 3 3 4 3 3 4 3 3 3 3 3 3 3 3 4 3 3 3 3 3 3 3 3 3 3 3 4 3 3 3 3 3 3 3 3 3 3 3 3 3 3 3 3 3 3 3 3 3 3 3 3 3 3 3 3 3 3 3 3 3 3 3 3 3 3 3 4 3 3 3 3 3 3 3 3 4 3 2 2 2 2 2 2 2 1 2 $.",
"2 2 2 2 2 2 2 2 2 2 1 1 1 1 1 1 1 1 1 1 1 1 1 1 1 1 1 1 1 1 1 1 1 1 1 1 1 1 1 1 1 1 1 1 1 1 1 1 1 1 1 1 1 1 1 1 1 1 1 1 1 1 1 1 1 1 1 1 1 1 1 1 1 1 1 1 1 1 1 1 1 1 1 1 1 1 1 1 1 1 1 1 1 1 2 2 2 2 2 2 2 2 1 2 $.",
"2 2 2 2 2 2 2 2 2 2 2 2 2 2 2 2 2 2 2 2 2 2 2 2 2 2 2 2 2 2 2 2 2 2 2 2 2 2 2 2 2 2 2 2 2 2 2 2 2 2 2 2 2 2 2 2 2 2 2 2 2 2 2 2 2 2 2 2 2 2 2 2 2 2 2 2 2 2 2 2 2 2 2 2 2 2 2 2 2 2 2 2 2 2 2 2 2 2 2 2 2 2 1 2 $.",
"2 2 2 2 2 2 2 2 2 2 2 2 2 2 2 2 2 2 2 2 2 2 2 2 2 2 2 2 2 2 2 2 2 2 2 2 2 2 2 2 2 2 2 2 2 2 2 2 2 2 2 2 2 2 2 2 2 2 2 2 2 2 2 2 2 2 2 2 2 2 2 2 2 2 2 2 2 2 2 2 2 2 2 2 2 2 2 2 2 2 2 2 2 2 2 2 2 2 2 2 2 2 2 3 $.",
", , , , , , , , , , , , , , , , , , , , , , , , , , , , , , , , , , , , , , , , , , , , , , , , , , , , , , , , , , , , , , , , , , , , , , , , , , , , , , , , , , , , , , , , , , , , , , , , , , , , , 1 , 1 @.",
"t t t t t t t t t t t t t t t t t t t t t t t t t t t t t t t t t t t t t t t t t t t t t t t t t t t t t t t t t t t t t t t t t t t t t t t t t t t t t t t t t t t t t t t t t t t t t t t t t t t t t t t y 1."
};
