/* XPM */
static char *_6045821dff94540f6184b7498973315matYrCKqn1lcmn3m[] = {
/* columns rows colors chars-per-pixel */
"25 25 117 2 ",
"   c #FFDB4C",
".  c #FFDB4E",
"X  c #FFDC50",
"o  c #FFDC51",
"O  c #FFDC52",
"+  c #FFDC53",
"@  c #FFDD53",
"#  c #FFDD54",
"$  c #FFDD55",
"%  c #FFDD56",
"&  c #FFDD57",
"*  c #FFDE58",
"=  c #FFDE59",
"-  c #FFDE5A",
";  c #FFDE5B",
":  c #FFDF5C",
">  c #FFDF5D",
",  c #FFDF5E",
"<  c #FFE060",
"1  c #FFE061",
"2  c #FFE062",
"3  c #FFE269",
"4  c #FFE26A",
"5  c #FEE36D",
"6  c #FEE371",
"7  c #FEE472",
"8  c #FFE472",
"9  c #FEE473",
"0  c #FFE477",
"q  c #FEE577",
"w  c #FFE578",
"e  c #FEE57B",
"r  c #FEE67A",
"t  c #FEE67B",
"y  c #FEE67D",
"u  c #FEE886",
"i  c #FEE88A",
"p  c #FEE98A",
"a  c #FEEA8F",
"s  c #FEEA90",
"d  c #FDEA93",
"f  c #FEEB92",
"g  c #FEEB94",
"h  c #FDEB96",
"j  c #FEEC95",
"k  c #FEEC99",
"l  c #FEEC9A",
"z  c #FEEC9B",
"x  c #FDEFA3",
"c  c #FEEEA2",
"v  c #FDEFA4",
"b  c #FDEFA7",
"n  c #FEEFA6",
"m  c #FDF0A9",
"M  c #FEF0A8",
"N  c #FDF0AA",
"B  c #FDF0AB",
"V  c #FDF2B3",
"C  c #FCF3B7",
"Z  c #FDF3B7",
"A  c #FDF3B9",
"S  c #FDF3BA",
"D  c #FDF3BC",
"F  c #FDF4BD",
"G  c #FCF4BE",
"H  c #FDF4BE",
"J  c #FDF5BE",
"K  c #FDF4BF",
"L  c #FDF5BF",
"P  c #FCF4C0",
"I  c #FDF5C0",
"U  c #FDF5C1",
"Y  c #FCF5C3",
"T  c #FDF5C3",
"R  c #FDF6C3",
"E  c #FCF5C4",
"W  c #FDF6C4",
"Q  c #FCF6C6",
"!  c #FDF6C6",
"~  c #FCF6C7",
"^  c #FCF6C8",
"/  c #FCF7C9",
"(  c #FCF8CD",
")  c #FDF8CE",
"_  c #FCF9CE",
"`  c #FCF8CF",
"'  c #FDF8CF",
"]  c #FCF8D0",
"[  c #FCF9D0",
"{  c #FCF8D1",
"}  c #FCF9D1",
"|  c #FCF9D2",
" . c #FCF9D3",
".. c #FCF9D4",
"X. c #FCF9D5",
"o. c #FCF9D6",
"O. c #FCF9D7",
"+. c #FCFAD6",
"@. c #FCFAD7",
"#. c #FCFAD8",
"$. c #FCFAD9",
"%. c #FCFBD9",
"&. c #FCFADA",
"*. c #FCFADB",
"=. c #FCFBDB",
"-. c #FCFADC",
";. c #FCFBDC",
":. c #FCFBDD",
">. c #FDFBDF",
",. c #FDFBE0",
"<. c #FDFBE1",
"1. c #FDFBE2",
"2. c #FCFCE0",
"3. c #FEFCE8",
"4. c #FEFCE9",
"5. c #FDFCEA",
"6. c #FEFDF0",
/* pixels */
"..............................................| 3.",
"..............................................| 3.",
"......................Q x $.| ................| 3.",
"..................| ;.B 3 | ..................| 3.",
"..................| $.p X D $.| ..............| 3.",
"....................` 3 . h ;.| ..............| 3.",
"................| $.V $ $ 6 ..................| 3.",
"................| ;.a X - - F $.| ............| 3.",
"....$.$.$.$.$.$.$...3 $ : X k 2...$.$.$.$.$.$.| 3.",
"..Q A R F F F F R B - - - $ 7 R F F F F F F A ^ 3.",
"..F 7 $ : : : : : - - - - - - : : : : : - - s ` 3.",
"| $.` p X $ - - - - - - - - - - - - - X 1 B $.| 3.",
"..| ..$.B 1 X - - - - - - - - - - - X w Q $.| | 3.",
"......| $.Q w X - - - - - - - - $ - k ....| ..| 3.",
"........| $...h - - - - - - - $ 3 Z $...| ....| 3.",
"..........| $.F - - - - - - - X w $.| ........| 3.",
"..........| ;.j X - - - - - - - : R ..| ......| 3.",
"..............7 $ - - $ - $ - - X x ;.| ......| 3.",
"........| $.F - - $ X s Z 5 X : X y $.| ......| 3.",
"........| ;.k X $ 1 B $.$.` u $ $ 1 Q ..| ....| 3.",
"............q . q R $.| | ..$.n : . n ;.| ....| 3.",
"......| $.F - a ..$.| ........;.R 3 w $.| ....| 3.",
"......| $.B n ;...| ..........| $.` s ^ ......| 3.",
"| | | | | | ..| | | | | | | | | | ....| | | | ` 3.",
"<.<.<.<.<.<.<.<.<.<.<.<.<.<.<.<.<.<.<.<.<.<.<.;.6."
};
