/* XPM */
static char *xpm___5_1730104244[] = {
/* columns rows colors chars-per-pixel */
"25 25 107 2 ",
"   c #FF2527",
".  c #FF2628",
"X  c #FF2729",
"o  c #FF292B",
"O  c #FF2A2B",
"+  c #FF2A2C",
"@  c #FF282F",
"#  c #FF2D2E",
"$  c #FF2E2E",
"%  c #FF302F",
"&  c #FF2930",
"*  c #FF3030",
"=  c #FF3130",
"-  c #FF3131",
";  c #FF3232",
":  c #FF3333",
">  c #FF3433",
",  c #FF3634",
"<  c #FF3736",
"1  c #FF3539",
"2  c #FF383B",
"3  c #FF4944",
"4  c #FE4A45",
"5  c #FE5750",
"6  c #FE5C53",
"7  c #FE675D",
"8  c #FE6C61",
"9  c #FE7B6D",
"0  c #FE7C6E",
"q  c #FE7A71",
"w  c #FFB174",
"e  c #FFB376",
"r  c #FFB477",
"t  c #FFB578",
"y  c #FEB87B",
"u  c #FFCF69",
"i  c #FFCF6B",
"p  c #FFD06A",
"a  c #FFD06B",
"s  c #FFD16B",
"d  c #FFD66A",
"f  c #FFD66B",
"g  c #FFD06C",
"h  c #FFD16C",
"j  c #FFD06D",
"k  c #FFD16F",
"l  c #FFD76E",
"z  c #FFD76F",
"x  c #FFD171",
"c  c #FFD270",
"v  c #FFD371",
"b  c #FFD372",
"n  c #FE9280",
"m  c #FE9285",
"M  c #FD9985",
"N  c #FDAB94",
"B  c #FDAF97",
"V  c #FDBDA3",
"C  c #FDBFA4",
"Z  c #FEC183",
"A  c #FDCBAE",
"S  c #FDCEB1",
"D  c #FDDBBB",
"F  c #FDEDB5",
"G  c #FDEDB6",
"H  c #FDEEB7",
"J  c #FCE2C1",
"K  c #FCE6C4",
"L  c #FCE9C7",
"P  c #FCF4C8",
"I  c #FCF0CC",
"U  c #FCF4CC",
"Y  c #FCF7CD",
"T  c #FCF7CE",
"R  c #FCF3D0",
"E  c #FCF7D1",
"W  c #FCF6D2",
"Q  c #FCF7D2",
"!  c #FCF7D3",
"~  c #FCF8D1",
"^  c #FCF8D2",
"/  c #FCF8D3",
"(  c #FCF9D3",
")  c #FCF8D4",
"_  c #FCF9D4",
"`  c #FCF9D5",
"'  c #FCFAD5",
"]  c #FCFBD5",
"[  c #FCF9D6",
"{  c #FCF9D7",
"}  c #FCFAD6",
"|  c #FCFBD6",
" . c #FCFAD7",
".. c #FCFCD6",
"X. c #FCFCD7",
"o. c #FCFDD7",
"O. c #FCFBD9",
"+. c #FCFED8",
"@. c #FCFFD9",
"#. c #FCFFDA",
"$. c #FCFFDB",
"%. c #FCFFDC",
"&. c #FCFFDD",
"*. c #FCFFDE",
"=. c #FCFFDF",
"-. c #FCFFE0",
";. c #FFFFFC",
/* pixels */
"_ _ _ _ _ _ _ _ _ _ _ _ _ _ _ _ _ _ _ _ _ _ / _ ;.",
"_ _ _ _ _ _ _ _ _ _ _ _ _ _ _ _ _ _ _ _ _ _ ) O.;.",
"_ _ _ _ _ _ _ _ _ _ _ / / _ _ _ _ _ _ _ _ _ _ _ ;.",
"_ _ _ _ _ _ _ _ _ _ _ ..../ _ _ _ _ _ _ _ _ / _ ;.",
"_ _ _ _ _ _ _ _ _ ) ..L J +./ _ _ _ _ _ _ _ _ ) ;.",
"_ _ _ _ _ _ _ _ _ Q -.n 0 -.Q _ _ _ _ _ _ _ _ O.;.",
"_ _ _ _ _ _ _ _ ) _ R 4 < K +./ _ _ _ _ _ _ _ _ ;.",
"_ _ _ _ _ _ _ _ Q *.B o X M *.Q _ _ _ _ _ _ _ _ ;.",
"_ _ _ _ _ _ _ _ _ _ 6 o # 4 I _ ) ) _ _ _ _ / _ ;.",
"_ _ _ _ _ _ _ Q *.C o - - X N *.Q _ _ _ _ _ _ O.;.",
"_ _ _ _ _ _ _ _ +.8 X < : o 5 _ _ _ _ _ _ _ / _ ;.",
"_ _ _ _ _ _ Q +.S - - - - - o C *.Q _ _ _ _ / _ ;.",
"_ _ _ _ _ _ Q *.0   > - - > X 7 +.) _ _ _ _ ) O.;.",
"_ _ _ _ _ ) +.D > # % % - # % # A +.Q _ _ _ Q _ ;.",
"_ _ _ _ _ Q *.m o 2 1 1 1 1 2 & q *.) _ _ _ _ _ ;.",
"_ _ _ _ _ _ / Z e t r r r r r r y Y _ _ _ _ ) ) ;.",
"_ _ _ _ _ O.Y z f f f z f f z f z P O._ _ _ / _ ;.",
"_ _ _ _ _ _ Y b i g g g g i i s g P _ _ _ _ _ _ ;.",
"_ _ _ _ _ _ Y b s s g g g g g s b P O._ _ _ _ _ ;.",
"_ _ _ _ _ _ Y b u s s g g s s s g P _ _ _ _ _ O.;.",
"_ _ _ _ _ _ _ H F F F F F F F F F Q _ _ _ _ / _ ;.",
"_ _ _ _ _ _ _ O.O.+.O.O.O.O.O.O.O._ _ _ _ _ _ _ ;.",
"_ _ _ _ _ _ _ _ / / / / / / _ _ _ _ _ _ _ _ _ _ ;.",
"_ _ _ _ _ _ _ _ _ _ _ _ _ _ _ ) _ _ _ _ _ _ _ O.;.",
"_ _ _ _ O._ _ _ _ O.) ) _ _ O.) _ _ _ _ O.) ) O.;."
};
