/* XPM */
static char *xpm___3_1730104035[] = {
/* columns rows colors chars-per-pixel */
"25 25 98 2 ",
"   c #060606",
".  c #0C0C0C",
"X  c #0E0E0E",
"o  c gray6",
"O  c gray7",
"+  c #151515",
"@  c #161616",
"#  c #191919",
"$  c gray10",
"%  c #1B1B1B",
"&  c #202020",
"*  c gray13",
"=  c #222222",
"-  c #232323",
";  c gray16",
":  c #2A2A2A",
">  c #2C2C2C",
",  c #2D2D2D",
"<  c gray19",
"1  c #313131",
"2  c #353535",
"3  c #3C3C3C",
"4  c gray26",
"5  c gray28",
"6  c gray29",
"7  c #4B4B4B",
"8  c #4C4C4C",
"9  c gray30",
"0  c #4E4E4E",
"q  c gray31",
"w  c #505050",
"e  c #585858",
"r  c gray36",
"t  c #5F5F5F",
"y  c #606060",
"u  c #626262",
"i  c gray39",
"p  c #646464",
"a  c #656565",
"s  c gray40",
"d  c gray44",
"f  c #777777",
"g  c #808080",
"h  c #848484",
"j  c gray52",
"k  c #888888",
"l  c #8E8E8E",
"z  c gray59",
"x  c #989898",
"c  c gray60",
"v  c #A4A4A4",
"b  c #A5A5A5",
"n  c #A9A9A9",
"m  c #AAAAAA",
"M  c gray70",
"N  c gray71",
"B  c #B6B6B6",
"V  c #B7B7B7",
"C  c #B9B9B9",
"Z  c gray73",
"A  c #BCBCBC",
"S  c gray74",
"D  c gray",
"F  c gray75",
"G  c #C0C0C0",
"H  c #C1C1C1",
"J  c gray76",
"K  c gray77",
"L  c #C5C5C5",
"P  c #C6C6C6",
"I  c gray78",
"U  c #C8C8C8",
"Y  c gray79",
"T  c #CACACA",
"R  c #CBCBCB",
"E  c gray80",
"W  c #CDCDCD",
"Q  c #CECECE",
"!  c gray81",
"~  c #D0D0D0",
"^  c gray82",
"/  c #D2D2D2",
"(  c LightGray",
")  c gray83",
"_  c #D5D5D5",
"`  c gray84",
"'  c #D7D7D7",
"]  c #D8D8D8",
"[  c gray85",
"{  c #DADADA",
"}  c gray86",
"|  c gainsboro",
" . c #DDDDDD",
".. c gray87",
"X. c #DFDFDF",
"o. c gray88",
"O. c #E2E2E2",
"+. c gray89",
/* pixels */
"T T T T T T T T T T T T T T T T T T T T T T T T ` ",
"T T T T T I T T T T T T T I T T T T T I T T T I ^ ",
"T T T E F 3 F E T T I ` a f { I T T ` a f { I I ` ",
"T T T E F @ N E T T I { 7 y { I T I { 7 t { I T ` ",
"T T T E F $ N ^ T T I { 9 a | I T I { 9 y | I I ` ",
"T T T E F $ N ^ T T I { 9 y | I T I { 7 a | I I ` ",
"T T T E F $ N ^ I T I { 9 a | I T I { 9 a { I T ^ ",
"T T T E F @ N E T T I { 9 y | I T I { 7 a | I I ` ",
"T T T E F $ N ^ T T I { 7 a | I T I { 9 y | I I ` ",
"T T T T F $ N E I I I { 7 y { I T I { 7 a | I T ^ ",
"I E ` { I $ F ` ^ ^ ^ O.w a O.E ^ E | 9 a | E T ` ",
"E Z h l h O h c z c c m 3 w M b b m F 4 r H N F ` ",
"^ b 2 2 1   , 1 , ; ; , o O ; = = = = . o = o 7 { ",
"T T E E Z $ N T I I I ^ 7 t ^ F H Z E 7 r E N F ` ",
"T T T E F $ N ^ T T I { 9 a | T E T | 9 y O.T T ^ ",
"T T T E F $ N E T T T { 9 y { T T I { 7 a { I T ` ",
"T T T E F $ N E I T I { 7 y | I T I { 7 y | T I ` ",
"T T T E F $ N ^ T T I { 9 a { I T I { 9 a | I I ` ",
"T T T E F $ N ^ T T I { 9 a | I T I { 7 a | I T ` ",
"T T T E F $ N E T T I { 7 y | T T I { 9 y { I I ^ ",
"T T T E F $ N ^ T T I ` 9 a { I T I { 9 a | T I ` ",
"T T T E F O Z E T T I { 7 y | I T I { 7 t | I I ` ",
"T T T T H 7 F E T T I ` d f ` T T I ` d h ` T I ` ",
"T T I I T T T I I I T T E E I T I I I T I I I I ` ",
"` ` ` ` ` ` ^ ` ` ` ` ` ` ` ` ` ` ` ` ` ` ` ` ` | "
};
