/* XPM */
static char *c68c3fc37b634ee0f64546d17ce350dfrYEIJcwllmsGBgGD[] = {
/* columns rows colors chars-per-pixel */
"32 32 161 2 ",
"   c #2C292E",
".  c #262C36",
"X  c #2F2F36",
"o  c #232C3A",
"O  c #333136",
"+  c #32333B",
"@  c #403739",
"#  c #413B3E",
"$  c #3A3C46",
"%  c #353C48",
"&  c #403F45",
"*  c #444247",
"=  c #4D4242",
"-  c #484448",
";  c #514340",
":  c #5E4B44",
">  c #5D4C48",
",  c #545359",
"<  c #644B42",
"1  c #6D4F43",
"2  c #6B5145",
"3  c #62514D",
"4  c #6C5348",
"5  c #745546",
"6  c #72564A",
"7  c #75594C",
"8  c #7B5B4B",
"9  c #755B51",
"0  c #785E54",
"q  c #7B6053",
"w  c #545B66",
"e  c #615F63",
"r  c #666266",
"t  c #6D6462",
"y  c #69666A",
"u  c #736764",
"i  c #756966",
"p  c #736C6D",
"a  c #796B68",
"s  c #767476",
"d  c #757579",
"f  c #79767A",
"g  c #76787E",
"h  c #7C797C",
"j  c #815F4D",
"k  c #83614F",
"l  c #856353",
"z  c #8A6654",
"x  c #8E6956",
"c  c #83675A",
"v  c #8E6C5B",
"b  c #916A56",
"n  c #946E5A",
"m  c #96715D",
"M  c #99735F",
"N  c #826D64",
"B  c #9B7561",
"V  c #938078",
"C  c #9A867D",
"Z  c #787C83",
"A  c #8C8585",
"S  c #8F8887",
"D  c #80838A",
"F  c #8C888A",
"G  c #938E8E",
"H  c #8E9299",
"J  c #9B9A9D",
"K  c #A7A09F",
"L  c #AEA19C",
"P  c #9EA1A6",
"I  c #9FA2A8",
"U  c #A5A0A0",
"Y  c #A1A4AA",
"T  c #A7A9AF",
"R  c #B2A8A6",
"E  c #A9ACB1",
"W  c #BFB7B3",
"Q  c #B2B6BB",
"!  c #B9BBBF",
"~  c #C3BAB6",
"^  c #C8BEBA",
"/  c #D3C4BD",
"(  c #C1C4C7",
")  c #D4C7C0",
"_  c #D6CAC3",
"`  c #D9CCC6",
"'  c #D6CECB",
"]  c #DBCFC9",
"[  c #D6D0CE",
"{  c #DDD3CD",
"}  c #DED5D1",
"|  c #DFD8D4",
" . c #DADBDC",
".. c #E2D4CC",
"X. c #E0D7D2",
"o. c #E2DAD6",
"O. c #E3DCD9",
"+. c #E3DDD9",
"@. c #E3DCD8",
"#. c #E3DDDA",
"$. c #E4DCD9",
"%. c #E5DCD9",
"&. c #E4DDD9",
"*. c #E5DDD9",
"=. c #E6DDD8",
"-. c #E6DED9",
";. c #E4DDDA",
":. c #E5DDDA",
">. c #E4DDDB",
",. c #E5DEDB",
"<. c #E5DFDB",
"1. c #E4DEDB",
"2. c #E6DEDA",
"3. c #E6DFDB",
"4. c #E5DFDC",
"5. c #E5DFDD",
"6. c #E6DFDC",
"7. c #E3DCD9",
"8. c #E8DED9",
"9. c #E8DFDB",
"0. c #E5E0DC",
"q. c #E7E0DC",
"w. c #E6E0DD",
"e. c #E7E0DD",
"r. c #E6E0DC",
"t. c #E7E1DE",
"y. c #E7E1DD",
"u. c #E9E1DD",
"i. c #EBE1DD",
"p. c #E9E1DE",
"a. c #E8E1DF",
"s. c #E9E2DF",
"d. c #ECE3DD",
"f. c #EDE3DE",
"g. c #EAE2DE",
"h. c #E3E5E6",
"j. c #EBE5E1",
"k. c #EBE5E2",
"l. c #ECE5E3",
"z. c #EDE6E3",
"x. c #EAE6E5",
"c. c #EDE6E4",
"v. c #EDE7E4",
"b. c #EDE5E1",
"n. c #F3EAE6",
"m. c #F1EBE9",
"M. c #F2EFED",
"N. c #F3F1EF",
"B. c #F6F2F1",
"V. c #F3F2F2",
"C. c #F8F6F6",
"Z. c #FAF8F7",
"A. c #FCFAF8",
"S. c gray99",
"D. c #FDFDFC",
"F. c #FCFCFD",
"G. c #FDFDFD",
"H. c #FEFEFE",
"J. c #FFFFFE",
"K. c white",
"L. c #FFFFFF",
/* pixels */
"t.s.o.*.t.*.4.4.*.4.4.*.@.*.*.4.t.4.t.*.4.4.t.t.t.t.4.*.*.X.@.*.",
"j.c.X.X.@.@.o.@.o.o.o.*.*.*.*.o.@.@.@.o.@.@.} { { { o.@.@.{ o.@.",
"*.t.{ X.@.@.@.@.@.@.o.j.z.c.s.o.@.o.o.o.*.o.) _ _ / { *.@.} o.} ",
"X.o.{ } ] ` _ ` o.@.@.t.t.s.4.@.*.@.@.@.@.o.) _ ) ) } *.@.} o.} ",
"_ o.} { ) ) / / o.@.@.*.o.} { { } { X.o.@.@.} } } X.o.@.@.{ o.@.",
"_ o.} { ` ` ) _ o.*.} { { o.*.*.*.*.o.{ { { *.o.o.@.@.@.@.X.o.*.",
"} @.} o.o.o.o.o.*.{ { m.A.K.K.K.K.K.K.K.B.*.{ *.o.o.@.@.@.} o.@.",
"*.@.} o.*.@.@.s.) } K.K.K.K.K.K.K.K.K.K.K.K.x.W *.o.o.*.s.o.o.@.",
"@.@.} o.*.o.*.` , D K.K.K.K.K.K.K.K.K.K.K.K.Q $ R 9.o.t.c.*.o.@.",
"@.@.o.s.t.@.} V 1 f K.K.K.K.K.K.K.K.K.K.K.K.I < c ^ *.@.s.o.o.*.",
"@.o.o.s.4.*.L l k f K.K.K.K.K.K.K.K.K.K.K.K.Y 4 z C o.@.o.} { { ",
"@.@.{ o.*.{ N x 8 s K.K.K.K.K.K.K.K.K.K.K.K.Y 4 n 0 ~ 9.@.} / / ",
"o.o.{ X.t.~ 9 n 8 h K.K.K.K.K.K.K.K.K.K.K.K.Y 2 n 5 A s.o.} _ / ",
"_ ) ] o.s.K > z 8 f K.K.K.K.K.K.K.K.K.K.K.K.P < z 4 p X.@.{ X.o.",
"/ / ] | f.G + & O d K.K.K.K.K.K.K.K.K.K.K.K.Y O & + e } *.X.o.@.",
"{ ] { | f.A 6 c < d K.K.K.K.K.K.K.K.K.K.K.K.Y ; q l u ' z.*.o.o.",
"*.*.} | f.A 6 M j s K.K.K.K.K.K.K.K.K.K.K.K.Y 4 b x u ' s.o.o.@.",
"*.@.] _ ..A 6 B 8 h K.K.K.K.K.K.K.K.K.K.K.K.P < z x u ' *.{ o.@.",
"@.o._ / ..A 6 m 8 f K.K.K.K.K.K.K.K.K.K.K.K.Y 2 n z u ' *.} o.@.",
"@.o._ / ..A 7 m k h K.K.K.K.K.K.K.K.K.K.K.K.I 4 n l u ' t.} o.o.",
"4.o.{ } f.A 7 m 6 d K.K.K.K.K.K.K.K.K.K.K.K.P : n b u ) ] ` o.X.",
"j.*.{ o.z.A # - X g K.K.K.K.K.K.K.K.K.K.K.K.T + * = r ) ) / o.o.",
"t.@.{ *.n.G = 7 5 h K.K.K.K.K.K.K.K.K.K.Z.K.Y < l 3 y ` ` ` o.@.",
"@.@.} *.n.A 7 n 8 f K.K.K.K.K.K.K.K.K.K.S.K.Y 1 M m a [ 4.} o.@.",
"*.*.{ o.z.A 6 n 8 h K.K.K.K.K.K.K.K.K.K.K.K.P < m z u ' *.{ o.@.",
"o.o.{ | f.A 6 n 5 h K.K.K.K.K.K.K.K.K.K.K.K.Y < m z u ' 7.{ o.s.",
"@.@.{ } f.A 7 M j f K.K.K.K.K.K.K.K.K.K.K.K.Y 2 n z u ' s.{ o.j.",
"o.@.X.o.z.A 8 v @ Z K.K.K.K.K.K.K.K.K.K.K.K.E   7 b u } n.o.X.o.",
"o.@.o.s.n.S = + w  .K.K.K.K.K.K.K.K.K.K.K.K.V.Z . = t { j.} X.o.",
"@.@.o.*.n.F o H Z.K.K.K.K.K.K.K.K.K.K.K.K.K.K.K.! % , { @.{ o.*.",
"o.o.X.o.s.U ( K.K.K.K.K.K.K.K.K.K.K.K.K.K.K.K.K.K.h.J { *.X.o.o.",
"M.N.C.C.C.Z.K.K.K.K.K.K.K.K.K.K.K.K.K.K.K.K.K.K.K.K.K.C.Z.C.B.M."
};
