/* XPM */
static char *aaaab1c61f08485cee1cae14a7717bedbMSbPTnJb0uONww0[] = {
/* columns rows colors chars-per-pixel */
"33 33 151 2 ",
"   c #1A1E26",
".  c #1B1F28",
"X  c #1D232D",
"o  c #1F2531",
"O  c #23262D",
"+  c #212733",
"@  c #252B36",
"#  c #2A2D36",
"$  c #272E39",
"%  c #2B2F39",
"&  c #2D313B",
"*  c #30333C",
"=  c #39353B",
"-  c #3D393E",
";  c #413A3C",
":  c #333740",
">  c #363B47",
",  c #3D3C42",
"<  c #373D48",
"1  c #383E49",
"2  c #413E43",
"3  c #3B414B",
"4  c #454145",
"5  c #4A4346",
"6  c #43434B",
"7  c #4C474A",
"8  c #4E494C",
"9  c #544744",
"0  c #514B4F",
"q  c #5D4F4C",
"w  c #454751",
"e  c #444953",
"r  c #4C4E56",
"t  c #4B525C",
"y  c #53555D",
"u  c #675148",
"i  c #645653",
"p  c #665855",
"a  c #6C5B57",
"s  c #695B58",
"d  c #7E6357",
"f  c #5B5B62",
"g  c #676466",
"h  c #6B6A6E",
"j  c #6E6D72",
"k  c #706D70",
"l  c #717176",
"z  c #76757A",
"x  c #787679",
"c  c #7A787D",
"v  c #825F4F",
"b  c #85614F",
"n  c #866351",
"m  c #8A6654",
"M  c #8D6956",
"N  c #86675A",
"B  c #8E6A59",
"V  c #906A57",
"C  c #926D5B",
"Z  c #95705E",
"A  c #99725F",
"S  c #967362",
"D  c #9A7563",
"F  c #9E7966",
"G  c #9F7B6A",
"H  c #A17A66",
"J  c #A9816D",
"K  c #858285",
"L  c #888384",
"P  c #8D8888",
"I  c #928E8F",
"U  c #9D9696",
"Y  c #9F9A9A",
"T  c #A29C9A",
"R  c #A7A09F",
"E  c #A8A2A2",
"W  c #B3A9A7",
"Q  c #BAB1AE",
"!  c #BFB4B1",
"~  c #C8BEB9",
"^  c #CEC2BD",
"/  c #D3C4BD",
"(  c #D4C6C0",
")  c #D6C9C3",
"_  c #D9CCC6",
"`  c #DACFC9",
"'  c #DDD3CD",
"]  c #DFD6D1",
"[  c #DFD8D5",
"{  c #E2D3CB",
"}  c #E0D7D2",
"|  c #E2DAD6",
" . c #E8DDD7",
".. c #E6DDDA",
"X. c #E5DEDB",
"o. c #E5DFDB",
"O. c #E4DEDB",
"+. c #E6DEDB",
"@. c #E4DDDA",
"#. c #E5DFDC",
"$. c #E5DFDD",
"%. c #E6DFDC",
"&. c #E6DEDC",
"*. c #E3DCD9",
"=. c #E9DED9",
"-. c #E8DFDB",
";. c #E5E0DC",
":. c #E5E0DD",
">. c #E6E0DC",
",. c #E6E0DD",
"<. c #E7E0DD",
"1. c #E7E1DE",
"2. c #E7E1DF",
"3. c #E6E0DE",
"4. c #E7E1DD",
"5. c #E9E0DB",
"6. c #E9E0DC",
"7. c #E9E1DD",
"8. c #EAE1DC",
"9. c #EBE2DD",
"0. c #E8E1DE",
"q. c #E8E2DF",
"w. c #E9E2DF",
"e. c #ECE3DD",
"r. c #EAE3E0",
"t. c #EBE4E1",
"y. c #EBE6E2",
"u. c #EDE6E3",
"i. c #ECE4E0",
"p. c #EDE7E4",
"a. c #EDE5E1",
"s. c #E6E8E9",
"d. c #EAEBEC",
"f. c #F0E6E1",
"g. c #F2EAE5",
"h. c #F1EDEB",
"j. c #F7EEEA",
"k. c #F0EFF0",
"l. c #F7F5F3",
"z. c #F4F4F4",
"x. c #F9F7F7",
"c. c #F9F8F7",
"v. c #FCFAFA",
"b. c #FCFBFA",
"n. c #FCFBFB",
"m. c #FCFCFB",
"M. c #FDFCFC",
"N. c #FDFDFC",
"B. c #FDFDFD",
"V. c #FEFDFD",
"C. c #FDFCFC",
/* pixels */
"*.@.l.N.n.n.n.n.N.n.N.n.n.n.m.n.n.m.n.n.n.n.n.n.m.n.n.n.N.h.} <.N.",
"<.w.} @.<.<.<.<.<.<.$.$.$.$.$.@.$.@.<.<.@.@.$.<.<.<.<.<.} } *.$.N.",
"r.p.} } *.*.*.} *.*.@.w.w.w.@.} *.} } } *.' _ _ _ ' *.*.} } *.*.N.",
"$.$.] } *.} } } *.*.@.u.p.p.<.} *.*.*.} *.` / ) / ) } } } ] } _ n.",
"] } ] ' ) _ ) _ } *.} <.$.<.$.*.*.*.*.} *.' ) ) ) _ } *.} ] } _ n.",
") } } ' / / / ( } *.} @.w.@.} } } } 5.u.@.*.} } } } } *.} } *.} N.",
"( *.] ' _ ) ) ` } @. .~ P h z g k l z Y _ w.@.*.*.*.*.@.} } *.@.N.",
"] @.] } *.*.*.*.=.^ z > # ; 3   @ 6 2 & e I ' @.} *.*.*.} ] *.@.N.",
"*.@.] } *.*.*.=.! w % a M M 8   o p C N q $ f ) @.} *.w.<.} *.@.N.",
"*.*.} } @.*.w.! 1 4 N J C N 8 X X p V Z D d : y ` @.} t.w.} *.@.N.",
"*.*.*.t.<.@.` r 2 D M G M C 8   o i V Z C C B % c =.*.@.*.} @.$.N.",
"*.*.} w.$.=.L # n D N F M C 0 . X i V S C M D u & W w.*.} ` _ ' N.",
"*.*.' } @.' w 9 M Z N F C C 0   X p M C M M S m = j  .*.} _ / ) N.",
"} } ' [ w.W % d N Z n F M m 7   X p M C N n S M q < ) $.} _ / _ N.",
"_ ( ' } e.I > 6 , , , , - - 6 O & 6 , , , - , , , 1 Q w.] ] } } N.",
"( / ' } e.c 1 7 4 5 2 5 5 5 6 O & 6 5 5 5 4 8 4 5 < R u.} } *.@.N.",
"_ ` ' } u.l 2 H n D M F C C 7   o s C Z D C D n C & T g.<.} } @.N.",
"*.*.' ] e.l - D N D N D N C 0 . X s C C Z N D n C & T u.*.} *.@.N.",
"} *._ ( { j 2 F N D N D N C 8   X p C C Z m D b C * T u.] ] *.@.N.",
"*.*.) / { j 2 F m D M F M M 8   X p C M C n D b S : T u.] ] *.@.N.",
"} *._ ) { l - A N D N D C N 8   + s C M D N D n C * T w.] ] } ' m.",
"<.@.' ] e.l - Z n F m F Z M 7 . o s C M F N D m S & T { ( ' *._ n.",
"t.@.' } e.z & 2 , 5 4 4 4 2 6 O & 6 4 4 4 2 4 2 4 < T ` / ' } ` n.",
"<.*.' <.g.c > 2 - 2 , 2 4 , e # : w 2 4 , , 6 2 4 3 T { _ ' *.@.N.",
"} *.' @.g.l , A n F m D D C 0 . o s C S F M D m D : T u.] ] } @.N.",
"*.*.] [ e.l - D v D N C Z M 8 X X i C B F M F N S : T u.] ] *.@.N.",
"} } ] } e.l , F v D M C C M 8   X i V M F m D N S * U u.] ] <.t.N.",
"} *.' ] e.j 2 H n D N C C N 8   X i V N F M D M S * T g.} ] w.p.N.",
"} @.] } f.j 2 F n S n M M N 8   + p V n F N D M S & T j.@.} *.$.N.",
"} *.*.r.j.l - F n D N M M m 7   X i C M F n S N S # U g.} } *.@.N.",
"*.*.} @.e.x : 4 2 4 2 , - - 6 O # 3 2 2 2 - 4 2 2 * U u.] ] *.@.N.",
"@.@.} *.e.K 3 1 1 1 1 1 < < t > 3 e 3 1 < 3 3 3 3 e E u.} } *.$.N.",
"x.c.n.n.m.k.s.d.s.d.d.d.d.d.s.s.s.s.d.d.d.d.d.d.d.s.z.N.n.n.c.c.N."
};
