/* XPM */
static char *_99f79da02f94454c4eded81135b86b35Gs5H4IbehnMUzYS[] = {
/* columns rows colors chars-per-pixel */
"32 32 148 2 ",
"   c #CD8763",
".  c #CD8867",
"X  c #CF8C6B",
"o  c #D08E6D",
"O  c #D1906F",
"+  c #CF8F70",
"@  c #D29373",
"#  c #D59B7D",
"$  c #D69E82",
"%  c #DF948A",
"&  c #D79D89",
"*  c #E19D94",
"=  c #D6A085",
"-  c #D8A286",
";  c #D7A288",
":  c #D9A58A",
">  c #DAA88E",
",  c #DAA491",
"<  c #DBAC94",
"1  c #DCAF98",
"2  c #DFB497",
"3  c #DDB29B",
"4  c #E1A096",
"5  c #E2A39B",
"6  c #E0B697",
"7  c #E0B699",
"8  c #E1BA9D",
"9  c #DEB4A1",
"0  c #DFB9A5",
"q  c #DFB7AA",
"w  c #E5ACA4",
"e  c #E2BDA3",
"r  c #E6B2AB",
"t  c #E1BDAA",
"y  c #E7B6B1",
"u  c #E8B5B0",
"i  c #E5BEB2",
"p  c #E8BCB6",
"a  c #E4C0A6",
"s  c #E4C3AB",
"d  c #E4C5B3",
"f  c #E6CAB5",
"g  c #E8CBB7",
"h  c #E5C5B8",
"j  c #EAC4BD",
"k  c #E6CBBA",
"l  c #E8CEBB",
"z  c #E8D2B7",
"x  c #E7D3BA",
"c  c #E9D3BD",
"v  c #E7CDC2",
"b  c #EBCCC5",
"n  c #ECCEC9",
"m  c #EBD6C6",
"M  c #EAD6C7",
"N  c #EBD7C7",
"B  c #EAD4C4",
"V  c #EAD3C3",
"C  c #EAD8C2",
"Z  c #EBD9C4",
"A  c #E9D6C9",
"S  c #EBD6C8",
"D  c #EBD6C9",
"F  c #EAD6CA",
"G  c #EBD7CA",
"H  c #EDD2CE",
"J  c #EDD3CF",
"K  c #EBD5CA",
"L  c #EBD8CB",
"P  c #ECD8C9",
"I  c #ECD8CA",
"U  c #ECD9CB",
"Y  c #ECDDCA",
"T  c #EDDDCB",
"R  c #EBD9CD",
"E  c #ECD9CD",
"W  c #ECDACC",
"Q  c #EDDACC",
"!  c #ECDBCC",
"~  c #ECDACD",
"^  c #ECDBCD",
"/  c #ECD9CE",
"(  c #EDDACE",
")  c #ECDBCE",
"_  c #ECDBCF",
"`  c #EDDBCF",
"'  c #EDDDCC",
"]  c #ECDDCD",
"[  c #EDDFCC",
"{  c #ECDECD",
"}  c #ECDCCE",
"|  c #EDDCCF",
" . c #EDDFCE",
".. c #ECDBCD",
"X. c #EED8D3",
"o. c #EDDCD0",
"O. c #EDDDD0",
"+. c #EEDED1",
"@. c #EEDDD2",
"#. c #EEDED2",
"$. c #EEDED3",
"%. c #EED8D5",
"&. c #EEDDD4",
"*. c #EDDFD4",
"=. c #EEDFD4",
"-. c #EEDDD3",
";. c #F0DCD9",
":. c #F0DFD9",
">. c #EDE0CF",
",. c #EDE0CF",
"<. c #EEE2D2",
"1. c #EEE0D5",
"2. c #EFE1D6",
"3. c #EEE0D7",
"4. c #EEE2D5",
"5. c #EEE2D8",
"6. c #EFE3D8",
"7. c #EEE2D9",
"8. c #EFE2D9",
"9. c #EFE3D9",
"0. c #EFE3DA",
"q. c #EFE3DB",
"w. c #EFE5DC",
"e. c #EFE2D9",
"r. c #F0E0DA",
"t. c #F0E3DA",
"y. c #F0E3DB",
"u. c #F0E4DB",
"i. c #F0E5DC",
"p. c #F0E5DD",
"a. c #F0E5DE",
"s. c #F0E6DE",
"d. c #F0E5DC",
"f. c #F1E9DD",
"g. c #F1E9DE",
"h. c #F1E4E0",
"j. c #F1E5E1",
"k. c #F2E6E1",
"l. c #F1E7E1",
"z. c #F1E9E0",
"x. c #F1E9E1",
"c. c #F1E9E3",
"v. c #F2E9E2",
"b. c #F1EBE3",
"n. c #F2EAE3",
"m. c #F2EBE6",
"M. c #F2EBE4",
"N. c #F3ECE8",
/* pixels */
"3 1 1 3 3 G c. .T  . . .c.M k k k g *.j.b j j p r o.B t t e e e ",
"X X @ O o t  .x c c c C 8.8 8 8 8 2 c n % * * * % j <   X X o o ",
"1 < 3 2 1 B f.>. .T  .<.c.f f f f f #.:.w w w r r J 0 = ; : > < ",
"I I c.l t h h d R j.n b b j j :.8.` ` ` G ` j.*.` #.M V L 8.G ` ",
"8 e 8.> o @ @ X 3 n * * * 4 * b g 8 e e e s c.s e e a 8 g ` 8 8 ",
"s f a.3 - : $ # s J w w w w w %.c a s s a f c.f s s s a M #.e e ",
"M M #.M c #.G l M ` B B r.B h l h d ` u. .#.8.` V #.` h V B f l ",
"e e a s e I V e e a e s 8.= @ @ @ @ s a.s s s s e ` t @ # # # $ ",
"a e e e e G g 8 e e e s 2.@ @ @ @ O e 8.e e e e e M 3 @ @ @ @ @ ",
"` ` 2.#.#.a.r.#.2.r.*.*.a.f f B B G 8.c. .I ` ` ` w.B s t h h V ",
"# = 8.>.C Z Z C 6.8.s s a s a 8.6.Z Z C Z  .c.3 : = - # e r.d s ",
"X @ *.T c C C c <.I 8 e 8 8 7 `  .x c c x C a.@ o @ @ X , G 8 8 ",
"d d a.u.<.u.2. .2.2.M c G ` M a.2. .2.u.0.0.j.d e t t t G 2.l V ",
"V c f k g u.l , < , < 1 c.M l k f f #.*.9 3 < 3 < B 2.c V k c V ",
"e e e e 8 N 3 X @ o X # 8.8 8 e e 6 V h   o X X o t h 2 8 8 8 8 ",
"c l c k c r.l 3 3 3 3 e j.k k c l k 2.o.1 1 < < 3 G I f f f f c ",
"k l j.M k c c c *.c.#.>.T  . .c.2.M c g g M N.J b j j r b *.t t ",
"7 e 8.s 8 e 8 7 f 2.x x x x x 8.f e e 8 7 e a.5 * * * % r h X @ ",
"k g c.M f k f k  .N.6.<.T  . .N.V s f f k C N.y w w w w n v # # ",
"I C L I M a.G d d h h h c.#.G G M V #.a.` ` ` M V o.o.V ` G l l ",
"e 8 8 8 7 I 9 . X X X @ 2.e 8 8 e 7 V #.8 e e e e M V 8 e 8 8 e ",
"s a e e e G 3 @ # # @ = 8.s a e a e L 2.a a s s a ` V a s e e e ",
"2.8.c.2.` *.` ` 8.j.*.*.a.#.#.a.r.%.%.%.H o.a.*.#.2.` V G 8.#.8.",
"c C f.f e e e e V a.c c c C c 0.p 4 5 4 * w a.; # # $ @ 3 #.a s ",
"C Z c.f e e e e l 2.c C C C C a.u * 4 4 * 5 y.# o @ + X 3 ` 8 e ",
"L I #.B l o. .M ` 8. .#.u.2.L #.j i b H b K u.f t h h d G 2.M M ",
"= - $ = $ v ` a s s a s 8.< - $ $ $ f c.d f f f s #.` f f d f f ",
"@ @ @ @ o t c 8 8 8 8 e #.@ @ @ @ o 0 #.7 e e e 7 V f 7 8 8 e e ",
"h f h h d o.2.G L ` ` ` j.t t d h h o.j.M M V M L a.` l c V M ` ",
" .<.N.k q t t q A a.k g f g f a.f.>. . .T <.N.M l g l f G c. .<.",
"c c a.9 & , , & t G 2 8 8 8 7  .Y z c c x c j.e 8 8 8 7 f 2.x c ",
"<.<.N.v t h d i B 8.g k c l l a.<.Z  . . .<.N.c s d f f ` a.Z Z "
};
