/* XPM */
static char *hui_11731061611[] = {
/* columns rows colors chars-per-pixel */
"32 32 6 1 ",
"  c None",
". c #100119",
"X c #300945",
"o c #582A72",
"O c #875E9E",
"+ c #CDB5DA",
/* pixels */
"                                ",
"                                ",
"                                ",
"                                ",
"                                ",
"                                ",
"                                ",
"                                ",
"                                ",
"                                ",
"                                ",
"          ...      ...          ",
"         .oOO.    .OOO.         ",
"         .ooo......ooO.         ",
"         .Xo++++++++oo.         ",
"          .++++++++++.          ",
"         .++++++++++++.         ",
"        .++++++++++++++.        ",
"        .+++ooo++++ooo+.        ",
"        .+++++++..+++++.        ",
"        .++++++.++.++++.        ",
"         .++++++++++++.         ",
"         ..++++XXXX+++.         ",
"         .Xoooooooooooo.        ",
"        .Xooo++OOOO+XXoo.       ",
"       .XooooX+++++++X.o.       ",
"       .OoooX+++++++++.Xo.      ",
"       .OOoX+++++++++++.o.      ",
"        .OX++++++++++++.O.      ",
"         ..++++++++++....       ",
"          .XXXO++XXXO.          ",
"                                "
};
