/* XPM */
static char *boots_11731293770[] = {
/* columns rows colors chars-per-pixel */
"32 32 9 1 ",
"  c None",
". c #101010",
"X c #441039",
"o c #303766",
"O c #396576",
"+ c #714841",
"@ c #435077",
"# c #A9764A",
"$ c #239171",
/* pixels */
"                                ",
"                                ",
"                                ",
"                                ",
"                                ",
"                                ",
"                                ",
"                                ",
"                                ",
"                                ",
"                                ",
"                                ",
"                                ",
"                                ",
"                                ",
"                                ",
"                                ",
"                                ",
"                                ",
"              ...               ",
"             oXX.o.             ",
"          ...oooXo.             ",
"         .XX.oXo++              ",
"         .@X.o@ooo.             ",
"         .@@@@+o++.             ",
"         .@@+#ooo++.            ",
"         .@@@@+oooXXo.          ",
"          @@+#Xoooooooo         ",
"          X@o@ooXXooooX         ",
"          $X@+#.OOOOOOo         ",
"          .X@@X@.  ...          ",
"           .$@@@@.              "
};
