/* XPM */
static char *Icon30_341731064687[] = {
/* columns rows colors chars-per-pixel */
"32 32 8 1 ",
"  c None",
". c black",
"X c #38002C",
"o c #222A5C",
"O c #37446E",
"+ c #3368DC",
"@ c #3DABEA",
"# c #5BECF1",
/* pixels */
"                                ",
"          ......                ",
"         .oooooo....            ",
"        .o.....Xoooo.           ",
"        .XXXXoX....X.           ",
"        .XXXXooooXoo+.          ",
"        .XXXXoooo@@@+.          ",
"   ......XXXXoooo@@@.           ",
"  .OOOOOOXXXXooooXoo..          ",
" .oXXXXXXOOXXooooXooo+.         ",
" .oXXXXXX..ooXoooX@@@+.         ",
" .oOOXXXX...OOXooo@@@.          ",
" .oooOO...OOOOXooo.ooo.         ",
" .oooooOO.OOO@@Xooo.ooo.        ",
" .oooooOO@###@@Xoooo.XXX...     ",
" .oooooOO@###OXXooooooooooo...  ",
" .oooooOOXOOOOXXooooOOOOOOOOoX. ",
" .oooXoOOoOOO@@.ooooOOOOOOOOoX. ",
" .oooooOO@###@@.++ooooooooooo+. ",
" .oooXoOO@###OO.+++++@@@@@@@@+. ",
" .+ooXoOOOoOOOOo...++@@@@@@@@.  ",
" .+@@.oOOOOXOOOoX. ..........   ",
"  .@@.oOOOOOXXXXOO.             ",
"   ....OOOOOOOOOOOO.            ",
"      .@OOOOOOOOOOOO.           ",
"      .@@OOOOOOOOOOO.           ",
"       .@#OOOOOOOOOO.           ",
"        .###OOOOOOO@.           ",
"         .#########@.           ",
"          ..#######.            ",
"            .......             ",
"                                "
};
