/* XPM */
static char *carrot_11731064081[] = {
/* columns rows colors chars-per-pixel */
"32 32 13 1 ",
"  c None",
". c black",
"X c #032729",
"o c #42211E",
"O c #682803",
"+ c #107F3C",
"@ c #064940",
"# c #8B3804",
"$ c #AB5E24",
"% c #CC5105",
"& c #FA6B0F",
"* c #58C532",
"= c #FF8533",
/* pixels */
"                                ",
"                                ",
"                                ",
"                                ",
"                                ",
"                                ",
"                                ",
"                                ",
"                                ",
"                                ",
"                                ",
"                                ",
"                                ",
"                                ",
"                                ",
"                                ",
"                                ",
"                   XX           ",
"             XX@ X@@+X          ",
"            X@**@*@+XX          ",
"             X%#O#+XX           ",
"             %==$%O*+@          ",
"             O%#&&%.@+X         ",
"            %==&#%O.+@X         ",
"            O&&&%#OXXXX         ",
"           %=%#$%O              ",
"           =&&%#o               ",
"          o&&$O                 ",
"          %$#o                  ",
"          #O                    ",
"                                ",
"                                "
};
