/* XPM */
static char *carrot_01731290626[] = {
/* columns rows colors chars-per-pixel */
"32 32 11 1 ",
"  c None",
". c #060608",
"X c #24523B",
"o c #1A7A3E",
"O c #B4202A",
"+ c #DF3E23",
"@ c #FA6A0A",
"# c #14A02E",
"$ c #59C135",
"% c #F9A31B",
"& c #9CDB43",
/* pixels */
"                                ",
"                                ",
"                                ",
"                                ",
"                                ",
"                                ",
"                                ",
"                                ",
"                                ",
"                                ",
"                                ",
"                                ",
"                                ",
"                                ",
"                                ",
"                                ",
"                                ",
"          .. ..                 ",
"         .$$.&&.                ",
"         ..$o$...               ",
"        .o####$&&.              ",
"         ..####O+.              ",
"         .o###O@@@.             ",
"        .oX#oo+@@+@.            ",
"         ..o.O@++@%%.           ",
"           ..++O+@@%%.          ",
"             .O+@@@@%.          ",
"              .++O@@%%.         ",
"               .O+@@@%.         ",
"                ..O+@@+.        ",
"                  ..O+@.        ",
"                    ...         "
};
