/* XPM */
static char *door_11731299964[] = {
/* columns rows colors chars-per-pixel */
"32 32 255 2 ",
"   c None",
".  c #0D1825",
"X  c #0E1A27",
"o  c #151821",
"O  c #121927",
"+  c #121A27",
"@  c #141925",
"#  c #141B26",
"$  c #151A27",
"%  c #151C27",
"&  c #191C24",
"*  c #1B1C24",
"=  c #1A1E26",
"-  c #1B1E26",
";  c #1B1F26",
":  c #1B1E27",
">  c #1C1D26",
",  c #1D1E26",
"<  c #1C1F26",
"1  c #1C1F27",
"2  c #1D1F27",
"3  c #121928",
"4  c #131B28",
"5  c #121B29",
"6  c #131B29",
"7  c #151C29",
"8  c #161D28",
"9  c #171D28",
"0  c #161D29",
"q  c #171D29",
"w  c #141C2A",
"e  c #151D2A",
"r  c #161E2A",
"t  c #171E2A",
"y  c #171F2B",
"u  c #171F2C",
"i  c #181E2B",
"p  c #191F2B",
"a  c #1C1F28",
"s  c #1D1F28",
"d  c #181F2C",
"f  c #181F2D",
"g  c #1B2029",
"h  c #19202B",
"j  c #1A202A",
"k  c #1B202A",
"l  c #1A202B",
"z  c #1B212B",
"x  c #1D2028",
"c  c #1F2129",
"v  c #1E2229",
"b  c #1C212A",
"n  c #1D212A",
"m  c #1E212A",
"M  c #1F212A",
"N  c #1D222B",
"B  c #1E222A",
"V  c #1F222A",
"C  c #1F222B",
"Z  c #1B212C",
"A  c #1A222E",
"S  c #1A222F",
"D  c #1F222C",
"F  c #1C232F",
"G  c #212227",
"H  c #2C2421",
"J  c #202129",
"K  c #202229",
"L  c #20232A",
"P  c #20222B",
"I  c #20232B",
"U  c #21242B",
"Y  c #24252B",
"T  c #20232C",
"R  c #21232C",
"E  c #21242C",
"W  c #21242D",
"Q  c #22242C",
"!  c #22252C",
"~  c #23252C",
"^  c #22252D",
"/  c #22252E",
"(  c #23262E",
")  c #23262F",
"_  c #25272F",
"`  c #2A2728",
"'  c #28262B",
"]  c #2E2828",
"[  c #2D292A",
"{  c #28282C",
"}  c #29282C",
"|  c #29292C",
" . c #2B292C",
".. c #2B2A2E",
"X. c #2C292C",
"o. c #2D2A2C",
"O. c #2C2B2D",
"+. c #2D2B2D",
"@. c #2F2B2C",
"#. c #2E2C2D",
"$. c #2F2C2F",
"%. c #302825",
"&. c #302B2B",
"*. c #322C2A",
"=. c #322C2B",
"-. c #362D2B",
";. c #372F2A",
":. c #322C2C",
">. c #332D2D",
",. c #312C2F",
"<. c #322D2E",
"1. c #312E2F",
"2. c #352F2D",
"3. c #362F2D",
"4. c #342E2E",
"5. c #3A302A",
"6. c #3B312A",
"7. c #3E3329",
"8. c #3C312B",
"9. c #39302D",
"0. c #39322D",
"q. c #3A322C",
"w. c #3C322D",
"e. c #3D332D",
"r. c #3E332D",
"t. c #3E342E",
"y. c #2B2D35",
"u. c #2D2F37",
"i. c #322E30",
"p. c #332F30",
"a. c #2D3037",
"s. c #363030",
"d. c #3A3231",
"f. c #3E3532",
"g. c #31333A",
"h. c #36373F",
"j. c #423121",
"k. c #453323",
"l. c #463323",
"z. c #463423",
"x. c #463424",
"c. c #473524",
"v. c #473626",
"b. c #483525",
"n. c #4A3524",
"m. c #483625",
"M. c #493725",
"N. c #483626",
"B. c #493626",
"V. c #493726",
"C. c #4A3726",
"Z. c #4B3726",
"A. c #4B3727",
"S. c #493826",
"D. c #4A3826",
"F. c #4B3826",
"G. c #4A3827",
"H. c #4B3827",
"J. c #4B3927",
"K. c #4C3825",
"L. c #4C3826",
"P. c #4C3926",
"I. c #4C3827",
"U. c #4D3827",
"Y. c #4C3927",
"T. c #4E3826",
"R. c #4C3A27",
"E. c #4F3A26",
"W. c #41352D",
"Q. c #42352C",
"!. c #43352D",
"~. c #44382D",
"^. c #4B3828",
"/. c #4B3928",
"(. c #4C3828",
"). c #4C3928",
"_. c #4D3928",
"`. c #4D3929",
"'. c #4E3929",
"]. c #4D3A28",
"[. c #4D3B28",
"{. c #4C3A29",
"}. c #4D3A29",
"|. c #4C3B29",
" X c #4D3B29",
".X c #4E3A28",
"XX c #4F3B28",
"oX c #4E3B29",
"OX c #4F3B29",
"+X c #4E3B2A",
"@X c #4F3B2A",
"#X c #4F3B2B",
"$X c #4E3C29",
"%X c #4F3C2A",
"&X c #4F3D2A",
"*X c #4F3D2B",
"=X c #513B29",
"-X c #533D28",
";X c #503C2A",
":X c #503D2A",
">X c #503D2B",
",X c #513D2B",
"<X c #523D2B",
"1X c #523E2B",
"2X c #523D2C",
"3X c #513E2C",
"4X c #533E2C",
"5X c #533F2C",
"6X c #523E2D",
"7X c #533F2D",
"8X c #403531",
"9X c #403630",
"0X c #423830",
"qX c #483930",
"wX c #4D3D31",
"eX c #54402D",
"rX c #55402D",
"tX c #56402C",
"yX c #56402D",
"uX c #54402E",
"iX c #55402E",
"pX c #54412E",
"aX c #55412E",
"sX c #57412E",
"dX c #56412F",
"fX c #57412F",
"gX c #57422E",
"hX c #56422F",
"jX c #57422F",
"kX c #58412D",
"lX c #58432E",
"zX c #58432F",
"xX c #584230",
"cX c #594330",
"vX c #594430",
"bX c #594431",
"nX c #5A4430",
"mX c #5B4430",
"MX c #5A4431",
"NX c #5B4531",
"BX c #5B4532",
"VX c #5C4532",
"CX c #5C4632",
"ZX c #5C4732",
"AX c #5C4633",
"SX c #5D4733",
"DX c #5E4833",
"FX c #5E4834",
"GX c #5F4934",
"HX c #5F4935",
"JX c #624A35",
"KX c #614B36",
"LX c #634B36",
"PX c #624C36",
"IX c #404147",
/* pixels */
"R                                                             < ",
"v W W                                                     s v D ",
"$.8.W v W                                             v v x 8.8.",
"p./.aXe.~ a.                                        g.< %.BXJ.8.",
"` 3X7XxXc.A                                         @ V.V.JX$X9.",
"p.V.aXaXV..                                         4 k.V.mXJ.f.",
"&.#X3XT.#Xk                                         7 #X3XmXk.>.",
" .#XBX3Xk.:                                         6 1X#XLXV.>.",
"| #XBX#X#X7                                         7 #XJ.KX#Xe.",
"*.J.aX1XV.O                                         i 1XT.KXJ.W.",
"~ o r.1XA.i                                         i k.V.wXv D ",
"L L < < v h.                                        IXU ~ : : v ",
" .=X7X1XE.d                                         6 -XaXFX/.+.",
"p.T.cX3XT.i                                         i $XT.aXV.W.",
" .1XBX1Xc.R                                         A k.#XaXV.&.",
"Y V.lX$X/.d                                         7 J.#XlX#XW.",
"` J.aX1Xc.k                                         5 J.$XBXV.~.",
">.#XcX3X/.W                                         A j.pXaXJ.!.",
"| =XBXaX#X7                                         k T.T.lXV.0X",
"| /.lXaXv.7                                         A #XaXmX#X+.",
"v k L < U y.                                        a.D W : : v ",
"D H lXA.c.O                                         i c.T.KX5.v ",
"*.V.7XE.#XO                                         7 1X1XFXV.f.",
">.#XcX7XV.d                                         k $Xc.BXT.-.",
"+.#XmX3XV.@                                         % #X[.FXT.2.",
" .V.lXV.'.<                                         7 [.$XmXJ.9.",
">.J.7XaXV..                                         7 $XJ.xXJ.qX",
"] #X7XmXV.A                                         @ T.c.ZX$Xq.",
"p.$X1XW L L                                         ~ : : lXG.-.",
"d.s L W L                                             R v v Y 2.",
"v R W                                                     s L L ",
"D                                                             < "
};
