/* XPM */
static char *door_01731299964[] = {
/* columns rows colors chars-per-pixel */
"32 32 39 1 ",
"  c #14161D",
". c #16181F",
"X c #171921",
"o c #1B1D24",
"O c #151D2A",
"+ c #1A1E28",
"@ c #1E2027",
"# c #1E212A",
"$ c #222227",
"% c #21242C",
"& c #28272D",
"* c #2C2A2D",
"= c #332D2B",
"- c #3C322C",
"; c #242730",
": c #262931",
"> c #3F3630",
", c #33353D",
"< c #463423",
"1 c #493726",
"2 c #4B3827",
"3 c #43362D",
"4 c #45382E",
"5 c #4D3A29",
"6 c #523E2B",
"7 c #413730",
"8 c #463931",
"9 c #533F32",
"0 c #56412E",
"q c #58422F",
"w c #534131",
"e c #5B4531",
"r c #5E4834",
"t c #614A35",
"y c #654E39",
"u c #67503A",
"i c #3C3D45",
"p c #3F4148",
"a c #42444B",
/* pixels */
"a@@+@###%%@;@#i. i$%%%%+@%%%%@%a",
"%%@+%###@++#O#% o%++++@+##;+%+%+",
"%%q05ee9<ee2e-%X.+6656ee3<t65t#%",
"%Oq02ew25q0<w-%.+%7e56qe22e<<e+@",
"#&t52ew520q55-@.o%-t<<te55r62r##",
":@e0<r662ee503@.o%3q66ee62e55e##",
";%e0<qe655r2r3&X.%1t26te5we52eO#",
"@+q2<0w22er50*#.@+6e22et50e52e##",
"%&r55rq52er2e>#X+#9e12qq<re520&;",
"%&q<1eq22tu2r=;o+@eq66tu2ee52e%#",
"a%%@######$&@#poXa%%%%%+@#%##@%p",
"o@+%#####&#@@&#o@&%%%$%%%%%@;%##",
"%@r15qe50tr00>#.+@4t26tt5ee65e##",
"@+0<wqe1qrr5q-#o+&we56q666e<20O%",
"#%002qe5rwe503@ o%wq660t5rq6<e+%",
"%O052eq5eqr5q-@oo@=e66eq5wt<2e&@",
"$$626e96t6q6q4ooX@*t50e0<re<<e%@",
"%$e666e596e59-#X+%et60er5ee55e#%",
"#$6<66t26tt5e=#X%%ee16ee5ee550+%",
"$$e15e95qtt5t6#oX%8e56ee5te25e%@",
"%+o%##%%@%%%%%%o%&%%%%%@%%@%%@%%",
",#%@$@%#$%$%%%ioXi%%@%%%%%%%%%%,",
"%$6526922tu2e-%X+%e66wty<ew52r&%",
";%9<5te52et6e7%o+%4e<5ee5re520%%",
"##96<9e6<et66=%X++6w5<rt5qe22eO%",
"#@r6<66656t<e4%X.@3r56rr66q65e@@",
"%+t52t666ee56=% X%5e26e052e25t+#",
"$;t61t66<we564% +%-0<5ee26r55eO@",
"@&e616e52e62q-%.$+3e<0er55e<5e++",
"%+q669q6<ee5e4+ .@q055re<<e65e#%",
"@%%%%+@%##@@++%.+X%+%@@%%@%%%+#+",
"i++%%@$%%#@@%%io.i@%%@%+%%%%%%#i"
};
