/* XPM */
static char *_31ec79efe2b4badc68c60df8e0423e2ncw0oVuxQ4WKJocL[] = {
/* columns rows colors chars-per-pixel */
"32 32 188 2 ",
"   c #D2C3BC",
".  c #D3C3BC",
"X  c #D3C4BC",
"o  c #D3C4BD",
"O  c #D4C5BD",
"+  c #D4C5BE",
"@  c #D4C5BF",
"#  c #D4C6BE",
"$  c #D4C6BF",
"%  c #D5C7BF",
"&  c #D5C7C0",
"*  c #D6C8C1",
"=  c #D5C8C2",
"-  c #D6C8C2",
";  c #D7C8C2",
":  c #D6C9C2",
">  c #D7C9C3",
",  c #D7CAC3",
"<  c #D7CBC3",
"1  c #D7CBC4",
"2  c #D8CAC4",
"3  c #D8CBC4",
"4  c #D8CBC5",
"5  c #D8CCC5",
"6  c #D9CCC6",
"7  c #D9CDC6",
"8  c #D9CDC7",
"9  c #DACDC7",
"0  c #D9CDC8",
"q  c #D9CEC8",
"w  c #DACEC8",
"e  c #DACFC8",
"r  c #DACEC9",
"t  c #DACFC9",
"y  c #DBCFC9",
"u  c #DBD0C9",
"i  c #DBD0CA",
"p  c #DBD0CB",
"a  c #DBD1CB",
"s  c #DCD0CB",
"d  c #DCD1CB",
"f  c #DBD1CC",
"g  c #DCD1CC",
"h  c #DCD1CD",
"j  c #DCD2CC",
"k  c #DDD2CC",
"l  c #DCD2CD",
"z  c #DDD2CD",
"x  c #DDD3CD",
"c  c #DED2CC",
"v  c #DCD2CE",
"b  c #DDD2CE",
"n  c #DCD3CE",
"m  c #DDD3CE",
"M  c #DCD3CF",
"N  c #DDD3CF",
"B  c #DED3CE",
"V  c #DDD4CE",
"C  c #DDD4CF",
"Z  c #DED4CE",
"A  c #DED4CF",
"S  c #DFD4CF",
"D  c #DED5CF",
"F  c #DFD5CF",
"G  c #DED4D0",
"H  c #DFD4D0",
"J  c #DED5D0",
"K  c #DFD5D0",
"L  c #DFD5D1",
"P  c #DFD6D0",
"I  c #DED6D1",
"U  c #DFD6D2",
"Y  c #E0D6D1",
"T  c #E0D6D2",
"R  c #E0D7D2",
"E  c #E1D7D2",
"W  c #E0D7D3",
"Q  c #E1D7D3",
"!  c #E2D7D3",
"~  c #E0D7D4",
"^  c #E0D8D2",
"/  c #E1D8D2",
"(  c #E0D8D3",
")  c #E1D8D3",
"_  c #E0D8D4",
"`  c #E1D8D4",
"'  c #E1D9D4",
"]  c #E1D9D5",
"[  c #E2D9D4",
"{  c #E2D9D5",
"}  c #E2DAD5",
"|  c #E1D9D6",
" . c #E2D9D6",
".. c #E1DAD6",
"X. c #E2DAD6",
"o. c #E3DAD6",
"O. c #E2DBD6",
"+. c #E3DBD6",
"@. c #E2DAD7",
"#. c #E2DBD7",
"$. c #E3DBD7",
"%. c #E4DAD5",
"&. c #E4DAD6",
"*. c #E4DBD6",
"=. c #E2DBD8",
"-. c #E3DBD8",
";. c #E2DCD8",
":. c #E3DCD8",
">. c #E2DCD9",
",. c #E3DCD9",
"<. c #E3DDD9",
"1. c #E3DCDA",
"2. c #E3DDDA",
"3. c #E4DCD8",
"4. c #E4DCD9",
"5. c #E4DDD9",
"6. c #E5DDD9",
"7. c #E6DCD9",
"8. c #E4DCDA",
"9. c #E4DDDA",
"0. c #E5DDDA",
"q. c #E4DEDA",
"w. c #E4DEDB",
"e. c #E5DEDB",
"r. c #E4DFDB",
"t. c #E6DEDA",
"y. c #E7DEDA",
"u. c #E6DEDB",
"i. c #E5DFDC",
"p. c #E6DFDC",
"a. c #E6DFDD",
"s. c #E8DFDC",
"d. c #E6E0DC",
"f. c #E6E0DD",
"g. c #E7E0DD",
"h. c #E7E1DE",
"j. c #E7E2DE",
"k. c #E8E0DD",
"l. c #E8E1DD",
"z. c #E9E1DD",
"x. c #E8E1DE",
"c. c #E9E2DE",
"v. c #E8E2DF",
"b. c #E9E2DF",
"n. c #EAE2DE",
"m. c #EAE3DF",
"M. c #EBE3DF",
"N. c #EAE3E0",
"B. c #EBE3E0",
"V. c #EAE4E0",
"C. c #EBE4E0",
"Z. c #EAE4E1",
"A. c #EBE4E1",
"S. c #EBE5E1",
"D. c #EAE5E2",
"F. c #EBE5E2",
"G. c #ECE5E2",
"H. c #ECE6E2",
"J. c #ECE6E3",
"K. c #EDE6E3",
"L. c #EDE6E4",
"P. c #EDE7E4",
"I. c #EDE7E5",
"U. c #EFE9E7",
"Y. c #F0EBE8",
"T. c #F0EBE9",
"R. c #F2EDEB",
"E. c #F3EEEB",
"W. c #F3EFED",
"Q. c #F5F1EF",
"!. c #F4F1F0",
"~. c #F6F3F1",
"^. c #F7F4F3",
"/. c #F7F5F4",
"(. c #F7F5F5",
"). c #F7F6F5",
"_. c #F8F5F4",
"`. c #F8F6F4",
"'. c #F8F6F5",
"]. c #F8F7F5",
"[. c #F8F6F6",
"{. c #F8F7F6",
"}. c #F9F7F6",
"|. c #FEFDFD",
" X c #FEFEFE",
".X c #FFFEFE",
"XX c #FFFFFE",
"oX c white",
/* pixels */
",.u.~.{.{.{.{.{.{.{.{.{.{.{.(.{.{.(.(.{.{.(.(.(.{.{.{.{.{.~.u.@.",
"G.A.^ ,.u.=.u.,.u.u.,.=.,.,.,.,.u.u.u.u.,.u.u.@.@.u.u.u.u.R @.=.",
"G.G.F @.,.=.u.,.=.,.@.g.v.v.u.@.,.,.@.,.,.@.5 2 r 5 @.,.,.F @.@.",
"i.u.F @.=.@.@.@.=.,.u.G.G.L.g.@.@.=.@.@.,.x . @ @ @ K u.@.s @.x ",
"R @.K x , 2 , 5 @.,.,.g.g.v.i.u.u.u.,.=.,.R , , & , K u.,.F @.x ",
"5 @.x r X @ & , @.=.u.,.R K F F F x K @.u.,.@.@.@.@.=.=.@.F @.@.",
", @.x x , 2 , r ,.u.K x R u.v.v.v.u.*.R p x u.u.,.,.,.=.@.F @.,.",
"R u.F @.=.=.@.,.@.r *.^.oXoXoXoXoXoXoXoX~.*.5 @.u.@.=.=.=.F @.=.",
"=.@.x @.=.@.,.R 5 Y.oXoXoXoXoXoXoXoXoXoXoXoXY.r @.u.,.g.v.@.=.@.",
"@.@.x ,.,.,.@.5 W.oXoXoXoXoXoXoXoXoXoXoXoXoXoXQ.r ,.,.v.L.u.,.,.",
",.,.@.A.i.,.p R.oXoXoXoXoXoXoXoXoXoXoXoXoXoXoXoXU.p u.g.v.@.,.u.",
",.u.@.A.g.K ^ oXoXoXoXoXoXoXoXoXoXoXoXoXoXoXoXoXoXu.~ u.@.x s x ",
"=.@.K u.u.f W.oXoXoXoXoXoXoXoXoXoXoXoXoXoXoXoXoXoXR.p u.@.s X X ",
",.@.F @.@.R oXoXoXoXoXoXoXoXoXoXoXoXoXoXoXoXoXoXoXoXx @.=.s @ @ ",
", , p =.R s.oXoXoXoXoXoXoXoXoXoXoXoXoXoXoXoXoXoXoXoXu.K ,.F K R ",
"X . p ,.F v.oXoXoXoXoXoXoXoXoXoXoXoXoXoXoXoXoXoXoXoXA.x i.R ,.=.",
"2 , r ,.x v.oXoXoXoXoXoXoXoXoXoXoXoXoXoXoXoXoXoXoXoXL.x A.u.@.@.",
"@.@.K u.x v.oXoXoXoXoXoXoXoXoXoXoXoXoXoXoXoXoXoXoXoXG.x A.@.@.=.",
"=.=.5 r 1 B.oXoXoXoXoXoXoXoXoXoXoXoXoXoXoXoXoXoXoXoXA.s u.F @.,.",
"@.@.@ @ @ A.oXoXoXoXoXoXoXoXoXoXoXoXoXoXoXoXoXoXoXoXG.x u.F @.,.",
"@.@.@ , X v.oXoXoXoXoXoXoXoXoXoXoXoXoXoXoXoXoXoXoXoXG.x u.x @.@.",
"u.@.p ^ r v.oXoXoXoXoXoXoXoXoXoXoXoXoXoXoXoXoXoXoXoXv.& p 5 @.K ",
"B.@.F u.x v.oXoXoXoXoXoXoXoXoXoXoXoXoXoXoXoXoXoXoXoXG.. & @ ^ x ",
"v.@.F g.R v.oXoXoXoXoXoXoXoXoXoXoXoXoXoXoXoXoXoXoXoXA.. & & ^ ^ ",
",.,.F G.@.v.oXoXoXoXoXoXoXoXoXoXoXoXoXoXoXoXoXoXoXoXA.5 @.x @.@.",
"@.@.x g.R v.oXoXoXoXoXoXoXoXoXoXoXoXoXoXoXoXoXoXoXoXG.x u.F @.@.",
"=.@.F @.x v.oXoXoXoXoXoXoXoXoXoXoXoXoXoXoXoXoXoXoXoXA.x u.x @.u.",
"=.@.x =.F A.oXoXoXoXoXoXoXoXoXoXoXoXoXoXoXoXoXoXoXoXG.x u.F u.A.",
",.@.x ,.x B.oXoXoXoXoXoXoXoXoXoXoXoXoXoXoXoXoXoXoXoXA.R A.R ,.v.",
"=.,.@.A.@.v.oXoXoXoXoXoXoXoXoXoXoXoXoXoXoXoXoXoXoXoXA.@.L.^ @.@.",
",.,.@.L.u.B.oXoXoXoXoXoXoXoXoXoXoXoXoXoXoXoXoXoXoXoXv.x g.F @.=.",
",.=.^ g.R A.oXoXoXoXoXoXoXoXoXoXoXoXoXoXoXoXoXoXoXoXG.x u.K @.,."
};
