/* XPM */
static char *fubao_11731286599[] = {
/* columns rows colors chars-per-pixel */
"32 32 11 1 ",
"  c None",
". c #100119",
"X c #5E3F26",
"o c #300945",
"O c #582A72",
"+ c #0FC232",
"@ c #BB8F5F",
"# c #005EFF",
"$ c #875E9E",
"% c #CDB5DA",
"& c #E5EFFF",
/* pixels */
"                                ",
"                                ",
"                                ",
"                                ",
"                                ",
"                                ",
"                                ",
"    X@@@@@@@@@@@@@@@@@@@@@@@@   ",
"    X@@@@@@@@@@@@@@@@@@@@@@@@   ",
"    X@@XXXXXXXXXXXXXXXXXXXX@@   ",
"    X@@###################X@@   ",
"    X@@&&...#######....#&&X@@   ",
"    X@@&.$$$.&&###.O$$$.&&X@@   ",
"    X@@&.oOO$........o$.&&X@@   ",
"    X@@&.ooO.%%%%%%%%.o.#&X@@   ",
"    X@@##...%%%%%%%%%%.###X@@   ",
"    X@@###.%%%%%%%%%%%%.##X@@   ",
"    X@@X#.%%%%%ooo%%%%oo.#X@@   ",
"    X@@X#.%%%%%o%o%%%%o%.#X@@   ",
"    X@@XX.%%%%%ooo%..%oo.+X@@   ",
"    X@@XX.%%%%%%%%.%%.%%.+X@@   ",
"    X@@+XX.%%%%%%%%%%%%.++X@@   ",
"    X@@+XX+.%%%%ooooooo.++X@@   ",
"    X@@+XX.oOOOOOOOO$$.O.+X@@   ",
"    X@@++.oOOOOo%%%%%%$.O.X@@   ",
"    X@@+.oOOOOoo%%%%%%%.oOX@@   ",
"    X@@.$OOOOoo%%%%%%%%%.OX@@   ",
"    X@@.$$OOoo%%%%%%%%%%.$X@@   ",
"    X@@+.$OO.%%%%%%%%%%%..X@@   ",
"    X@@@@@@@@@@@@@@@@@@@@@@@@   ",
"    X@@@@@@@@@@@@@@@@@@@@@@@@   ",
"    XXXXXXXXXXXXXXXXXXXXXXXXX   "
};
