/* XPM */
static char *aibao_01731063363[] = {
/* columns rows colors chars-per-pixel */
"32 32 6 1 ",
"  c None",
". c #100119",
"X c #300945",
"o c #582A72",
"O c #875E9E",
"+ c #CDB5DA",
/* pixels */
"                                ",
"                                ",
"                                ",
"                                ",
"                                ",
"                                ",
"                                ",
"                                ",
"                                ",
"                                ",
"                                ",
"                                ",
"                                ",
"                                ",
"                                ",
"                                ",
"                                ",
"                                ",
"                                ",
"          ...  ....             ",
"         .oOO..oOOO.            ",
"         .oooo........          ",
"         .XXo.++++++++..        ",
"         .++++++++ooo+++.       ",
"         .++++++++o+o+++.       ",
"         .++++++++ooo+...       ",
"         .+++++++++++.++.       ",
"          .++++++++++++..       ",
"         .++++ooooO.+++++.      ",
"         .++++oooO.++++++.      ",
"         .+++++OO.+++++++.      ",
"           .+++.XXXXo++.        "
};
