/* XPM */
static char *aibao_31731063363[] = {
/* columns rows colors chars-per-pixel */
"32 32 6 1 ",
"  c None",
". c #100119",
"X c #300945",
"o c #582A72",
"O c #875E9E",
"+ c #CDB5DA",
/* pixels */
"                                ",
"                                ",
"                                ",
"                                ",
"                                ",
"                                ",
"                                ",
"                                ",
"                                ",
"                                ",
"                                ",
"                                ",
"                                ",
"                                ",
"                                ",
"                                ",
"        ...                     ",
"    ... XOO.                    ",
"   .OOO.XooO.          ....     ",
"   .oooO.+++.          .OOO.    ",
"   .oooX+++++.         .ooO.    ",
"    .oo.++...+.    .....Xoo.    ",
"    .oX.+.OO..O....+++++.Xo.    ",
"    .X.++.ooO.o++++..++++...    ",
"    ...++.ooooo+++.OO.++++..    ",
"     .+++.XXooo++.oooO+++++.    ",
"    .+++++.XXoo++.Xooo+++++.    ",
"    .++++++.X.o+++.Xo++++++.    ",
"     .++++++...o+++..++++++.    ",
"     .++++++++..o++++++++++.    ",
"      ..+++++++...++++++++.     ",
"        .+++++++..+++++++.      "
};
