/* XPM */
static char *aibao_21731063363[] = {
/* columns rows colors chars-per-pixel */
"32 32 6 1 ",
"  c None",
". c #100119",
"X c #300945",
"o c #582A72",
"O c #875E9E",
"+ c #CDB5DA",
/* pixels */
"                                ",
"                                ",
"                                ",
"                                ",
"                                ",
"            ...                 ",
"           .oOO.      ..        ",
"           .ooO.     .oO..      ",
"         ...XooO.    .XO.o.     ",
"        .+++.Xoo. ....Xo.O.     ",
"       .+++++.ooo.++++....      ",
"      .++++++.Xoo++++++++.      ",
"      .+++++++.o+++++++++.      ",
"     oOO++++++.o+++++++++.      ",
"     ooOO++++++oX++++++++.      ",
"     Xooo++++++oX++++++++.      ",
"     Xoo+++++++X+++++++++.      ",
"     X.++++++++X+++++++++.      ",
"     ..++++++++X+++ooo+++.      ",
"       .+++++++X+++o+o+++.      ",
"       .+++++++X+++ooo++.       ",
"        .++++++X.+++++++.       ",
"         .+++++..++.+++.        ",
"          .....  ......         ",
"                                ",
"                                ",
"                                ",
"                                ",
"                                ",
"                                ",
"                                ",
"                                "
};
