/* XPM */
static char *aibao_11731063363[] = {
/* columns rows colors chars-per-pixel */
"32 32 6 1 ",
"  c None",
". c #100119",
"X c #300945",
"o c #582A72",
"O c #875E9E",
"+ c #CDB5DA",
/* pixels */
"                                ",
"                                ",
"                                ",
"                                ",
"                                ",
"                                ",
"                                ",
"                                ",
"                                ",
"           ..                   ",
"          .OO.                  ",
"       ...Xo.........           ",
"      .oOO..+++++++++.          ",
"      .oooo+++++++++++.         ",
"      .XXo.++++++ooo+++.        ",
"       ...+++++++o+o+++.        ",
"         .+++++++ooo++..        ",
"         .+++++++++++++.        ",
"         .+++++++++++++.        ",
"         .++++++++++++.         ",
"         .++++++++++..          ",
"          .++XXXXXXXXX..        ",
"         .XooooooX.XXoOO.       ",
"        .++++++++.XXoooO.       ",
"       .+++++++++.oooo..        ",
"      .+++++++++++.oo..         ",
"      .++++++++++++..+.         ",
"      .++++++++++++++.          ",
"       .++++++o+++++.           ",
"      .X.++++ooO++..            ",
"      .XX.. oooO..              ",
"      .XXX  ooooO.              "
};
