/* XPM */
static char *kangbao_01731066377[] = {
/* columns rows colors chars-per-pixel */
"32 32 14 1 ",
"  c None",
". c #141B1B",
"X c #3D2936",
"o c #52333F",
"O c #2C354D",
"+ c #2F5753",
"@ c #3B7D4F",
"# c #404973",
"$ c #8F4D57",
"% c #BD6A62",
"& c #FFAE70",
"* c #686F99",
"= c #A3A7C2",
"- c #F5FFE8",
/* pixels */
"                                ",
"                                ",
"                                ",
"                                ",
"        ................        ",
"        ................        ",
"      ..oo$$$$$$$$$$$$oo..      ",
"      ..oo$$$$$$$$$$$$oo..      ",
"    ..oooooo$$$$$$$$oooooo..    ",
"    ..oooooo$$$$$$$$oooooo..    ",
"    ..oooooooooooooooooooo..    ",
"    ..oooooooooooooooooooo..    ",
"    ..oooo%%%%%%%%%%%%oooo..    ",
"    ..oooo%%%%%%%%%%%%oooo..    ",
"    ..ooXXXXXX&&&&XXXXXXoo..    ",
"    ..ooXXXXXX&&&&XXXXXXoo..    ",
"  ..&&oo==OOOO&&&&OOOO==oo&&..  ",
"  ..&&oo==OOOO&&&&OOOO==oo&&..  ",
"  ..&&&&--####&&&&####--&&&&..  ",
"  ..&&&&--####&&&&####--&&&&..  ",
"    ..&&&&&&&&%%%%&&&&&&&&..    ",
"    ..&&&&&&&&%%%%&&&&&&&&..    ",
"      ..%%&&&&&&&&&&&&%%..      ",
"      ..%%&&&&&&&&&&&&%%..      ",
"    ..++@@%%%%%%%%%%%%@@++..    ",
"    ..++@@%%%%%%%%%%%%@@++..    ",
"  ..&&&&@@@@@@@@@@@@@@@@&&&&..  ",
"  ..&&&&@@@@@@@@@@@@@@@@&&&&..  ",
"  ..&&&&******....******&&&&..  ",
"  ..&&&&******....******&&&&..  ",
"    ....####........####....    ",
"    ....####........####....    "
};
