/* XPM */
static char *player_idle41714031254[] = {
/* columns rows colors chars-per-pixel */
"64 64 12 1 ",
"  c None",
". c black",
"X c #0E1218",
"o c #201012",
"O c #3D1E1C",
"+ c #532E2A",
"@ c #A56966",
"# c #2D6681",
"$ c #7B8995",
"% c #408EA9",
"& c #BD9E94",
"* c #A6AEB4",
/* pixels */
"                                                                ",
"                                                                ",
"                                                                ",
"                                                                ",
"                                                                ",
"                                                                ",
"                                                                ",
"                                                                ",
"                   ............  ......                         ",
"                   ............  ......                         ",
"                   ............  ......                         ",
"                   ...++++++OOO..+++.........                   ",
"                   ...++++++OOO..+++.........                   ",
"                   ...++++++OOO..+++.........                   ",
"                   ......++++++OO+++++++++OOO..                 ",
"                   ......++++++OO+++++++++OOO..                 ",
"                   ......++++++OO+++++++++OOO..                 ",
"                 ..OOO+++++++++++++++++++++++..                 ",
"                 ..OOO+++++++++++++++++++++++..                 ",
"              ...OO++++++++++++OO++++++++++++OO...              ",
"              ...OO++++++++++++OO++++++++++++OO...              ",
"              ...OO++++++++++++OO++++++++++++OO...              ",
"              ...++++++++OOOOOOOOOOO+++++++++++...              ",
"              ...++++++++OOOOOOOOOOO+++++++++++...              ",
"              ...++++++++OOOOOOOOOOO+++++++++++...              ",
"              ...++++++++OOO@@@@@@@@@@@OOO+++++...              ",
"              ...++++++++OOO@@@@@@@@@@@OOO+++++...              ",
"              ...++++++++OOO@@@@@@@@@@@OOO+++++...              ",
"              ...+++++OOO@@@@@@@@@@@@@@@@@OOO++...              ",
"              ...+++++OOO@@@@@@@@@@@@@@@@@OOO++...              ",
"              ...+++++OOO@@@@@@@@@@@@@@@@@OOO++...              ",
"              ...OO+++@@@ooo&&&&&&&&ooo@@@OOO..                 ",
"              ...OO+++@@@ooo&&&&&&&&ooo@@@OOO..                 ",
"                 ..+++&&&ooo&&&&&&&&ooo&&&&&&..                 ",
"                 ..+++&&&ooo&&&&&&&&ooo&&&&&&..                 ",
"                 ..+++&&&ooo&&&&&&&&ooo&&&&&&..                 ",
"                 ..@@@&&&&&&&&&&&&&&&&&&&&@@@..                 ",
"                 ..@@@&&&&&&&&&&&&&&&&&&&&@@@..                 ",
"                 ..@@@&&&&&&&&&&&&&&&&&&&&@@@..                 ",
"                   ...@@@&&&&&&&&&&&&&&@@@...                   ",
"                   ...@@@&&&&&&&&&&&&&&@@@...                   ",
"                   ...@@@&&&&&&&&&&&&&&@@@...                   ",
"                   ...OOO@@@@@@@@@@@@@@OOO...                   ",
"                   ...OOO@@@@@@@@@@@@@@OOO...                   ",
"                   ...OOO@@@@@@@@@@@@@@OOO...                   ",
"                   ...OOO+++$$$$$$$$+++OOO...                   ",
"                   ...OOO+++$$$$$$$$+++OOO...                   ",
"                 ..&&&&&&+++$$$*****+++&&&&&&..                 ",
"                 ..&&&&&&+++$$$*****+++&&&&&&..                 ",
"                 ..&&&&&&+++$$$*****+++&&&&&&..                 ",
"                 ..&&&&&&%%%%%%##%%%%%%&&&&&&..                 ",
"                 ..&&&&&&%%%%%%##%%%%%%&&&&&&..                 ",
"                 ..&&&&&&%%%%%%##%%%%%%&&&&&&..                 ",
"                 XX...%%%%%%###..###%%%%%%...XX                 ",
"                 XX...%%%%%%###..###%%%%%%...XX                 ",
"                 XX...%%%%%%###..###%%%%%%...XX                 ",
"              XXXXX...OOO+++...XX...+++OOO...XXXXX              ",
"              XXXXX...OOO+++...XX...+++OOO...XXXXX              ",
"              XXXXXXXXXXXXXXXXXXXXXXXXXXXXXXXXXXXX              ",
"              XXXXXXXXXXXXXXXXXXXXXXXXXXXXXXXXXXXX              ",
"              XXXXXXXXXXXXXXXXXXXXXXXXXXXXXXXXXXXX              ",
"                 XXXXXXXXXXXXXXXXXXXXXXXXXXXXXX                 ",
"                 XXXXXXXXXXXXXXXXXXXXXXXXXXXXXX                 ",
"                 XXXXXXXXXXXXXXXXXXXXXXXXXXXXXX                 "
};
