/* XPM */
static char *kangbao_01731290697[] = {
/* columns rows colors chars-per-pixel */
"32 32 13 1 ",
"  c None",
". c #16191B",
"X c #151A1B",
"o c #141B1B",
"O c #33383A",
"+ c #32393A",
"@ c #47312E",
"# c #404973",
"$ c #BD8362",
"% c #52AB8F",
"& c #EEBC88",
"* c #A3A7C2",
"= c #F5FFE8",
/* pixels */
"                                ",
"                                ",
"                                ",
"                                ",
"        oooooooooooooooo        ",
"        oooooooooooooooo        ",
"      oooo++++++OO++++oooo      ",
"      oooo+++++OOO++++oooo      ",
"    ooo.o.o.OOOO++OOo.o.oooo    ",
"    oo.o.o.oOOOO+OOO.o.ooooo    ",
"    ooo.o.o.o.o.ooo.o.o.o.oo    ",
"    oo.o.o.o.o.ooo.o.o.o.ooo    ",
"    ooo.o.$$$$$$$$$$$$o.o.oo    ",
"    oo.o.o$$$$$$$$$$$$.o.ooo    ",
"    ooooOOOOOO&&&&OOOOOOo.oo    ",
"    ooooOOOOOO&&&&OOOOOO.ooo    ",
"  oo&&.o**....&&&&....**oo&&oo  ",
"  oo&&o.**....&&&&....**o.&&oo  ",
"  oo&&&&==OOOO&&&&OOOO==&&&&oo  ",
"  oo&&&&==OOOO&&&&OOOO==&&&&oo  ",
"    oo&&&&&&&&$$$$&&&&&&&&oo    ",
"    oo&&&&&&&&$$$$&&&&&&&&oo    ",
"      oo$$&&&&&&&&&&&&$$oo      ",
"      oo$$&&&&&&&&&&&&$$oo      ",
"    oo%%%%$$$$$$$$$$$$%%%%oo    ",
"    oo%%%%$$$$$$$$$$$$%%%%oo    ",
"  oo&&&&%%%%%%%%%%%%%%%%&&&&oo  ",
"  oo&&&&%%%%%%%%%%%%%%%%&&&&oo  ",
"  oo&&&&@@@@@@oooo@@@@@@&&&&oo  ",
"  oo&&&&@@@@@@oooo@@@@@@&&&&oo  ",
"    oooo####oooooooo####oooo    ",
"    oooo####oooooooo####oooo    "
};
