/* XPM */
static char *kangbao_11731290697[] = {
/* columns rows colors chars-per-pixel */
"32 32 12 1 ",
"  c None",
". c #16191B",
"X c #141B1B",
"o c #33383A",
"O c #32393A",
"+ c #47312E",
"@ c #404973",
"# c #BD8362",
"$ c #52AB8F",
"% c #EEBC88",
"& c #A3A7C2",
"* c #F5FFE8",
/* pixels */
"                                ",
"                                ",
"                                ",
"                                ",
"                                ",
"                                ",
"        XXXXXXXXXXXXXXXX        ",
"        XXXXXXXXXXXXXXXX        ",
"      XX..ooOOOOOOOOOo..XX      ",
"      XX..OOOOOOOOOOOo..XX      ",
"    XX....X.OOOoOOOOX...X.XX    ",
"    XX......OOOoOOoo......XX    ",
"    XX..........X.........XX    ",
"    XX....................XX    ",
"    XXX...############....XX    ",
"    XXX...############....XX    ",
"    XX..oooooo%%%%oooooo..XX    ",
"    XX..oooooo%%%%oooooo..XX    ",
"  XX%%..&&....%%%%....&&..%%XX  ",
"  XX%%..&&....%%%%....&&..%%XX  ",
"  XX%%%%**oooo%%%%oooo**%%%%XX  ",
"  XX%%%%**oooo%%%%oooo**%%%%XX  ",
"    XX%%%%%%%%####%%%%%%%%XX    ",
"    XX%%%%%%%%####%%%%%%%%XX    ",
"    XXXX##%%%%%%%%%%%%##XXXX    ",
"    XXXX##%%%%%%%%%%%%##XXXX    ",
"  XX%%%%$$############$$%%%%XX  ",
"  XX%%%%$$############$$%%%%XX  ",
"  XX%%%%++++++XXXX++++++%%%%XX  ",
"  XX%%%%++++++XXXX++++++%%%%XX  ",
"    XXXX@@@@XXXXXXXX@@@@XXXX    ",
"    XXXX@@@@XXXXXXXX@@@@XXXX    "
};
