/* XPM */
static char *lebao_01731062652[] = {
/* columns rows colors chars-per-pixel */
"32 32 6 1 ",
"  c None",
". c #100119",
"X c #300945",
"o c #582A72",
"O c #875E9E",
"+ c #CDB5DA",
/* pixels */
"                                ",
"                                ",
"                                ",
"                                ",
"                                ",
"                                ",
"                                ",
"                                ",
"                                ",
"                                ",
"                                ",
"                                ",
"                                ",
"                                ",
"                                ",
"                                ",
"                                ",
"                                ",
"                                ",
"           ........             ",
"         ..++++++++.            ",
"        .++...++++++...         ",
"       .++.oOO.++++.OOO.        ",
"      .+++.ooo......ooO.        ",
"     .++++.Xo++++++++oo.        ",
"    ..+++++.++++++++++.         ",
"   .O.++++.++++++++++++.        ",
"   .o.+++.+++ooo++++ooo+.       ",
"   .o.+.O.+++o+o++++o+o+.       ",
"   .o.+.o.+++ooo+..+ooo+.       ",
"   .oX..o.++++++.++.++++.       ",
"   .oo..oX.++++++++++++.        "
};
