/* XPM */
static char *ruibao_01731062356[] = {
/* columns rows colors chars-per-pixel */
"32 32 6 1 ",
"  c None",
". c #100119",
"X c #300945",
"o c #582A72",
"O c #875E9E",
"+ c #CDB5DA",
/* pixels */
"                                ",
"                                ",
"                                ",
"                                ",
"                                ",
"                                ",
"                                ",
"                                ",
"                                ",
"                                ",
"                                ",
"                                ",
"                  ...           ",
"      ...  ........OO.          ",
"     .oOO..++++++++...          ",
"     .ooo.++++++++++++.         ",
"     .Xo.+++++++++++++.         ",
"      ..+++++++++++....         ",
"       .++++++++++++++.         ",
"       .++...+++..++++.         ",
"       .+++++++.++.+++.         ",
"        .++++++++++++.          ",
"     ..  .+++++XXXX+......      ",
"    .OO....Xooooooooo.XooO.     ",
"    .oOOoooooo++OOOO++.XooO.    ",
"     .oooXX++++++++++++....     ",
"      ...X++++++++++++++.       ",
"         .++++++++++++++.       ",
"         .++++++++++++++..      ",
"          ..++oO+++++++.oO.     ",
"            .oooO......Xoo.     ",
"            .XXooO.             "
};
