/* XPM */
static char *wotou_01731290626[] = {
/* columns rows colors chars-per-pixel */
"32 32 6 1 ",
"  c None",
". c #060608",
"X c #71413B",
"o c #BB7547",
"O c #DBA463",
"+ c #F4D29C",
/* pixels */
"                                ",
"                                ",
"                                ",
"                                ",
"                                ",
"                                ",
"                                ",
"                                ",
"                                ",
"                                ",
"                                ",
"                                ",
"                                ",
"                                ",
"                                ",
"                                ",
"                                ",
"                                ",
"           .....                ",
"          .oOOOO..              ",
"         .ooOXoOOO..            ",
"         .oOOoOOOOOO.           ",
"         .ooOOoOO+OOO.          ",
"         .ooooOOOO++OO.         ",
"          .ooOOooO+++OO.        ",
"           .oooOoOO++OO.        ",
"           .XooOOOOOOOo.        ",
"            .XoOoOooOOX.        ",
"             .oooXOOOo.         ",
"             .XooooooX.         ",
"              .oooooX.          ",
"               ......           "
};
