/* XPM */
static char *wotou1731066627[] = {
/* columns rows colors chars-per-pixel */
"32 32 6 1 ",
"  c None",
". c black",
"X c #42211E",
"o c #753314",
"O c #8B3804",
"+ c #AB5E24",
/* pixels */
"                                ",
"                                ",
"                                ",
"                                ",
"                  ....XXoo      ",
"                  ....XXoo      ",
"                oo++OOoooo..    ",
"                oo++OOoooo..    ",
"            ..XXOOXXooXXooooXX  ",
"            ..XXOOXXooXXooooXX  ",
"        ..ooOO++++oo..ooXXooXX  ",
"        ..ooOO++++oo..ooXXooXX  ",
"      ooooOO++++++++XXXXooooXX  ",
"      ooooOO++++++++XXXXooooXX  ",
"    XXooOOoo++OO++OOOOoooooo..  ",
"    XXooOOoo++OO++OOOOoooooo..  ",
"    XX++++ooXXooOOOOooOOOOoo..  ",
"    XX++++ooXXooOOOOooOOOOoo..  ",
"    XXooooXXXXooOOooOOoooooo..  ",
"    XXooooXXXXooOOooOOoooooo..  ",
"    ..oo++OOooXXooOOooooooXX    ",
"    ..oo++OOooXXooOOooooooXX    ",
"    ..ooOO++++OOooooOOoooo..    ",
"    ..ooOO++++OOooooOOoooo..    ",
"      XXooOOOOooOOooooXX..      ",
"      XXooOOOOooOOooooXX..      ",
"        ..XXOOooooooXX..        ",
"        ..XXOOooooooXX..        ",
"            ooXX....            ",
"            ooXX....            ",
"                                ",
"                                "
};
